SplineFontDB: 3.2
FontName: Aeroport
FullName: Aeroport
FamilyName: Aeroport
Weight: Regular
Copyright: Copyright (c) 2017 by Gayane Bagdasaryan, Vyacheslav Kirilenko. All rights reserved.
Version: 001.001
ItalicAngle: 0
UnderlinePosition: -100
UnderlineWidth: 50
Ascent: 755
Descent: 245
InvalidEm: 0
sfntRevision: 0x00010000
LayerCount: 2
Layer: 0 0 "+BBcEMAQ0BD0EVgQ5 +BD8EOwQwBD0A" 1
Layer: 1 0 "+BB8ENQRABDUENAQ9BFYEOQAA +BD8EOwQwBD0A" 0
XUID: [1021 57 -822868501 15108193]
StyleMap: 0x0040
FSType: 4
OS2Version: 3
OS2_WeightWidthSlopeOnly: 0
OS2_UseTypoMetrics: 0
CreationTime: 1490604120
ModificationTime: 1709292806
PfmFamily: 17
TTFWeight: 400
TTFWidth: 5
LineGap: 367
VLineGap: 0
Panose: 2 0 0 0 0 0 0 0 0 0
OS2TypoAscent: 755
OS2TypoAOffset: 0
OS2TypoDescent: -245
OS2TypoDOffset: 0
OS2TypoLinegap: 367
OS2WinAscent: 1059
OS2WinAOffset: 0
OS2WinDescent: 308
OS2WinDOffset: 0
HheadAscent: 755
HheadAOffset: 0
HheadDescent: -245
HheadDOffset: 0
OS2SubXSize: 650
OS2SubYSize: 600
OS2SubXOff: 0
OS2SubYOff: 75
OS2SupXSize: 650
OS2SupYSize: 600
OS2SupXOff: 0
OS2SupYOff: 350
OS2StrikeYSize: 50
OS2StrikeYPos: 276
OS2CapHeight: 664
OS2XHeight: 460
OS2CodePages: 00000097.00000000
OS2UnicodeRanges: a00002ff.5000a46a.00000000.00000000
Lookup: 258 0 0 "'kern' +BBMEPgRABDgENwQ+BD0EQgQwBDsETAQ9BDgEOQAA +BDoENQRABD0EVgQ9BJEA, +BEQEVgQ7BEwEQgRABEMEMgQwBD0EPQRP 0" { "'kern' +BBMEPgRABDgENwQ+BD0EQgQwBDsETAQ9BDgEOQAA +BDoENQRABD0EVgQ9BJEA, +BEQEVgQ7BEwEQgRABEMEMgQwBD0EPQRP 0, +BD0EMAAA +BDQEMAQ9BFYA +BDMEOwRWBEQEVgQy 0"  "'kern' +BBMEPgRABDgENwQ+BD0EQgQwBDsETAQ9BDgEOQAA +BDoENQRABD0EVgQ9BJEA, +BEQEVgQ7BEwEQgRABEMEMgQwBD0EPQRP 0, +BDoEOwQwBEEA +BDoENQRABD0EVgQ9BJEEQwAA 1"  } ['kern' ('DFLT' <'dflt' > ) ]
DEI: 91125
KernClass2: 71+ 67 "'kern' +BBMEPgRABDgENwQ+BD0EQgQwBDsETAQ9BDgEOQAA +BDoENQRABD0EVgQ9BJEA, +BEQEVgQ7BEwEQgRABEMEMgQwBD0EPQRP 0, +BDoEOwQwBEEA +BDoENQRABD0EVgQ9BJEEQwAA 1"
 6 Lcaron
 4 Tbar
 1 X
 5 space
 7 uni0405
 7 uni0408
 7 uni0424
 7 uni0430
 7 uni0431
 7 uni0442
 1 x

StartChar: comma
Encoding: 44 44 1
Width: 1229
VWidth: 2048
GlyphClass: 1
Flags: HMW
LayerCount: 2
Fore
SplineSet
616 -27 m 1
 581.333333333 -23 552.666666667 -8.66666666667 530 16 c 128
 507.333333333 40.6666666667 496 68.6666666667 496 100 c 0
 496 134 507 162.666666667 529 186 c 128
 551 209.333333333 578.666666667 221 612 221 c 0
 649.333333333 221 681.666666667 205.833333333 709 175.5 c 128
 736.333333333 145.166666667 750 108.666666667 750 66 c 0
 750 -64.6666666667 677.333333333 -166.666666667 532 -240 c 1
 494 -168 l 1
 575.333333333 -128 616 -81 616 -27 c 1
EndSplineSet
EndChar

StartChar: period
Encoding: 46 46 2
Width: 1229
VWidth: 2048
GlyphClass: 1
Flags: HMW
LayerCount: 2
Fore
SplineSet
608 229 m 0
 643.333333333 229 673 217 697 193 c 128
 721 169 733 139.333333333 733 104 c 0
 733 68 720.833333333 37.1666666667 696.5 11.5 c 128
 672.166666667 -14.1666666667 642.666666667 -27 608 -27 c 0
 574 -27 545 -14.1666666667 521 11.5 c 128
 497 37.1666666667 485 68 485 104 c 256
 485 140 496.833333333 169.833333333 520.5 193.5 c 128
 544.166666667 217.166666667 573.333333333 229 608 229 c 0
EndSplineSet
EndChar

StartChar: A
Encoding: 65 65 3
Width: 681
GlyphClass: 1
Flags: MW
HStem: 0 21G<0 93 0 0 585 585 585 681> 154 83<160 482 196 482 196 518> 644 20G<292 390 390 390>
LayerCount: 2
Fore
SplineSet
160 154 m 1
 93 0 l 1
 0 0 l 1
 292 664 l 1
 390 664 l 1
 681 0 l 1
 585 0 l 1
 518 154 l 1
 160 154 l 1
482 237 m 1
 339 566 l 1
 196 237 l 1
 482 237 l 1
EndSplineSet
EndChar

StartChar: B
Encoding: 66 66 4
Width: 655
GlyphClass: 1
Flags: MW
HStem: 0 84<175 387 387 388> 290 84<175 387 175 387> 580 84<175 387 175 175>
VStem: 85 90<84 84 84 290 374 580> 510 90<153 206.5 129.5 221 457.5 511>
CounterMasks: 1 e0
LayerCount: 2
Fore
SplineSet
513 332 m 1
 585 291 600 234 600 179 c 0
 600 80 533 0 388 0 c 2
 85 0 l 1
 85 664 l 1
 388 664 l 2
 533 664 600 584 600 485 c 0
 600 430 585 373 513 332 c 1
175 84 m 1
 387 84 l 2
 463 84 510 119 510 187 c 0
 510 255 463 290 387 290 c 2
 175 290 l 1
 175 84 l 1
175 374 m 1
 387 374 l 2
 463 374 510 409 510 477 c 0
 510 545 463 580 387 580 c 2
 175 580 l 1
 175 374 l 1
EndSplineSet
EndChar

StartChar: C
Encoding: 67 67 5
Width: 715
GlyphClass: 1
Flags: MW
HStem: -13 84<314.5 428 314.5 453.5> 593 84<314.5 428>
VStem: 45 90<257 407 257 430>
LayerCount: 2
Fore
SplineSet
386 593 m 0
 243 593 135 482 135 332 c 0
 135 182 243 71 386 71 c 0
 470 71 532 108 573 165 c 1
 675 165 l 1
 622 59 521 -13 386 -13 c 0
 193 -13 45 136 45 332 c 0
 45 528 193 677 386 677 c 0
 521 677 622 605 675 499 c 1
 573 499 l 1
 532 556 470 593 386 593 c 0
EndSplineSet
EndChar

StartChar: D
Encoding: 68 68 6
Width: 717
GlyphClass: 1
Flags: MW
HStem: 0 84<175 308> 580 84<175 308 308 314 175 175>
VStem: 85 90<84 580 84 664 84 664> 582 90<259 405>
LayerCount: 2
Fore
SplineSet
85 664 m 1
 308 664 l 2
 540 664 672 514 672 332 c 0
 672 150 540 0 308 0 c 2
 85 0 l 1
 85 664 l 1
582 332 m 0
 582 478 481 580 314 580 c 2
 175 580 l 1
 175 84 l 1
 314 84 l 2
 481 84 582 186 582 332 c 0
EndSplineSet
EndChar

StartChar: E
Encoding: 69 69 7
Width: 600
GlyphClass: 1
Flags: MW
HStem: 0 84<175 535 175 535> 290 84<175 528 175 528> 580 84<175 535 175 175>
VStem: 85 90<84 290 374 580>
CounterMasks: 1 e0
LayerCount: 2
Fore
SplineSet
535 580 m 1
 175 580 l 1
 175 374 l 1
 528 374 l 1
 528 290 l 1
 175 290 l 1
 175 84 l 1
 535 84 l 1
 535 0 l 1
 85 0 l 1
 85 664 l 1
 535 664 l 1
 535 580 l 1
EndSplineSet
EndChar

StartChar: F
Encoding: 70 70 8
Width: 580
GlyphClass: 1
Flags: MW
HStem: 0 21G<85 175 85 85> 290 84<175 528 175 528> 580 84<175 535 175 175>
VStem: 85 90<0 290 374 580>
LayerCount: 2
Fore
SplineSet
535 580 m 1
 175 580 l 1
 175 374 l 1
 528 374 l 1
 528 290 l 1
 175 290 l 1
 175 0 l 1
 85 0 l 1
 85 664 l 1
 535 664 l 1
 535 580 l 1
EndSplineSet
EndChar

StartChar: G
Encoding: 71 71 9
Width: 753
GlyphClass: 1
Flags: MW
HStem: -13 84<314.5 447.5 314.5 477> 261 84<373 612 373 708> 593 84<314.5 427>
VStem: 45 90<257 407 257 430>
LayerCount: 2
Fore
SplineSet
386 593 m 0
 243 593 135 482 135 332 c 0
 135 182 242 71 387 71 c 0
 508 71 588 149 612 261 c 1
 373 261 l 1
 373 345 l 1
 708 345 l 1
 708 130 564 -13 390 -13 c 0
 195 -13 45 136 45 332 c 0
 45 528 193 677 386 677 c 0
 519 677 626 604 680 499 c 1
 577 499 l 1
 537 555 468 593 386 593 c 0
EndSplineSet
EndChar

StartChar: H
Encoding: 72 72 10
Width: 738
GlyphClass: 1
Flags: MW
HStem: 0 21G<85 175 85 85 563 653 563 563> 290 84<175 563 175 563> 644 20G<85 175 175 175 563 653 653 653>
VStem: 85 90<0 290 0 374 374 664> 563 90<0 290 290 290 374 664>
LayerCount: 2
Fore
SplineSet
653 0 m 1
 563 0 l 1
 563 290 l 1
 175 290 l 1
 175 0 l 1
 85 0 l 1
 85 664 l 1
 175 664 l 1
 175 374 l 1
 563 374 l 1
 563 664 l 1
 653 664 l 1
 653 0 l 1
EndSplineSet
EndChar

StartChar: I
Encoding: 73 73 11
Width: 260
GlyphClass: 1
Flags: MW
HStem: 0 21G<85 175 85 85> 644 20G<85 175 175 175>
VStem: 85 90<0 664 0 664>
LayerCount: 2
Fore
SplineSet
175 664 m 1
 175 0 l 1
 85 0 l 1
 85 664 l 1
 175 664 l 1
EndSplineSet
EndChar

StartChar: J
Encoding: 74 74 12
Width: 407
GlyphClass: 1
Flags: MW
HStem: 0 84<5 133 5 133> 644 20G<237 327 327 327>
VStem: 237 90<180 664>
LayerCount: 2
Fore
SplineSet
237 664 m 1
 327 664 l 1
 327 180 l 2
 327 64 249 0 133 0 c 2
 5 0 l 1
 5 84 l 1
 133 84 l 2
 199 84 237 114 237 180 c 2
 237 664 l 1
EndSplineSet
EndChar

StartChar: K
Encoding: 75 75 13
Width: 612
GlyphClass: 1
Flags: MW
HStem: 0 21G<85 175 85 85 487 607 487 487> 644 20G<85 175 175 175 487 607 607 607>
VStem: 85 90<0 287 377 664>
LayerCount: 2
Fore
SplineSet
252 332 m 1
 607 0 l 1
 487 0 l 1
 175 287 l 1
 175 0 l 1
 85 0 l 1
 85 664 l 1
 175 664 l 1
 175 377 l 1
 487 664 l 1
 607 664 l 1
 252 332 l 1
EndSplineSet
EndChar

StartChar: L
Encoding: 76 76 14
Width: 565
GlyphClass: 1
Flags: MW
HStem: 0 84<175 535 175 535> 644 20G<85 175 175 175>
VStem: 85 90<84 664 84 664 84 664>
LayerCount: 2
Fore
SplineSet
175 664 m 1
 175 84 l 1
 535 84 l 1
 535 0 l 1
 85 0 l 1
 85 664 l 1
 175 664 l 1
EndSplineSet
EndChar

StartChar: M
Encoding: 77 77 15
Width: 960
GlyphClass: 1
Flags: MW
HStem: 0 21G<85 175 85 85 480 480 785 785 785 875> 644 20G<85 199 199 199 765 875 875 875>
VStem: 85 90<0 531 0 664> 785 90<0 531 531 531>
LayerCount: 2
Fore
SplineSet
785 531 m 1
 480 0 l 1
 175 531 l 1
 175 0 l 1
 85 0 l 1
 85 664 l 1
 199 664 l 1
 482 168 l 1
 765 664 l 1
 875 664 l 1
 875 0 l 1
 785 0 l 1
 785 531 l 1
EndSplineSet
EndChar

StartChar: N
Encoding: 78 78 16
Width: 766
GlyphClass: 1
Flags: MW
HStem: 0 21G<85 175 85 85 580 681 580 580> 644 20G<85 186 186 186 591 681 681 681>
VStem: 85 90<0 536 0 664> 591 90<128 664 0 664>
LayerCount: 2
Fore
SplineSet
591 664 m 1
 681 664 l 1
 681 0 l 1
 580 0 l 1
 175 536 l 1
 175 0 l 1
 85 0 l 1
 85 664 l 1
 186 664 l 1
 591 128 l 1
 591 664 l 1
EndSplineSet
EndChar

StartChar: O
Encoding: 79 79 17
Width: 772
GlyphClass: 1
Flags: MW
HStem: -13 84<314.5 457.5 314.5 482.5> 593 84<314.5 457.5>
VStem: 45 90<257 407 257 430> 637 90<257 407>
LayerCount: 2
Fore
SplineSet
386 677 m 0
 579 677 727 528 727 332 c 0
 727 136 579 -13 386 -13 c 0
 193 -13 45 136 45 332 c 0
 45 528 193 677 386 677 c 0
386 593 m 0
 243 593 135 482 135 332 c 0
 135 182 243 71 386 71 c 0
 529 71 637 182 637 332 c 0
 637 482 529 593 386 593 c 0
EndSplineSet
EndChar

StartChar: P
Encoding: 80 80 18
Width: 660
GlyphClass: 1
Flags: MW
HStem: 0 21G<85 175 85 85> 274 84<175 398 175 398> 580 84<175 398 175 175>
VStem: 85 90<0 274 0 358 358 580> 530 90<432.5 505.5>
LayerCount: 2
Fore
SplineSet
620 469 m 0
 620 363 551 274 398 274 c 2
 175 274 l 1
 175 0 l 1
 85 0 l 1
 85 664 l 1
 398 664 l 2
 551 664 620 575 620 469 c 0
530 469 m 0
 530 542 479 580 398 580 c 2
 175 580 l 1
 175 358 l 1
 398 358 l 2
 479 358 530 396 530 469 c 0
EndSplineSet
EndChar

StartChar: Q
Encoding: 81 81 19
Width: 772
GlyphClass: 1
Flags: MW
HStem: -13 84<314.5 406.5 314.5 418> 593 84<314.5 457.5>
VStem: 45 90<257 407 257 430> 637 90<294 407>
LayerCount: 2
Fore
SplineSet
386 677 m 0
 579 677 727 528 727 332 c 0
 727 231 688 143 624 81 c 1
 715 -13 l 1
 604 -13 l 1
 560 33 l 1
 509 3 450 -13 386 -13 c 0
 193 -13 45 136 45 332 c 0
 45 528 193 677 386 677 c 0
386 593 m 0
 243 593 135 482 135 332 c 0
 135 182 243 71 386 71 c 0
 427 71 465 80 499 96 c 1
 329 274 l 1
 440 274 l 1
 564 144 l 1
 609 191 637 256 637 332 c 0
 637 482 529 593 386 593 c 0
EndSplineSet
EndChar

StartChar: R
Encoding: 82 82 20
Width: 663
GlyphClass: 1
Flags: MW
HStem: 0 21G<85 175 85 85 508 638 508 508> 274 84<175 197 175 398 326 398 326 326> 580 84<175 398 175 175>
VStem: 85 90<0 274 0 358 358 580> 530 90<432.5 505.5>
LayerCount: 2
Fore
SplineSet
620 469 m 0
 620 363 551 274 398 274 c 2
 326 274 l 1
 638 0 l 1
 508 0 l 1
 197 274 l 1
 175 274 l 1
 175 0 l 1
 85 0 l 1
 85 664 l 1
 398 664 l 2
 551 664 620 575 620 469 c 0
530 469 m 0
 530 542 479 580 398 580 c 2
 175 580 l 1
 175 358 l 1
 398 358 l 2
 479 358 530 396 530 469 c 0
EndSplineSet
EndChar

StartChar: T
Encoding: 84 84 21
Width: 600
GlyphClass: 1
Flags: MW
HStem: 0 21G<255 345 255 255> 580 84<25 255 25 575 345 575 345 345>
VStem: 255 90<0 580 0 580>
LayerCount: 2
Fore
SplineSet
25 664 m 1
 575 664 l 1
 575 580 l 1
 345 580 l 1
 345 0 l 1
 255 0 l 1
 255 580 l 1
 25 580 l 1
 25 664 l 1
EndSplineSet
EndChar

StartChar: U
Encoding: 85 85 22
Width: 736
GlyphClass: 1
Flags: MW
HStem: -13 84<307 429 307 455> 644 20G<80 170 170 170 566 656 656 656>
VStem: 80 90<275 664> 566 90<275 664>
LayerCount: 2
Fore
SplineSet
80 275 m 2
 80 664 l 1
 170 664 l 1
 170 275 l 2
 170 140 246 71 368 71 c 0
 490 71 566 140 566 275 c 2
 566 664 l 1
 656 664 l 1
 656 275 l 2
 656 90 542 -13 368 -13 c 0
 194 -13 80 90 80 275 c 2
EndSplineSet
EndChar

StartChar: V
Encoding: 86 86 23
Width: 673
GlyphClass: 1
Flags: MW
HStem: 0 21G<287 385 287 287> 644 20G<5 101 101 101 575 668 668 668>
LayerCount: 2
Fore
SplineSet
101 664 m 1
 338 98 l 1
 575 664 l 1
 668 664 l 1
 385 0 l 1
 287 0 l 1
 5 664 l 1
 101 664 l 1
EndSplineSet
EndChar

StartChar: W
Encoding: 87 87 24
Width: 1058
GlyphClass: 1
Flags: MW
HStem: 0 21G<238 343 238 238 717 822 717 717> 644 20G<10 107 107 107 476 581 581 581 952 1048 1048 1048>
LayerCount: 2
Fore
SplineSet
10 664 m 1
 107 664 l 1
 293 116 l 1
 476 664 l 1
 581 664 l 1
 768 117 l 1
 952 664 l 1
 1048 664 l 1
 822 0 l 1
 717 0 l 1
 528 558 l 1
 343 0 l 1
 238 0 l 1
 10 664 l 1
EndSplineSet
EndChar

StartChar: X
Encoding: 88 88 25
Width: 610
GlyphClass: 1
Flags: MW
HStem: 0 21G<15 117 15 15 493 595 493 493> 644 20G<15 118 118 118 492 595 595 595>
LayerCount: 2
Fore
SplineSet
493 0 m 1
 305 261 l 1
 117 0 l 1
 15 0 l 1
 253 332 l 1
 15 664 l 1
 118 664 l 1
 305 404 l 1
 492 664 l 1
 595 664 l 1
 356 332 l 1
 595 0 l 1
 493 0 l 1
EndSplineSet
EndChar

StartChar: Y
Encoding: 89 89 26
Width: 590
GlyphClass: 1
Flags: MW
HStem: 0 21G<250 340 250 250> 644 20G<0 99 99 99 494 590 590 590>
VStem: 250 90<0 247 0 247>
LayerCount: 2
Fore
SplineSet
296 331 m 1
 494 664 l 1
 590 664 l 1
 340 247 l 1
 340 0 l 1
 250 0 l 1
 250 247 l 1
 0 664 l 1
 99 664 l 1
 296 331 l 1
EndSplineSet
EndChar

StartChar: Z
Encoding: 90 90 27
Width: 638
GlyphClass: 1
Flags: MW
HStem: 0 84<162 583 162 583> 580 84<55 476 55 583>
LayerCount: 2
Fore
SplineSet
583 664 m 1
 583 577 l 1
 162 84 l 1
 583 84 l 1
 583 0 l 1
 56 0 l 1
 56 86 l 1
 476 580 l 1
 55 580 l 1
 55 664 l 1
 583 664 l 1
EndSplineSet
EndChar

StartChar: b
Encoding: 98 98 28
Width: 604
GlyphClass: 1
Flags: MW
HStem: -13 80<288.5 362.5 278 396.5> 0 67 393 80<288.5 362.5> 649 20G<80 166 166 166>
VStem: 80 86<0 50 410 669> 468 86<186 274>
LayerCount: 2
Fore
SplineSet
80 669 m 1x7c
 166 669 l 1
 166 410 l 1
 200 448 256 473 321 473 c 0
 472 473 554 357 554 230 c 0
 554 103 472 -13 321 -13 c 0xbc
 256 -13 200 12 166 50 c 1
 166 0 l 1
 80 0 l 1
 80 669 l 1x7c
163 230 m 0
 163 121 238 67 318 67 c 0
 407 67 468 142 468 230 c 0
 468 318 407 393 318 393 c 0
 238 393 163 339 163 230 c 0
EndSplineSet
EndChar

StartChar: c
Encoding: 99 99 29
Width: 552
GlyphClass: 1
Flags: MW
HStem: -13 80<245 317 245 341> 393 80<245 317>
VStem: 50 86<184.5 275.5 184.5 299.5>
LayerCount: 2
Fore
SplineSet
507 326 m 1
 412 326 l 1
 388 367 344 393 290 393 c 0
 200 393 136 321 136 230 c 0
 136 139 200 67 290 67 c 0
 344 67 388 93 412 134 c 1
 507 134 l 1
 474 45 392 -13 290 -13 c 0
 154 -13 50 91 50 230 c 0
 50 369 154 473 290 473 c 0
 392 473 474 415 507 326 c 1
EndSplineSet
EndChar

StartChar: d
Encoding: 100 100 30
Width: 604
GlyphClass: 1
Flags: MW
HStem: -13 80<241.5 315.5> 0 67 393 80<241.5 315.5 207.5 326> 649 20G<438 524 524 524>
VStem: 50 86<186 274 186 293.5> 438 86<0 50 50 50 410 669 0 669>
LayerCount: 2
Fore
SplineSet
438 669 m 1xbc
 524 669 l 1
 524 0 l 1
 438 0 l 1x7c
 438 50 l 1
 404 12 348 -13 283 -13 c 0
 132 -13 50 103 50 230 c 0
 50 357 132 473 283 473 c 0
 348 473 404 448 438 410 c 1
 438 669 l 1xbc
441 230 m 0
 441 339 366 393 286 393 c 0
 197 393 136 318 136 230 c 0
 136 142 197 67 286 67 c 0
 366 67 441 121 441 230 c 0
EndSplineSet
EndChar

StartChar: e
Encoding: 101 101 31
Width: 562
GlyphClass: 1
Flags: MW
HStem: -13 80<251.5 318 251.5 341.5> 198 75<140 422 140 510 139 422> 393 80<246.5 323.5>
LayerCount: 2
Fore
SplineSet
291 67 m 0
 345 67 389 88 413 129 c 1
 506 129 l 1
 474 40 392 -13 291 -13 c 0
 152 -13 50 89 50 231 c 0
 50 369 147 473 286 473 c 0
 418 473 512 368 512 236 c 0
 512 225 512 211 510 198 c 1
 139 198 l 1
 149 123 212 67 291 67 c 0
286 393 m 0
 207 393 150 344 140 273 c 1
 422 273 l 1
 411 344 361 393 286 393 c 0
EndSplineSet
EndChar

StartChar: f
Encoding: 102 102 32
Width: 353
GlyphClass: 1
Flags: MW
HStem: 0 21G<100 186 100 100> 384 76<15 100 15 100 186 333> 593 76<244.5 333 273 333>
VStem: 100 86<0 384 460 514>
LayerCount: 2
Fore
SplineSet
186 0 m 1
 100 0 l 1
 100 384 l 1
 15 384 l 1
 15 460 l 1
 100 460 l 1
 100 524 l 2
 100 608 159 669 273 669 c 2
 333 669 l 1
 333 593 l 1
 273 593 l 2
 216 593 186 560 186 514 c 2
 186 460 l 1
 333 460 l 1
 333 384 l 1
 186 384 l 1
 186 0 l 1
EndSplineSet
EndChar

StartChar: g
Encoding: 103 103 33
Width: 604
GlyphClass: 1
Flags: MW
HStem: -217 80<256.5 335.5 256.5 362.5> -13 80<241.5 315.5> 393 67 393 80<241.5 315.5 207.5 326>
VStem: 50 86<186 274 186 293.5> 438 86<24 50 50 50 410 460>
LayerCount: 2
Fore
SplineSet
438 460 m 1xec
 524 460 l 1xec
 524 22 l 2
 524 -123 437 -217 288 -217 c 0
 189 -217 98 -164 61 -69 c 1
 156 -69 l 1
 180 -112 225 -137 288 -137 c 0
 383 -137 438 -70 438 24 c 2
 438 50 l 1
 404 12 348 -13 283 -13 c 0
 132 -13 50 103 50 230 c 0
 50 357 132 473 283 473 c 0xdc
 348 473 404 448 438 410 c 1
 438 460 l 1xec
441 230 m 0
 441 339 366 393 286 393 c 0
 197 393 136 318 136 230 c 0
 136 142 197 67 286 67 c 0
 366 67 441 121 441 230 c 0
EndSplineSet
EndChar

StartChar: h
Encoding: 104 104 34
Width: 591
GlyphClass: 1
Flags: MW
HStem: 0 21G<80 166 80 80 435 521 435 435> 393 80<285.5 353.5> 649 20G<80 166 166 166>
VStem: 80 86<0 239 410 669> 435 86<0 264 264 271 0 302>
LayerCount: 2
Fore
SplineSet
321 473 m 0
 447 473 521 389 521 271 c 2
 521 0 l 1
 435 0 l 1
 435 264 l 2
 435 340 395 393 312 393 c 0
 237 393 166 336 166 239 c 2
 166 0 l 1
 80 0 l 1
 80 669 l 1
 166 669 l 1
 166 410 l 1
 196 447 250 473 321 473 c 0
EndSplineSet
EndChar

StartChar: i
Encoding: 105 105 35
Width: 250
GlyphClass: 1
Flags: MW
HStem: 0 21G<82 168 82 82> 440 20G<82 168 168 168> 565 104<75 175 75 175>
VStem: 82 86<0 460 0 460>
LayerCount: 2
Fore
SplineSet
82 460 m 1
 168 460 l 1
 168 0 l 1
 82 0 l 1
 82 460 l 1
75 565 m 1
 75 669 l 1
 175 669 l 1
 175 565 l 1
 75 565 l 1
EndSplineSet
EndChar

StartChar: j
Encoding: 106 106 36
Width: 268
GlyphClass: 1
Flags: MW
HStem: -204 76<-50 14 -50 14> 440 20G<100 186 186 186> 565 104<93 193 93 193>
VStem: 100 86<-25 460>
LayerCount: 2
Fore
SplineSet
100 460 m 1
 186 460 l 1
 186 -25 l 2
 186 -145 134 -204 14 -204 c 2
 -50 -204 l 1
 -50 -128 l 1
 14 -128 l 2
 79 -128 100 -90 100 -25 c 2
 100 460 l 1
93 565 m 1
 93 669 l 1
 193 669 l 1
 193 565 l 1
 93 565 l 1
EndSplineSet
EndChar

StartChar: k
Encoding: 107 107 37
Width: 507
GlyphClass: 1
Flags: MW
HStem: 0 21G<80 166 80 80 387 502 387 387> 440 20G<387 502 502 502> 649 20G<80 166 166 166>
VStem: 80 86<0 189 259 669>
LayerCount: 2
Fore
SplineSet
80 669 m 1
 166 669 l 1
 166 259 l 1
 387 460 l 1
 502 460 l 1
 247 230 l 1
 502 0 l 1
 387 0 l 1
 166 189 l 1
 166 0 l 1
 80 0 l 1
 80 669 l 1
EndSplineSet
EndChar

StartChar: l
Encoding: 108 108 38
Width: 246
GlyphClass: 1
Flags: MW
HStem: 0 21G<80 166 80 80> 649 20G<80 166 166 166>
VStem: 80 86<0 669 0 669>
LayerCount: 2
Fore
SplineSet
80 669 m 1
 166 669 l 1
 166 0 l 1
 80 0 l 1
 80 669 l 1
EndSplineSet
EndChar

StartChar: m
Encoding: 109 109 39
Width: 931
GlyphClass: 1
Flags: MW
HStem: 0 21G<80 166 80 80 427 513 427 427 775 861 775 775> 393 67 393 80<279.5 347.5 622.5 695.5>
VStem: 80 86<0 244 410 460> 427 86<0 241 0 268 0 305> 775 86<0 268 268 274 0 305>
LayerCount: 2
Fore
SplineSet
775 0 m 1xbc
 775 268 l 2
 775 342 736 393 655 393 c 0
 583 393 513 338 513 241 c 2
 513 0 l 1
 427 0 l 1
 427 268 l 2
 427 342 388 393 307 393 c 0
 235 393 166 338 166 244 c 2
 166 0 l 1
 80 0 l 1
 80 460 l 1
 166 460 l 1xdc
 166 410 l 1
 195 445 245 473 314 473 c 0
 393 473 452 439 485 387 c 1
 524 437 583 473 662 473 c 0
 787 473 861 390 861 274 c 2
 861 0 l 1
 775 0 l 1xbc
EndSplineSet
EndChar

StartChar: n
Encoding: 110 110 40
Width: 591
GlyphClass: 1
Flags: MW
HStem: 0 21G<80 166 80 80 435 521 435 435> 393 67 393 80<285.5 353.5>
VStem: 80 86<0 239 410 460> 435 86<0 264 264 271 0 302>
LayerCount: 2
Fore
SplineSet
321 473 m 0xb8
 447 473 521 389 521 271 c 2
 521 0 l 1
 435 0 l 1
 435 264 l 2
 435 340 395 393 312 393 c 0
 237 393 166 336 166 239 c 2
 166 0 l 1
 80 0 l 1
 80 460 l 1
 166 460 l 1xd8
 166 410 l 1
 196 447 250 473 321 473 c 0xb8
EndSplineSet
EndChar

StartChar: o
Encoding: 111 111 41
Width: 582
GlyphClass: 1
Flags: MW
HStem: -13 80<245.5 336.5 245.5 360> 393 80<245.5 336.5>
VStem: 50 86<185 275.5 185 299.5> 446 86<185 275.5>
LayerCount: 2
Fore
SplineSet
291 473 m 0
 429 473 532 369 532 230 c 0
 532 92 429 -13 291 -13 c 0
 153 -13 50 92 50 230 c 0
 50 369 153 473 291 473 c 0
291 67 m 0
 382 67 446 140 446 230 c 0
 446 321 382 393 291 393 c 0
 200 393 136 321 136 230 c 0
 136 140 200 67 291 67 c 0
EndSplineSet
EndChar

StartChar: p
Encoding: 112 112 42
Width: 604
GlyphClass: 1
Flags: MW
HStem: -204 21G<80 166 80 80> -13 80<288.5 362.5 278 396.5> 393 67 393 80<288.5 362.5>
VStem: 80 86<-204 50 410 460> 468 86<186 274>
LayerCount: 2
Fore
SplineSet
166 -204 m 1xdc
 80 -204 l 1
 80 460 l 1
 166 460 l 1xec
 166 410 l 1
 200 448 256 473 321 473 c 0
 472 473 554 357 554 230 c 0
 554 103 472 -13 321 -13 c 0
 256 -13 200 12 166 50 c 1
 166 -204 l 1xdc
163 230 m 0
 163 121 238 67 318 67 c 0
 407 67 468 142 468 230 c 0
 468 318 407 393 318 393 c 0
 238 393 163 339 163 230 c 0
EndSplineSet
EndChar

StartChar: q
Encoding: 113 113 43
Width: 604
GlyphClass: 1
Flags: MW
HStem: -204 21G<438 524 438 438> -13 80<241.5 315.5> 393 67 393 80<241.5 315.5 207.5 326>
VStem: 50 86<186 274 186 293.5> 438 86<-204 50 50 50 410 460>
LayerCount: 2
Fore
SplineSet
524 -204 m 1xec
 438 -204 l 1
 438 50 l 1
 404 12 348 -13 283 -13 c 0
 132 -13 50 103 50 230 c 0
 50 357 132 473 283 473 c 0xdc
 348 473 404 448 438 410 c 1
 438 460 l 1
 524 460 l 1
 524 -204 l 1xec
441 230 m 0
 441 339 366 393 286 393 c 0
 197 393 136 318 136 230 c 0
 136 142 197 67 286 67 c 0
 366 67 441 121 441 230 c 0
EndSplineSet
EndChar

StartChar: r
Encoding: 114 114 44
Width: 395
GlyphClass: 1
Flags: MW
HStem: 0 21G<80 166 80 80> 382 82<277.5 355 328 355> 440 20G<80 166 166 166>
VStem: 80 86<0 221 395 460>
LayerCount: 2
Fore
SplineSet
80 460 m 1xb0
 166 460 l 1xb0
 166 395 l 1
 191 431 244 464 328 464 c 2
 355 464 l 1
 355 382 l 1
 328 382 l 2xd0
 227 382 166 317 166 221 c 2
 166 0 l 1
 80 0 l 1
 80 460 l 1xb0
EndSplineSet
EndChar

StartChar: t
Encoding: 116 116 45
Width: 393
GlyphClass: 1
Flags: MW
HStem: 0 76<228.5 348 287 348 287 348> 384 76<30 115 30 115 201 348> 566 20G<115 201 201 201>
VStem: 115 86<142 158 158 384 460 586>
LayerCount: 2
Fore
SplineSet
115 586 m 1
 201 586 l 1
 201 460 l 1
 348 460 l 1
 348 384 l 1
 201 384 l 1
 201 158 l 2
 201 103 230 76 287 76 c 2
 348 76 l 1
 348 0 l 1
 286 0 l 2
 171 0 115 53 115 142 c 2
 115 384 l 1
 30 384 l 1
 30 460 l 1
 115 460 l 1
 115 586 l 1
EndSplineSet
EndChar

StartChar: u
Encoding: 117 117 46
Width: 585
GlyphClass: 1
Flags: MW
HStem: -13 80<235.5 301.5> 0 67 440 20G<70 156 156 156 419 505 505 505>
VStem: 70 86<189 196 196 460> 419 86<0 50 50 50 221 460 0 460>
LayerCount: 2
Fore
SplineSet
267 -13 m 0xb8
 143 -13 70 71 70 189 c 2
 70 460 l 1
 156 460 l 1
 156 196 l 2
 156 120 195 67 276 67 c 0
 349 67 419 124 419 221 c 2
 419 460 l 1
 505 460 l 1
 505 0 l 1
 419 0 l 1x78
 419 50 l 1
 389 13 336 -13 267 -13 c 0xb8
EndSplineSet
EndChar

StartChar: v
Encoding: 118 118 47
Width: 523
GlyphClass: 1
Flags: MW
HStem: 0 21G<219 304 219 219> 440 20G<10 107 107 107 421 513 513 513>
LayerCount: 2
Fore
SplineSet
513 460 m 1
 304 0 l 1
 219 0 l 1
 10 460 l 1
 107 460 l 1
 264 112 l 1
 421 460 l 1
 513 460 l 1
EndSplineSet
EndChar

StartChar: w
Encoding: 119 119 48
Width: 835
GlyphClass: 1
Flags: MW
HStem: 0 21G<192 285 192 192 549 643 549 549> 440 20G<20 112 112 112 374 466 466 466 728 815 815 815>
LayerCount: 2
Fore
SplineSet
20 460 m 1
 112 460 l 1
 243 110 l 1
 374 460 l 1
 466 460 l 1
 596 110 l 1
 728 460 l 1
 815 460 l 1
 643 0 l 1
 549 0 l 1
 417 350 l 1
 285 0 l 1
 192 0 l 1
 20 460 l 1
EndSplineSet
EndChar

StartChar: x
Encoding: 120 120 49
Width: 521
GlyphClass: 1
Flags: MW
HStem: 0 21G<20 119 20 20 396 501 396 396> 440 20G<22 129 129 129 396 499 499 499>
LayerCount: 2
Fore
SplineSet
499 460 m 1
 312 233 l 1
 501 0 l 1
 396 0 l 1
 258 169 l 1
 119 0 l 1
 20 0 l 1
 208 230 l 1
 22 460 l 1
 129 460 l 1
 262 295 l 1
 396 460 l 1
 499 460 l 1
EndSplineSet
EndChar

StartChar: y
Encoding: 121 121 50
Width: 523
GlyphClass: 1
Flags: MW
HStem: -204 76<65 93 93 109 65 93> 440 20G<10 107 107 107 421 513 513 513>
LayerCount: 2
Fore
SplineSet
216 6 m 1
 10 460 l 1
 107 460 l 1
 264 112 l 1
 421 460 l 1
 513 460 l 1
 293 -25 l 2
 230 -163 218 -204 109 -204 c 2
 65 -204 l 1
 65 -128 l 1
 93 -128 l 2
 146 -128 166 -109 197 -38 c 2
 216 6 l 1
EndSplineSet
EndChar

StartChar: z
Encoding: 122 122 51
Width: 491
GlyphClass: 1
Flags: MW
HStem: 0 76<153 451 45 45> 384 76<45 337 45 446 45 446>
LayerCount: 2
Fore
SplineSet
451 0 m 1
 45 0 l 1
 45 76 l 1
 337 384 l 1
 45 384 l 1
 45 460 l 1
 446 460 l 1
 446 384 l 1
 153 76 l 1
 451 76 l 1
 451 0 l 1
EndSplineSet
EndChar

StartChar: AE
Encoding: 198 198 53
Width: 997
GlyphClass: 1
Flags: MW
HStem: 0 84<572 932 572 932> 154 83<263 482 263 482 205 482> 290 84<572 925 572 925> 580 84<572 932 572 572>
VStem: 482 90<84 154 154 154 237 290 374 546 546 546>
LayerCount: 2
Fore
SplineSet
932 580 m 1
 572 580 l 1
 572 374 l 1
 925 374 l 1
 925 290 l 1
 572 290 l 1
 572 84 l 1
 932 84 l 1
 932 0 l 1
 482 0 l 1
 482 154 l 1
 205 154 l 1
 96 0 l 1
 -10 0 l 1
 463 664 l 1
 932 664 l 1
 932 580 l 1
263 237 m 1
 482 237 l 1
 482 546 l 1
 263 237 l 1
EndSplineSet
EndChar

StartChar: Oslash
Encoding: 216 216 54
Width: 794
GlyphClass: 1
Flags: MW
HStem: -13 84<370.5 468.5 370.5 493.5> 593 84<325.5 423.5>
VStem: 56 90<300 407 300 430> 648 90<257 363.5>
LayerCount: 2
Fore
SplineSet
397 677 m 0
 472 677 539 654 595 615 c 1
 649 677 l 1
 754 677 l 1
 653 563 l 1
 706 502 738 422 738 332 c 0
 738 136 590 -13 397 -13 c 0
 322 -13 254 9 199 48 c 1
 145 -13 l 1
 40 -13 l 1
 140 100 l 1
 87 161 56 241 56 332 c 0
 56 528 204 677 397 677 c 0
397 593 m 0
 254 593 146 482 146 332 c 0
 146 268 166 211 199 167 c 1
 538 551 l 1
 498 578 450 593 397 593 c 0
648 332 m 0
 648 395 628 452 595 496 c 1
 256 113 l 1
 295 86 344 71 397 71 c 0
 540 71 648 182 648 332 c 0
EndSplineSet
EndChar

StartChar: ae
Encoding: 230 230 55
Width: 907
GlyphClass: 1
Flags: MW
HStem: -13 80<214 286 596.5 663> 198 75<485 767 485 855 484 767> 214 75<216.5 399 253 399 253 399> 393 80<236.5 302 594 668.5>
VStem: 51 86<115 165 115 195.5>
LayerCount: 2
Fore
SplineSet
857 236 m 0xb8
 857 225 857 211 855 198 c 1
 484 198 l 1xd8
 494 123 557 67 636 67 c 0
 690 67 734 88 758 129 c 1
 851 129 l 1
 819 40 737 -13 636 -13 c 0
 553 -13 485 22 442 81 c 1
 407 31 334 -13 238 -13 c 0
 130 -13 51 37 51 140 c 0
 51 251 147 289 253 289 c 2
 399 289 l 1
 399 365 340 393 264 393 c 0
 209 393 154 370 136 326 c 1
 40 326 l 1
 67 421 158 473 264 473 c 0
 349 473 416 445 453 395 c 1
 495 443 557 473 631 473 c 0
 763 473 857 368 857 236 c 0xb8
399 184 m 2
 399 214 l 1
 252 214 l 2xb8
 181 214 137 190 137 140 c 0
 137 90 181 67 247 67 c 0
 340 67 399 115 399 184 c 2
485 273 m 1xd8
 767 273 l 1
 756 344 706 393 631 393 c 0
 552 393 495 344 485 273 c 1xd8
EndSplineSet
EndChar

StartChar: oslash
Encoding: 248 248 56
Width: 567
GlyphClass: 1
Flags: MW
HStem: -13 80<271 329.5 271 353> 393 80<238.5 296.5>
VStem: 43 86<212.5 275.5 212.5 299.5> 439 86<185 247.5>
LayerCount: 2
Fore
SplineSet
534 473 m 1
 467 391 l 1
 503 349 525 293 525 230 c 0
 525 92 422 -13 284 -13 c 0
 238 -13 197 -1 161 19 c 1
 135 -13 l 1
 33 -13 l 1
 100 69 l 1
 64 112 43 167 43 230 c 0
 43 369 146 473 284 473 c 0
 329 473 371 461 406 441 c 1
 432 473 l 1
 534 473 l 1
284 67 m 0
 375 67 439 140 439 230 c 0
 439 265 429 298 412 324 c 1
 214 83 l 1
 235 73 258 67 284 67 c 0
129 230 m 0
 129 195 138 163 155 136 c 1
 353 377 l 1
 333 387 309 393 284 393 c 0
 193 393 129 321 129 230 c 0
EndSplineSet
EndChar

StartChar: Eth
Encoding: 208 208 57
Width: 743
GlyphClass: 1
Flags: MW
HStem: 0 84<201 334> 290 84<20 111 20 111 201 421> 580 84<201 334 334 340 201 201>
VStem: 111 90<84 290 84 290 84 290 374 580> 608 90<259 405>
CounterMasks: 1 e0
LayerCount: 2
Fore
SplineSet
111 664 m 1
 334 664 l 2
 566 664 698 514 698 332 c 0
 698 150 566 0 334 0 c 2
 111 0 l 1
 111 290 l 1
 20 290 l 1
 20 374 l 1
 111 374 l 1
 111 664 l 1
608 332 m 0
 608 478 507 580 340 580 c 2
 201 580 l 1
 201 374 l 1
 421 374 l 1
 421 290 l 1
 201 290 l 1
 201 84 l 1
 340 84 l 2
 507 84 608 186 608 332 c 0
EndSplineSet
EndChar

StartChar: Thorn
Encoding: 222 222 58
Width: 660
GlyphClass: 1
Flags: MW
HStem: 0 21G<85 175 85 85> 143 84<175 398 175 398> 449 84<175 398 175 398> 644 20G<85 175 175 175>
VStem: 85 90<0 143 0 227 227 449 533 664> 530 90<301.5 374.5>
LayerCount: 2
Fore
SplineSet
175 664 m 1
 175 533 l 1
 398 533 l 2
 551 533 620 444 620 338 c 0
 620 232 551 143 398 143 c 2
 175 143 l 1
 175 0 l 1
 85 0 l 1
 85 664 l 1
 175 664 l 1
530 338 m 0
 530 411 479 449 398 449 c 2
 175 449 l 1
 175 227 l 1
 398 227 l 2
 479 227 530 265 530 338 c 0
EndSplineSet
EndChar

StartChar: thorn
Encoding: 254 254 59
Width: 604
GlyphClass: 1
Flags: MW
HStem: -204 21G<80 166 80 80> -13 80<288.5 362.5 278 396.5> 393 80<288.5 362.5> 644 20G<80 166 166 166>
VStem: 80 86<-204 50 410 664> 468 86<186 274>
LayerCount: 2
Fore
SplineSet
554 230 m 0
 554 103 472 -13 321 -13 c 0
 256 -13 200 12 166 50 c 1
 166 -204 l 1
 80 -204 l 1
 80 664 l 1
 166 664 l 1
 166 410 l 1
 200 448 256 473 321 473 c 0
 472 473 554 357 554 230 c 0
468 230 m 0
 468 318 407 393 318 393 c 0
 238 393 163 339 163 230 c 0
 163 121 238 67 318 67 c 0
 407 67 468 142 468 230 c 0
EndSplineSet
EndChar

StartChar: eth
Encoding: 240 240 60
Width: 573
GlyphClass: 1
Flags: MW
HStem: -13 80<243 331 243 354.5> 369 79<243 289.5 215.5 331> 649 20G<136 233 233 233> 661 20G<413 413>
VStem: 50 86<175.5 259 175.5 280.5> 437 86<175.5 251 153.5 259>
LayerCount: 2
Fore
SplineSet
136 669 m 1xec
 233 669 l 1xec
 276 616 l 1
 413 681 l 1xdc
 413 609 l 1
 319 564 l 1
 440 415 l 2
 495 347 523 285 523 217 c 0
 523 90 422 -13 287 -13 c 0
 151 -13 50 89 50 217 c 0
 50 344 150 448 281 448 c 0
 298 448 306 447 318 444 c 1
 248 530 l 1
 106 462 l 1
 106 536 l 1
 205 583 l 1
 136 669 l 1xec
287 67 m 0
 375 67 437 134 437 217 c 0
 437 301 375 369 287 369 c 0
 199 369 136 301 136 217 c 0
 136 134 199 67 287 67 c 0
EndSplineSet
EndChar

StartChar: Aacute
Encoding: 193 193 61
Width: 681
GlyphClass: 1
Flags: MW
HStem: 0 21G<0 93 0 0 585 585 585 681> 154 83<160 482 196 482 196 518> 161 96 644 20G<292 390 390 390> 686 20G 703 21G 725 21G 727 21G 871 20G 873 20G 886 20G
LayerCount: 2
Fore
SplineSet
160 154 m 1
 93 0 l 1
 0 0 l 1
 292 664 l 1
 390 664 l 1
 681 0 l 1
 585 0 l 1
 518 154 l 1
 160 154 l 1
482 237 m 1
 339 566 l 1
 196 237 l 1
 482 237 l 1
EndSplineSet
EndChar

StartChar: Acircumflex
Encoding: 194 194 62
Width: 681
GlyphClass: 1
Flags: MW
HStem: 0 21G<0 93 0 0 585 585 585 681> 154 83<160 482 196 482 196 518> 161 96 644 20G<292 390 390 390> 683 21G 686 20G 703 21G 725 21G 730 21G 853 20G 871 20G 873 20G 900 20G
LayerCount: 2
Fore
SplineSet
160 154 m 1
 93 0 l 1
 0 0 l 1
 292 664 l 1
 390 664 l 1
 681 0 l 1
 585 0 l 1
 518 154 l 1
 160 154 l 1
482 237 m 1
 339 566 l 1
 196 237 l 1
 482 237 l 1
EndSplineSet
EndChar

StartChar: Adieresis
Encoding: 196 196 63
Width: 681
GlyphClass: 1
Flags: MW
HStem: 0 21G<0 93 0 0 585 585 585 681> 154 83<160 482 196 482 196 518> 644 20G<292 390 390 390> 686 20G 733 124
VStem: 178 129 382 129 389 129
LayerCount: 2
Fore
SplineSet
160 154 m 1xfe
 93 0 l 1
 0 0 l 1
 292 664 l 1
 390 664 l 1
 681 0 l 1
 585 0 l 1
 518 154 l 1xfd
 160 154 l 1xfe
482 237 m 1
 339 566 l 1
 196 237 l 1
 482 237 l 1
EndSplineSet
EndChar

StartChar: Agrave
Encoding: 192 192 64
Width: 681
GlyphClass: 1
Flags: MW
HStem: 0 21G<0 93 0 0 585 585 585 681> 154 83<160 482 196 482 196 518> 161 96 644 20G<292 390 390 390> 656 21G 686 20G 727 21G 843 20G 886 20G
LayerCount: 2
Fore
SplineSet
160 154 m 1xcf80
 93 0 l 1
 0 0 l 1
 292 664 l 1
 390 664 l 1xb780
 681 0 l 1
 585 0 l 1
 518 154 l 1
 160 154 l 1xcf80
482 237 m 1xcf80
 339 566 l 1
 196 237 l 1
 482 237 l 1xcf80
EndSplineSet
EndChar

StartChar: Aring
Encoding: 197 197 65
Width: 681
GlyphClass: 1
Flags: MW
HStem: 0 21G<0 93 0 0 585 585 585 681> 154 83<160 482 196 482 196 518> 161 96 644 20G<292 390 390 390> 686 20G 726 54 866 54
VStem: 236 56 248 56 393 56
LayerCount: 2
Fore
SplineSet
160 154 m 1xdec0
 93 0 l 1
 0 0 l 1
 292 664 l 1xbf40
 390 664 l 1
 681 0 l 1
 585 0 l 1
 518 154 l 1
 160 154 l 1xdec0
482 237 m 1xdec0
 339 566 l 1
 196 237 l 1
 482 237 l 1xdec0
EndSplineSet
EndChar

StartChar: Atilde
Encoding: 195 195 66
Width: 681
GlyphClass: 1
Flags: MW
HStem: 0 21G<0 93 0 0 585 585 585 681> 154 83<160 482 196 482 196 518> 161 96 644 20G<292 390 390 390> 686 20G 708 76 726 75 733 78 756 76 815 75 820 20G 843 20G
VStem: 148 72 461 72
LayerCount: 2
Fore
SplineSet
160 154 m 1
 93 0 l 1
 0 0 l 1
 292 664 l 1
 390 664 l 1
 681 0 l 1
 585 0 l 1
 518 154 l 1
 160 154 l 1
482 237 m 1
 339 566 l 1
 196 237 l 1
 482 237 l 1
EndSplineSet
EndChar

StartChar: Amacron
Encoding: 256 256 67
Width: 681
GlyphClass: 1
Flags: MW
HStem: 0 21G<0 93 0 0 585 585 585 681> 154 83<160 482 196 482 196 518> 161 96 644 20G<292 390 390 390> 686 20G 726 78 733 80 744 73
LayerCount: 2
Fore
SplineSet
160 154 m 1
 93 0 l 1
 0 0 l 1
 292 664 l 1
 390 664 l 1
 681 0 l 1
 585 0 l 1
 518 154 l 1
 160 154 l 1
482 237 m 1
 339 566 l 1
 196 237 l 1
 482 237 l 1
EndSplineSet
EndChar

StartChar: amacron
Encoding: 257 257 68
Width: 554
GlyphClass: 1
Flags: MW
HStem: -13 80<214 273.5> -13 88 0 75 214 75<216.5 398 253 398 253 398> 344 88 393 80<236.5 302> 508 78
VStem: 50 104 51 86<115 165 115 195.5> 398 86<0 50 50 50 184 214 214 214 289 293 0 327> 399 96
LayerCount: 2
Fore
SplineSet
264 473 m 0x5720
 394 473 484 408 484 293 c 2
 484 0 l 1
 398 0 l 1
 398 50 l 1x3b40
 362 11 309 -13 238 -13 c 0
 130 -13 51 37 51 140 c 0x9aa0
 51 251 147 289 253 289 c 2
 398 289 l 1x5b40
 398 365 340 393 264 393 c 0
 209 393 154 370 136 326 c 1
 40 326 l 1
 67 421 158 473 264 473 c 0x5720
398 184 m 2x9b40
 398 214 l 1x5b40
 252 214 l 2
 181 214 137 190 137 140 c 0x5aa0
 137 90 181 67 247 67 c 0
 340 67 398 115 398 184 c 2x9b40
EndSplineSet
EndChar

StartChar: Abreve
Encoding: 258 258 69
Width: 681
GlyphClass: 1
Flags: MW
HStem: 0 21G<0 93 0 0 585 585 585 681> 154 83<160 482 196 482 196 518> 161 96 644 20G<292 390 390 390> 686 20G 725 76 730 80 730 144 871 20G
LayerCount: 2
Fore
SplineSet
160 154 m 1
 93 0 l 1
 0 0 l 1
 292 664 l 1
 390 664 l 1
 681 0 l 1
 585 0 l 1
 518 154 l 1
 160 154 l 1
482 237 m 1
 339 566 l 1
 196 237 l 1
 482 237 l 1
EndSplineSet
EndChar

StartChar: abreve
Encoding: 259 259 70
Width: 554
GlyphClass: 1
Flags: MW
HStem: -13 80<214 273.5> -13 88 0 75 214 75<216.5 398 253 398 253 398> 344 88 393 80<236.5 302> 485 141 701 20G
VStem: 50 104 51 86<115 165 115 195.5> 398 86<0 50 50 50 184 214 214 214 289 293 0 327> 399 96
LayerCount: 2
Fore
SplineSet
264 473 m 0x5790
 394 473 484 408 484 293 c 2
 484 0 l 1
 398 0 l 1
 398 50 l 1x3ba0
 362 11 309 -13 238 -13 c 0
 130 -13 51 37 51 140 c 0x9b50
 51 251 147 289 253 289 c 2
 398 289 l 1x5ba0
 398 365 340 393 264 393 c 0
 209 393 154 370 136 326 c 1
 40 326 l 1
 67 421 158 473 264 473 c 0x5790
398 184 m 2x9ba0
 398 214 l 1x5ba0
 252 214 l 2
 181 214 137 190 137 140 c 0x5b50
 137 90 181 67 247 67 c 0
 340 67 398 115 398 184 c 2x9ba0
EndSplineSet
EndChar

StartChar: Ccircumflex
Encoding: 264 264 71
Width: 715
GlyphClass: 1
Flags: MW
HStem: -13 94 585 94 725 21G 730 21G 871 20G 900 20G
VStem: 52 106
LayerCount: 2
Fore
SplineSet
386 593 m 0x28
 243 593 135 482 135 332 c 0
 135 182 243 71 386 71 c 0
 470 71 532 108 573 165 c 1
 675 165 l 1
 622 59 521 -13 386 -13 c 0
 193 -13 45 136 45 332 c 0
 45 528 193 677 386 677 c 0
 521 677 622 605 675 499 c 1
 573 499 l 1
 532 556 470 593 386 593 c 0x28
EndSplineSet
EndChar

StartChar: ccircumflex
Encoding: 265 265 72
Width: 552
GlyphClass: 1
Flags: MW
HStem: -13 88 344 88 485 21G 537 21G 655 20G 701 20G
VStem: 36 104
LayerCount: 2
Fore
SplineSet
507 326 m 1
 412 326 l 1
 388 367 344 393 290 393 c 0
 200 393 136 321 136 230 c 0
 136 139 200 67 290 67 c 0
 344 67 388 93 412 134 c 1
 507 134 l 1
 474 45 392 -13 290 -13 c 0
 154 -13 50 91 50 230 c 0
 50 369 154 473 290 473 c 0
 392 473 474 415 507 326 c 1
EndSplineSet
EndChar

StartChar: Gcircumflex
Encoding: 284 284 73
Width: 753
GlyphClass: 1
Flags: MW
HStem: -13 94 253 94 585 94 725 21G 730 21G 871 20G 900 20G
VStem: 52 106
LayerCount: 2
Fore
SplineSet
386 593 m 0x14
 243 593 135 482 135 332 c 0
 135 182 242 71 387 71 c 0
 508 71 588 149 612 261 c 1
 373 261 l 1
 373 345 l 1
 708 345 l 1
 708 130 564 -13 390 -13 c 0
 195 -13 45 136 45 332 c 0
 45 528 193 677 386 677 c 0
 519 677 626 604 680 499 c 1
 577 499 l 1
 537 555 468 593 386 593 c 0x14
EndSplineSet
EndChar

StartChar: gcircumflex
Encoding: 285 285 74
Width: 604
GlyphClass: 1
Flags: MW
HStem: -230 88 -217 80<256.5 335.5 256.5 362.5> -13 80<241.5 315.5> -13 88 344 88 393 67 393 80<241.5 315.5 207.5 326> 485 21G 537 21G 655 20G 701 20G
VStem: 44 104 50 86<186 274 186 293.5> 393 96 438 86<24 50 50 50 410 460>
LayerCount: 2
Fore
SplineSet
438 460 m 1x95f2
 524 460 l 1xa5f2
 524 22 l 2x99f2
 524 -123 437 -217 288 -217 c 0
 189 -217 98 -164 61 -69 c 1
 156 -69 l 1
 180 -112 225 -137 288 -137 c 0x59f4
 383 -137 438 -70 438 24 c 2
 438 50 l 1x99f2
 404 12 348 -13 283 -13 c 0
 132 -13 50 103 50 230 c 0xa9ec
 50 357 132 473 283 473 c 0x93f4
 348 473 404 448 438 410 c 1
 438 460 l 1x95f2
441 230 m 0
 441 339 366 393 286 393 c 0x95f4
 197 393 136 318 136 230 c 0x99ec
 136 142 197 67 286 67 c 0
 366 67 441 121 441 230 c 0
EndSplineSet
EndChar

StartChar: Gbreve
Encoding: 286 286 75
Width: 753
GlyphClass: 1
Flags: MW
HStem: -13 84<314.5 447.5 314.5 477> -13 94 253 94 261 84<373 612 373 708> 585 94 593 84<314.5 427> 730 80 871 20G
VStem: 45 90<257 407 257 430> 52 106
LayerCount: 2
Fore
SplineSet
386 593 m 0x6740
 243 593 135 482 135 332 c 0x6b80
 135 182 242 71 387 71 c 0
 508 71 588 149 612 261 c 1
 373 261 l 1
 373 345 l 1
 708 345 l 1x9b40
 708 130 564 -13 390 -13 c 0
 195 -13 45 136 45 332 c 0xab80
 45 528 193 677 386 677 c 0
 519 677 626 604 680 499 c 1
 577 499 l 1
 537 555 468 593 386 593 c 0x6740
EndSplineSet
EndChar

StartChar: gbreve
Encoding: 287 287 76
Width: 604
GlyphClass: 1
Flags: MW
HStem: -230 88 -217 80<256.5 335.5 256.5 362.5> -13 80<241.5 315.5> -13 88 344 88 393 67 393 80<241.5 315.5 207.5 326> 485 141 701 20G
VStem: 44 104 50 86<186 274 186 293.5> 393 96 438 86<24 50 50 50 410 460>
LayerCount: 2
Fore
SplineSet
438 460 m 1x95c8
 524 460 l 1xa5c8
 524 22 l 2x99c8
 524 -123 437 -217 288 -217 c 0
 189 -217 98 -164 61 -69 c 1
 156 -69 l 1
 180 -112 225 -137 288 -137 c 0x59d0
 383 -137 438 -70 438 24 c 2
 438 50 l 1x99c8
 404 12 348 -13 283 -13 c 0
 132 -13 50 103 50 230 c 0xa9b0
 50 357 132 473 283 473 c 0x93d0
 348 473 404 448 438 410 c 1
 438 460 l 1x95c8
441 230 m 0
 441 339 366 393 286 393 c 0x95d0
 197 393 136 318 136 230 c 0x99b0
 136 142 197 67 286 67 c 0
 366 67 441 121 441 230 c 0
EndSplineSet
EndChar

StartChar: Hcircumflex
Encoding: 292 292 77
Width: 738
GlyphClass: 1
Flags: MW
HStem: 0 21G<85 175 85 85 563 653 563 563> 311 96 647 20G 725 21G 730 21G 871 20G 900 20G
VStem: 70 106 474 106
LayerCount: 2
Fore
SplineSet
653 0 m 1x14
 563 0 l 1
 563 290 l 1
 175 290 l 1
 175 0 l 1
 85 0 l 1
 85 664 l 1
 175 664 l 1
 175 374 l 1
 563 374 l 1
 563 664 l 1
 653 664 l 1
 653 0 l 1x14
EndSplineSet
EndChar

StartChar: hcircumflex
Encoding: 293 293 78
Width: 591
GlyphClass: 1
Flags: MW
HStem: 0 21G<80 166 80 80 435 521 435 435> 344 88 393 80<285.5 353.5> 649 20G<80 166 166 166> 709 20G 871 20G 895 20G
VStem: 61 102 80 86<0 239 410 669> 336 102 435 86<0 264 264 271 0 302>
LayerCount: 2
Fore
SplineSet
321 473 m 0xbf40
 447 473 521 389 521 271 c 2
 521 0 l 1
 435 0 l 1
 435 264 l 2xdf20
 435 340 395 393 312 393 c 0xbf40
 237 393 166 336 166 239 c 2
 166 0 l 1
 80 0 l 1
 80 669 l 1
 166 669 l 1
 166 410 l 1xdec0
 196 447 250 473 321 473 c 0xbf40
EndSplineSet
EndChar

StartChar: Idotaccent
Encoding: 304 304 79
Width: 260
GlyphClass: 1
Flags: MW
HStem: 0 21G<85 175 85 85> 221 21G 644 20G<85 175 175 175> 647 20G 658 20G 734 134 754 100 799 137
VStem: 85 90<0 664 0 664> 139 139 141 143 155 106 157 111
LayerCount: 2
Fore
SplineSet
175 664 m 1
 175 0 l 1
 85 0 l 1
 85 664 l 1
 175 664 l 1
EndSplineSet
EndChar

StartChar: Jcircumflex
Encoding: 308 308 80
Width: 407
GlyphClass: 1
Flags: MW
HStem: -13 96 647 20G 725 21G 730 21G 871 20G 900 20G
VStem: 249 106
LayerCount: 2
Fore
SplineSet
237 664 m 1x28
 327 664 l 1
 327 180 l 2
 327 64 249 0 133 0 c 2
 5 0 l 1
 5 84 l 1
 133 84 l 2
 199 84 237 114 237 180 c 2
 237 664 l 1x28
EndSplineSet
EndChar

StartChar: jcircumflex
Encoding: 309 309 81
Width: 268
GlyphClass: 1
Flags: MW
HStem: -204 75<-50 14 -50 14> 440 20G<100 186 186 186> 701 20G
VStem: 100 86<-25 460>
LayerCount: 2
Fore
SplineSet
100 460 m 1
 186 460 l 1
 186 -25 l 2
 186 -145 134 -204 14 -204 c 2
 -50 -204 l 1
 -50 -129 l 1
 14 -129 l 2
 79 -129 100 -90 100 -25 c 2
 100 460 l 1
EndSplineSet
EndChar

StartChar: Obreve
Encoding: 334 334 82
Width: 772
GlyphClass: 1
Flags: MW
HStem: -13 84<314.5 457.5 314.5 482.5> -13 94 585 94 593 84<314.5 457.5> 730 80 871 20G
VStem: 21 106 45 90<257 407 257 430> 637 90<257 407> 637 106
LayerCount: 2
Fore
SplineSet
386 677 m 0x5e40
 579 677 727 528 727 332 c 0
 727 136 579 -13 386 -13 c 0
 193 -13 45 136 45 332 c 0xad80
 45 528 193 677 386 677 c 0x5e40
386 593 m 0
 243 593 135 482 135 332 c 0x6d40
 135 182 243 71 386 71 c 0
 529 71 637 182 637 332 c 0
 637 482 529 593 386 593 c 0
EndSplineSet
EndChar

StartChar: obreve
Encoding: 335 335 83
Width: 582
GlyphClass: 1
Flags: MW
HStem: -13 88 344 88 485 141 537 75 701 20G
VStem: 36 104 400 104
LayerCount: 2
Fore
SplineSet
291 473 m 0x18
 429 473 532 369 532 230 c 0
 532 92 429 -13 291 -13 c 0
 153 -13 50 92 50 230 c 0
 50 369 153 473 291 473 c 0x18
291 67 m 0
 382 67 446 140 446 230 c 0
 446 321 382 393 291 393 c 0
 200 393 136 321 136 230 c 0
 136 140 200 67 291 67 c 0
EndSplineSet
EndChar

StartChar: Scircumflex
Encoding: 348 348 84
Width: 614
GlyphClass: 1
Flags: MW
HStem: -13 94 585 94 725 21G 730 21G 871 20G 900 20G
VStem: 73 106 381 106
LayerCount: 2
Fore
SplineSet
25 165 m 1x28
 123 165 l 1
 153 108 225 71 313 71 c 0
 414 71 486 118 486 182 c 0
 486 245 440 277 345 287 c 2
 229 299 l 2
 98 313 43 384 43 478 c 0
 43 595 141 677 299 677 c 0
 462 677 551 580 579 499 c 1
 481 499 l 1
 455 554 382 593 296 593 c 0
 192 593 133 542 133 482 c 0
 133 421 178 389 256 381 c 2
 381 368 l 2
 503 355 576 285 576 187 c 0
 576 88 487 -13 313 -13 c 0
 138 -13 55 79 25 165 c 1x28
EndSplineSet
EndChar

StartChar: scircumflex
Encoding: 349 349 85
Width: 520
GlyphClass: 1
Flags: MW
HStem: -13 80<246.5 317 246.5 340> -12 114 344 88 393 79<219 286.5> 485 21G 537 21G 655 20G 701 20G
VStem: 55 86<310.5 349.5 310.5 367.5> 57 96 243 104 394 86<110 148>
LayerCount: 2
Fore
SplineSet
485 330 m 1x6f70
 390 330 l 1
 369 374 321 393 252 393 c 0x5f70
 186 393 141 369 141 330 c 0x6fb0
 141 291 175 277 236 272 c 2
 329 265 l 2
 425 257 480 214 480 131 c 0
 480 52 404 -13 276 -13 c 0
 141 -13 60 54 40 134 c 1
 135 134 l 1
 153 90 206 67 287 67 c 0xaf70
 347 67 394 91 394 129 c 0
 394 167 360 183 298 188 c 2
 202 196 l 2
 104 205 55 248 55 327 c 0x6fb0
 55 408 131 472 253 472 c 0x5f70
 390 472 464 405 485 330 c 1x6f70
EndSplineSet
EndChar

StartChar: scedilla
Encoding: 351 351 86
Width: 520
GlyphClass: 1
Flags: MW
HStem: -184 21G<88 182 88 88> 393 79<219 286.5>
VStem: 55 86<310.5 349.5 310.5 367.5> 394 86<110 148>
LayerCount: 2
Fore
SplineSet
485 330 m 1
 390 330 l 1
 369 374 321 393 252 393 c 0
 186 393 141 369 141 330 c 0
 141 291 175 277 236 272 c 2
 329 265 l 2
 425 257 480 214 480 131 c 0
 480 60 419 0 314 -11 c 1
 182 -184 l 1
 88 -184 l 1
 223 -9 l 1
 120 6 57 65 40 134 c 1
 138 134 l 1
 156 90 206 67 287 67 c 0
 347 67 394 91 394 129 c 0
 394 167 360 183 298 188 c 2
 202 196 l 2
 104 205 55 248 55 327 c 0
 55 408 131 472 253 472 c 0
 390 472 464 405 485 330 c 1
EndSplineSet
EndChar

StartChar: Ubreve
Encoding: 364 364 87
Width: 736
GlyphClass: 1
Flags: MW
HStem: -13 84<307 429 307 455> -13 94 644 20G<80 170 170 170 566 656 656 656> 647 20G 730 80 871 20G
VStem: 68 106 80 90<275 664> 476 106 566 90<275 664>
LayerCount: 2
Fore
SplineSet
80 275 m 2x9d80
 80 664 l 1
 170 664 l 1x6d80
 170 275 l 2x5d80
 170 140 246 71 368 71 c 0
 490 71 566 140 566 275 c 2
 566 664 l 1
 656 664 l 1xae40
 656 275 l 2x5e40
 656 90 542 -13 368 -13 c 0
 194 -13 80 90 80 275 c 2x9d80
EndSplineSet
EndChar

StartChar: ubreve
Encoding: 365 365 88
Width: 585
GlyphClass: 1
Flags: MW
HStem: -13 80<235.5 301.5> -13 88 0 67 401 20G 440 20G<70 156 156 156 419 505 505 505> 485 141 537 75 701 20G
VStem: 44 102 70 86<189 196 196 460> 317 102 419 86<0 50 50 50 221 460 0 460>
LayerCount: 2
Fore
SplineSet
267 -13 m 0x03
 143 -13 70 71 70 189 c 2
 70 460 l 1
 156 460 l 1
 156 196 l 2
 156 120 195 67 276 67 c 0
 349 67 419 124 419 221 c 2
 419 460 l 1
 505 460 l 1
 505 0 l 1
 419 0 l 1x8850
 419 50 l 1
 389 13 336 -13 267 -13 c 0x03
EndSplineSet
EndChar

StartChar: uni04D8
Encoding: 1240 1240 89
Width: 752
GlyphClass: 1
Flags: MW
HStem: -13 84<309 432.5 309 467.5> -1 21G 254 114 286 84<138 614 138 138> 565 114 593 84<322.5 430.5>
VStem: -1209 127 -819 126 -539 127 -149 127 595 128
LayerCount: 2
Fore
SplineSet
169 499 m 1x6be0
 70 499 l 1
 118 608 230 677 365 677 c 0x67e0
 567 677 707 525 707 332 c 0
 707 138 564 -13 371 -13 c 0xabe0
 176 -13 45 139 45 331 c 0
 45 341 45 354 46 370 c 1
 615 370 l 1x5be0
 600 499 496 593 365 593 c 0x67e0
 280 593 209 559 169 499 c 1x6be0
371 71 m 0xabe0
 494 71 596 161 614 286 c 1
 138 286 l 1x5be0
 155 160 247 71 371 71 c 0xabe0
EndSplineSet
EndChar

StartChar: Icaron
Encoding: 463 463 90
Width: 260
GlyphClass: 1
Flags: MW
HStem: 0 21G<85 175 85 85> 647 20G 725 21G 871 20G 895 20G
VStem: 155 106
LayerCount: 2
Fore
SplineSet
175 664 m 1
 175 0 l 1
 85 0 l 1
 85 664 l 1
 175 664 l 1
EndSplineSet
EndChar

StartChar: icaron
Encoding: 464 464 91
Width: 250
GlyphClass: 1
Flags: MW
HStem: 0 21G<82 168 82 82> 401 20G 537 21G 646 20G 701 20G
VStem: 72 102
LayerCount: 2
Fore
SplineSet
82 460 m 1
 168 460 l 1
 168 0 l 1
 82 0 l 1
 82 460 l 1
EndSplineSet
EndChar

StartChar: uni04D9
Encoding: 1241 1241 92
Width: 562
GlyphClass: 1
Flags: MW
HStem: -13 80<238.5 315.5 238.5 345.5> -12 106 154 99 187 75<140 422 140 140> 327 106 393 80<248 314.5>
VStem: -1073 85 -673 89 -147 85 34 127 337 125 866 132
LayerCount: 2
Fore
SplineSet
276 393 m 0x67f0
 220 393 174 372 150 331 c 1
 57 331 l 1
 89 420 173 473 276 473 c 0x67f0
 413 473 512 371 512 229 c 0
 512 91 415 -13 276 -13 c 0xabf0
 144 -13 50 92 50 224 c 0
 50 235 50 249 52 262 c 1
 423 262 l 1x5bf0
 413 337 353 393 276 393 c 0x67f0
276 67 m 0xabf0
 355 67 412 116 422 187 c 1
 140 187 l 1x5bf0
 151 116 201 67 276 67 c 0xabf0
EndSplineSet
EndChar

StartChar: uni0402
Encoding: 1026 1026 93
Width: 796
GlyphClass: 1
Flags: MW
HStem: 0 84<434 489 489 499 434 489> 325 84<451.5 537> 580 84<15 215 15 535 305 305 305 535>
VStem: 215 90<0 308 0 390 390 580> 666 90<160.5 244.5>
LayerCount: 2
Fore
SplineSet
479 409 m 0
 638 409 756 341 756 205 c 0
 756 71 657 0 499 0 c 2
 434 0 l 1
 434 84 l 1
 489 84 l 2
 592 84 666 117 666 204 c 0
 666 285 595 325 479 325 c 0
 424 325 364 319 305 308 c 1
 305 0 l 1
 215 0 l 1
 215 580 l 1
 15 580 l 1
 15 664 l 1
 535 664 l 1
 535 580 l 1
 305 580 l 1
 305 390 l 1
 357 401 416 409 479 409 c 0
EndSplineSet
EndChar

StartChar: uni0403
Encoding: 1027 1027 94
Width: 566
GlyphClass: 1
Flags: MW
HStem: 0 21G<85 175 85 85> 571 96 725 21G 727 21G 871 20G 886 20G
VStem: 54 106
LayerCount: 2
Fore
SplineSet
85 664 m 1x28
 541 664 l 1
 541 580 l 1
 175 580 l 1
 175 0 l 1
 85 0 l 1
 85 664 l 1x28
EndSplineSet
EndChar

StartChar: uni0404
Encoding: 1028 1028 95
Width: 715
GlyphClass: 1
Flags: MW
HStem: -13 84<317.5 425 317.5 450.5> -13 114 284 116 290 84<138 498 138 498> 565 114 593 84<318 425>
LayerCount: 2
Fore
SplineSet
382 593 m 0x68
 254 593 152 502 138 374 c 1
 498 374 l 1
 498 290 l 1
 138 290 l 1
 153 161 253 71 382 71 c 0
 468 71 532 108 573 165 c 1
 675 165 l 1
 622 59 519 -13 382 -13 c 0
 191 -13 45 133 45 332 c 0
 45 531 191 677 382 677 c 0
 519 677 622 605 675 499 c 1
 573 499 l 1
 532 556 468 593 382 593 c 0x68
EndSplineSet
EndChar

StartChar: uni0406
Encoding: 1030 1030 96
Width: 260
GlyphClass: 1
Flags: MW
HStem: 0 21G<85 175 85 85> 644 20G<85 175 175 175> 647 20G
VStem: 85 90<0 664 0 664> 155 106
LayerCount: 2
Fore
SplineSet
175 664 m 1xd0
 175 0 l 1
 85 0 l 1
 85 664 l 1
 175 664 l 1xd0
EndSplineSet
EndChar

StartChar: uni0407
Encoding: 1031 1031 97
Width: 260
GlyphClass: 1
Flags: MW
HStem: 0 21G<85 175 85 85> 644 20G<85 175 175 175> 647 20G 739 112 744 100
VStem: 72 116 85 90<0 664 0 664> 155 106 228 116
LayerCount: 2
Fore
SplineSet
175 664 m 1
 175 0 l 1
 85 0 l 1
 85 664 l 1
 175 664 l 1
EndSplineSet
EndChar

StartChar: uni0409
Encoding: 1033 1033 98
Width: 1105
GlyphClass: 1
Flags: MW
HStem: 0 86<15 43 43 59 15 43> 314 84<620 838 620 838> 580 84<244 530 244 244>
VStem: 154 90<358 580> 530 90<84 314 398 580 580 580> 975 90<161 237>
LayerCount: 2
Fore
SplineSet
154 664 m 1
 620 664 l 1
 620 398 l 1
 838 398 l 2
 995 398 1065 307 1065 199 c 0
 1065 91 995 0 838 0 c 2
 530 0 l 1
 530 580 l 1
 244 580 l 1
 244 358 l 2
 244 191 235 0 59 0 c 2
 15 0 l 1
 15 86 l 1
 43 86 l 2
 154 86 154 225 154 358 c 2
 154 664 l 1
975 199 m 0
 975 275 922 314 838 314 c 2
 620 314 l 1
 620 84 l 1
 838 84 l 2
 922 84 975 123 975 199 c 0
EndSplineSet
EndChar

StartChar: uni040A
Encoding: 1034 1034 99
Width: 1138
GlyphClass: 1
Flags: MW
HStem: 0 84<653 871 653 871> 290 84<175 563 175 563> 314 84<653 871 653 871> 644 20G<85 175 175 175 563 653 653 653>
VStem: 85 90<0 290 0 374 374 664> 563 90<84 290 290 290 398 664> 1008 90<161 237>
LayerCount: 2
Fore
SplineSet
1098 199 m 0xbe
 1098 91 1028 0 871 0 c 2
 563 0 l 1
 563 290 l 1
 175 290 l 1
 175 0 l 1
 85 0 l 1
 85 664 l 1
 175 664 l 1
 175 374 l 1
 563 374 l 1xde
 563 664 l 1
 653 664 l 1
 653 398 l 1
 871 398 l 2
 1028 398 1098 307 1098 199 c 0xbe
1008 199 m 0
 1008 275 955 314 871 314 c 2
 653 314 l 1xbe
 653 84 l 1
 871 84 l 2
 955 84 1008 123 1008 199 c 0
EndSplineSet
EndChar

StartChar: uni040B
Encoding: 1035 1035 100
Width: 811
GlyphClass: 1
Flags: MW
HStem: 0 21G<215 305 215 215 666 756 666 666> 325 84<464 552.5> 580 84<15 215 15 535 305 535 305 305>
VStem: 215 90<0 306 389 580> 666 90<0 188 0 189 0 237.5>
LayerCount: 2
Fore
SplineSet
305 580 m 1
 305 389 l 1
 343 398 439 409 487 409 c 0
 679 409 756 340 756 188 c 2
 756 0 l 1
 666 0 l 1
 666 189 l 2
 666 286 616 325 489 325 c 0
 439 325 372 320 305 306 c 1
 305 0 l 1
 215 0 l 1
 215 580 l 1
 15 580 l 1
 15 664 l 1
 535 664 l 1
 535 580 l 1
 305 580 l 1
EndSplineSet
EndChar

StartChar: uni040C
Encoding: 1036 1036 101
Width: 612
GlyphClass: 1
Flags: MW
HStem: 0 21G<85 175 85 85 487 607 487 487> 647 20G 725 21G 727 21G 871 20G 886 20G
VStem: 69 106
LayerCount: 2
Fore
SplineSet
252 332 m 1x28
 607 0 l 1
 487 0 l 1
 175 287 l 1
 175 0 l 1
 85 0 l 1
 85 664 l 1
 175 664 l 1
 175 377 l 1
 487 664 l 1
 607 664 l 1
 252 332 l 1x28
EndSplineSet
EndChar

StartChar: uni040F
Encoding: 1039 1039 102
Width: 717
GlyphClass: 1
Flags: MW
HStem: -147 21G<313 403 313 313> 0 84<175 313 403 542 175 632 403 403> 644 20G<85 175 175 175 542 632 632 632>
VStem: 85 90<84 664 84 664 84 664> 313 90<-147 0 -147 0> 542 90<84 664 0 664>
LayerCount: 2
Fore
SplineSet
542 664 m 1
 632 664 l 1
 632 0 l 1
 403 0 l 1
 403 -147 l 1
 313 -147 l 1
 313 0 l 1
 85 0 l 1
 85 664 l 1
 175 664 l 1
 175 84 l 1
 542 84 l 1
 542 664 l 1
EndSplineSet
EndChar

StartChar: uni0410
Encoding: 1040 1040 103
Width: 681
GlyphClass: 1
Flags: MW
HStem: 0 21G<0 93 0 0 585 585 585 681> 154 83<160 482 196 482 196 518> 161 96 644 20G<292 390 390 390> 686 20G
LayerCount: 2
Fore
SplineSet
160 154 m 1xd0
 93 0 l 1
 0 0 l 1
 292 664 l 1
 390 664 l 1
 681 0 l 1
 585 0 l 1
 518 154 l 1
 160 154 l 1xd0
482 237 m 1
 339 566 l 1
 196 237 l 1
 482 237 l 1
EndSplineSet
EndChar

StartChar: uni0411
Encoding: 1041 1041 104
Width: 660
GlyphClass: 1
Flags: MW
HStem: 0 84<175 393 175 393> 314 84<175 393 175 393> 580 84<175 580 175 175>
VStem: 85 90<84 314 398 580> 530 90<161 237>
LayerCount: 2
Fore
SplineSet
620 199 m 0
 620 91 550 0 393 0 c 2
 85 0 l 1
 85 664 l 1
 580 664 l 1
 580 580 l 1
 175 580 l 1
 175 398 l 1
 393 398 l 2
 550 398 620 307 620 199 c 0
530 199 m 0
 530 275 477 314 393 314 c 2
 175 314 l 1
 175 84 l 1
 393 84 l 2
 477 84 530 123 530 199 c 0
EndSplineSet
EndChar

StartChar: uni0412
Encoding: 1042 1042 105
Width: 655
GlyphClass: 1
Flags: MW
HStem: 0 84<175 387 387 388> 0 96 290 84<175 387 175 387> 296 84 571 96 580 84<175 387 175 175>
VStem: 69 106 85 90<84 84 84 290 374 580> 321 100 510 90<153 206.5 129.5 221 457.5 511>
LayerCount: 2
Fore
SplineSet
513 332 m 1x5ac0
 585 291 600 234 600 179 c 0
 600 80 533 0 388 0 c 2
 85 0 l 1
 85 664 l 1
 388 664 l 2x55c0
 533 664 600 584 600 485 c 0
 600 430 585 373 513 332 c 1x5ac0
175 84 m 1x9ac0
 387 84 l 2
 463 84 510 119 510 187 c 0
 510 255 463 290 387 290 c 2
 175 290 l 1xaac0
 175 84 l 1x9ac0
175 374 m 1
 387 374 l 2x6ac0
 463 374 510 409 510 477 c 0
 510 545 463 580 387 580 c 2
 175 580 l 1x56c0
 175 374 l 1
EndSplineSet
EndChar

StartChar: uni0413
Encoding: 1043 1043 106
Width: 566
GlyphClass: 1
Flags: MW
HStem: 0 21G<85 175 85 85> 580 84<175 541 175 175>
VStem: 85 90<0 580 0 664 0 664>
LayerCount: 2
Fore
SplineSet
85 664 m 1
 541 664 l 1
 541 580 l 1
 175 580 l 1
 175 0 l 1
 85 0 l 1
 85 664 l 1
EndSplineSet
EndChar

StartChar: uni0414
Encoding: 1044 1044 107
Width: 752
GlyphClass: 1
Flags: MW
HStem: -147 21G<18 108 18 18 627 717 627 627> 0 84<193 537 18 108> 580 84<251 537 251 251>
VStem: 18 90<-147 0 -147 84 -147 84> 161 90<365 366 366 580> 537 90<84 580 580 580> 627 90<-147 0 0 0>
LayerCount: 2
Fore
SplineSet
717 -147 m 1xfa
 627 -147 l 1
 627 0 l 1
 108 0 l 1
 108 -147 l 1
 18 -147 l 1
 18 84 l 1
 83 84 l 1
 142 141 161 254 161 365 c 2
 161 664 l 1
 627 664 l 1
 627 84 l 1
 717 84 l 1
 717 -147 l 1xfa
251 366 m 2
 251 275 241 161 193 84 c 1
 537 84 l 1
 537 580 l 1xfc
 251 580 l 1
 251 366 l 2
EndSplineSet
EndChar

StartChar: uni0415
Encoding: 1045 1045 108
Width: 600
GlyphClass: 1
Flags: MW
HStem: 0 84<175 535 175 535> 0 96 290 84<175 528 175 528> 316 96 571 96 580 84<175 535 175 175>
VStem: 68 106 85 90<84 290 374 580>
LayerCount: 2
Fore
SplineSet
535 580 m 1xa5
 175 580 l 1
 175 374 l 1
 528 374 l 1
 528 290 l 1
 175 290 l 1
 175 84 l 1
 535 84 l 1
 535 0 l 1
 85 0 l 1
 85 664 l 1
 535 664 l 1
 535 580 l 1xa5
EndSplineSet
EndChar

StartChar: uni0416
Encoding: 1046 1046 109
Width: 914
GlyphClass: 1
Flags: MW
HStem: 0 21G<10 10 10 127 412 412 412 502 787 787 787 904> 644 20G<10 127 127 127 412 502 502 502 787 904 904 904>
VStem: 412 90<0 288 0 288 376 664>
LayerCount: 2
Fore
SplineSet
10 0 m 1
 336 332 l 1
 10 664 l 1
 127 664 l 1
 412 376 l 1
 412 664 l 1
 502 664 l 1
 502 376 l 1
 787 664 l 1
 904 664 l 1
 578 332 l 1
 904 0 l 1
 787 0 l 1
 502 288 l 1
 502 0 l 1
 412 0 l 1
 412 288 l 1
 127 0 l 1
 10 0 l 1
EndSplineSet
EndChar

StartChar: uni0417
Encoding: 1047 1047 110
Width: 635
GlyphClass: 1
Flags: MW
HStem: -13 84<266 355.5 266 378> 290 84<195 360 195 360> 593 84<267.5 356.5>
CounterMasks: 1 e0
LayerCount: 2
Fore
SplineSet
485 187 m 0
 485 253 436 290 360 290 c 2
 195 290 l 1
 195 374 l 1
 360 374 l 2
 436 374 482 417 482 477 c 0
 482 560 402 593 311 593 c 0
 224 593 157 554 131 499 c 1
 33 499 l 1
 61 580 144 677 308 677 c 0
 439 677 572 622 572 475 c 0
 572 423 553 371 486 332 c 1
 555 293 575 240 575 187 c 0
 575 55 446 -13 310 -13 c 0
 135 -13 60 79 30 165 c 1
 128 165 l 1
 158 108 222 71 310 71 c 0
 401 71 485 103 485 187 c 0
EndSplineSet
EndChar

StartChar: uni0418
Encoding: 1048 1048 111
Width: 746
GlyphClass: 1
Flags: MW
HStem: 0 21G<85 186 85 85 571 661 571 571> 644 20G<85 175 175 175 560 661 661 661>
VStem: 85 90<127 664 127 664 127 664> 571 90<0 537 537 537>
LayerCount: 2
Fore
SplineSet
85 664 m 1
 175 664 l 1
 175 127 l 1
 560 664 l 1
 661 664 l 1
 661 0 l 1
 571 0 l 1
 571 537 l 1
 186 0 l 1
 85 0 l 1
 85 664 l 1
EndSplineSet
EndChar

StartChar: uni0419
Encoding: 1049 1049 112
Width: 746
GlyphClass: 1
Flags: MW
HStem: -30 21G -1 21G 0 21G<85 186 85 85 571 661 571 571> 644 20G<85 175 175 175 560 661 661 661> 647 20G 707 76<343 403 343 425> 842 20G 862 20G<180 256 256 256 490 566 566 566>
VStem: 80 127 85 90<127 664 127 664 127 664> 532 126 571 90<0 537 537 537>
LayerCount: 2
Fore
SplineSet
85 664 m 1xd660
 175 664 l 1xd660
 175 127 l 1xce60
 560 664 l 1
 661 664 l 1xd690
 661 0 l 1
 571 0 l 1xae90
 571 537 l 1xce90
 186 0 l 1
 85 0 l 1xae60
 85 664 l 1xd660
180 882 m 1xcda0
 256 882 l 1
 263 827 313 783 373 783 c 0
 433 783 483 827 490 882 c 1
 566 882 l 1
 559 783 477 707 373 707 c 0
 269 707 187 783 180 882 c 1xcda0
EndSplineSet
EndChar

StartChar: uni041A
Encoding: 1050 1050 113
Width: 612
GlyphClass: 1
Flags: MW
HStem: 0 21G<85 175 85 85 487 607 487 487> 644 20G<85 175 175 175 487 607 607 607> 647 20G
VStem: 70 106 85 90<0 287 377 664>
LayerCount: 2
Fore
SplineSet
252 332 m 1xc8
 607 0 l 1
 487 0 l 1
 175 287 l 1
 175 0 l 1
 85 0 l 1
 85 664 l 1
 175 664 l 1
 175 377 l 1
 487 664 l 1
 607 664 l 1
 252 332 l 1xc8
EndSplineSet
EndChar

StartChar: uni041B
Encoding: 1051 1051 114
Width: 705
GlyphClass: 1
Flags: MW
HStem: 0 86<15 43 43 59 15 43> 580 84<244 530 244 244>
VStem: 154 90<358 580> 530 90<0 580 580 580>
LayerCount: 2
Fore
SplineSet
154 664 m 1
 620 664 l 1
 620 0 l 1
 530 0 l 1
 530 580 l 1
 244 580 l 1
 244 358 l 2
 244 191 235 0 59 0 c 2
 15 0 l 1
 15 86 l 1
 43 86 l 2
 154 86 154 225 154 358 c 2
 154 664 l 1
EndSplineSet
EndChar

StartChar: uni041C
Encoding: 1052 1052 115
Width: 960
GlyphClass: 1
Flags: MW
HStem: -31 21G 0 21G<85 175 85 85 480 480 785 785 785 875> 644 20G<85 199 199 199 765 875 875 875> 697 20G
VStem: 85 90<0 531 0 664> 785 90<0 531 531 531>
LayerCount: 2
Fore
SplineSet
785 531 m 1
 480 0 l 1
 175 531 l 1
 175 0 l 1
 85 0 l 1
 85 664 l 1
 199 664 l 1
 482 168 l 1
 765 664 l 1
 875 664 l 1
 875 0 l 1
 785 0 l 1
 785 531 l 1
EndSplineSet
EndChar

StartChar: uni041D
Encoding: 1053 1053 116
Width: 738
GlyphClass: 1
Flags: MW
HStem: 0 21G<85 175 85 85 563 653 563 563> 290 84<175 563 175 563> 311 96 644 20G<85 175 175 175 563 653 653 653> 647 20G
VStem: 71 106 85 90<0 290 0 374 374 664> 475 106 563 90<0 290 290 290 374 664>
LayerCount: 2
Fore
SplineSet
653 0 m 1xd280
 563 0 l 1
 563 290 l 1
 175 290 l 1
 175 0 l 1
 85 0 l 1
 85 664 l 1
 175 664 l 1
 175 374 l 1
 563 374 l 1
 563 664 l 1
 653 664 l 1
 653 0 l 1xd280
EndSplineSet
EndChar

StartChar: uni041E
Encoding: 1054 1054 117
Width: 772
GlyphClass: 1
Flags: MW
HStem: -13 84<314.5 457.5 314.5 482.5> -13 94 585 94 593 84<314.5 457.5>
VStem: 21 106 45 90<257 407 257 430> 637 90<257 407> 637 106
LayerCount: 2
Fore
SplineSet
386 677 m 0x96
 579 677 727 528 727 332 c 0
 727 136 579 -13 386 -13 c 0
 193 -13 45 136 45 332 c 0
 45 528 193 677 386 677 c 0x96
386 593 m 0
 243 593 135 482 135 332 c 0
 135 182 243 71 386 71 c 0
 529 71 637 182 637 332 c 0
 637 482 529 593 386 593 c 0
EndSplineSet
EndChar

StartChar: uni041F
Encoding: 1055 1055 118
Width: 727
GlyphClass: 1
Flags: MW
HStem: 0 21G<85 175 85 85 552 642 552 552> 580 84<175 552 175 175>
VStem: 85 90<0 580 0 664 0 664> 552 90<0 580 580 580>
LayerCount: 2
Fore
SplineSet
642 0 m 1
 552 0 l 1
 552 580 l 1
 175 580 l 1
 175 0 l 1
 85 0 l 1
 85 664 l 1
 642 664 l 1
 642 0 l 1
EndSplineSet
EndChar

StartChar: uni0420
Encoding: 1056 1056 119
Width: 660
GlyphClass: 1
Flags: MW
HStem: 0 21G<85 175 85 85> 271 94 274 84<175 398 175 398> 573 94 580 84<175 398 175 175>
VStem: 69 106 85 90<0 274 0 358 358 580> 358 102 530 90<432.5 505.5>
LayerCount: 2
Fore
SplineSet
620 469 m 0xaa80
 620 363 551 274 398 274 c 2
 175 274 l 1
 175 0 l 1
 85 0 l 1
 85 664 l 1
 398 664 l 2
 551 664 620 575 620 469 c 0xaa80
530 469 m 0
 530 542 479 580 398 580 c 2
 175 580 l 1
 175 358 l 1
 398 358 l 2
 479 358 530 396 530 469 c 0
EndSplineSet
EndChar

StartChar: uni0421
Encoding: 1057 1057 120
Width: 715
GlyphClass: 1
Flags: MW
HStem: -13 84<314.5 428 314.5 453.5> -13 94 585 94 593 84<314.5 428>
VStem: 45 90<257 407 257 430> 65 107
LayerCount: 2
Fore
SplineSet
386 593 m 0x98
 243 593 135 482 135 332 c 0
 135 182 243 71 386 71 c 0
 470 71 532 108 573 165 c 1
 675 165 l 1
 622 59 521 -13 386 -13 c 0
 193 -13 45 136 45 332 c 0
 45 528 193 677 386 677 c 0
 521 677 622 605 675 499 c 1
 573 499 l 1
 532 556 470 593 386 593 c 0x98
EndSplineSet
EndChar

StartChar: uni0422
Encoding: 1058 1058 121
Width: 600
GlyphClass: 1
Flags: MW
HStem: 0 21G<255 345 255 255> 571 96 580 84<25 255 25 575 345 575 345 345>
VStem: 210 106 255 90<0 580 0 580>
LayerCount: 2
Fore
SplineSet
25 664 m 1xa8
 575 664 l 1
 575 580 l 1
 345 580 l 1
 345 0 l 1
 255 0 l 1
 255 580 l 1
 25 580 l 1
 25 664 l 1xa8
EndSplineSet
EndChar

StartChar: uni0423
Encoding: 1059 1059 122
Width: 597
GlyphClass: 1
Flags: MW
HStem: 0 84<110 160 160 176 110 160> 644 20G<20 114 114 114 504 597 597 597>
LayerCount: 2
Fore
SplineSet
320 275 m 1
 504 664 l 1
 597 664 l 1
 353 154 l 2
 297 37 270 0 176 0 c 2
 110 0 l 1
 110 84 l 1
 160 84 l 2
 207 84 235 96 261 157 c 2
 272 185 l 1
 20 664 l 1
 114 664 l 1
 320 275 l 1
EndSplineSet
EndChar

StartChar: uni0424
Encoding: 1060 1060 123
Width: 886
GlyphClass: 1
Flags: MW
HStem: -17 21G<399 399 399 489> 74 84<254 399 333 399 489 554> 521 84<282.5 399 333 399 489 554> 664 20G<399 489 489 489>
VStem: 399 90<-17 74 -17 74 158 521 605 684> 751 90<277.5 402>
LayerCount: 2
Fore
SplineSet
554 521 m 2
 489 521 l 1
 489 158 l 1
 554 158 l 2
 654 158 751 215 751 340 c 0
 751 464 654 521 554 521 c 2
333 158 m 2
 399 158 l 1
 399 521 l 1
 333 521 l 2
 232 521 136 464 136 340 c 0
 136 216 232 158 333 158 c 2
399 -17 m 1
 399 74 l 1
 333 74 l 2
 175 74 45 172 45 340 c 0
 45 508 175 605 333 605 c 2
 399 605 l 1
 399 684 l 1
 489 684 l 1
 489 605 l 1
 554 605 l 2
 712 605 841 508 841 340 c 0
 841 172 712 74 554 74 c 2
 489 74 l 1
 489 -17 l 1
 399 -17 l 1
EndSplineSet
EndChar

StartChar: uni0425
Encoding: 1061 1061 124
Width: 610
GlyphClass: 1
Flags: MW
HStem: 0 21G<15 117 15 15 493 595 493 493> 644 20G<15 118 118 118 492 595 595 595> 647 20G
LayerCount: 2
Fore
SplineSet
493 0 m 1xc0
 305 261 l 1
 117 0 l 1
 15 0 l 1
 253 332 l 1
 15 664 l 1
 118 664 l 1
 305 404 l 1
 492 664 l 1
 595 664 l 1
 356 332 l 1
 595 0 l 1
 493 0 l 1xc0
EndSplineSet
EndChar

StartChar: uni0426
Encoding: 1062 1062 125
Width: 757
GlyphClass: 1
Flags: MW
HStem: -147 21G<632 722 632 632> 0 84<175 542 175 632> 644 20G<85 175 175 175 542 632 632 632>
VStem: 85 90<84 664 84 664 84 664> 542 90<84 664> 632 90<-147 0 0 0 -147 664 -147 84>
LayerCount: 2
Fore
SplineSet
542 664 m 1xf8
 632 664 l 1
 632 84 l 1
 722 84 l 1
 722 -147 l 1xf4
 632 -147 l 1
 632 0 l 1
 85 0 l 1
 85 664 l 1
 175 664 l 1
 175 84 l 1
 542 84 l 1
 542 664 l 1xf8
EndSplineSet
EndChar

StartChar: uni0427
Encoding: 1063 1063 126
Width: 681
GlyphClass: 1
Flags: MW
HStem: 0 21G<506 596 506 506> 254 84<258.5 347 258.5 348> 644 20G<55 145 145 145 506 596 596 596>
VStem: 55 90<476 664> 506 90<0 274 274 274 357 664 0 664>
LayerCount: 2
Fore
SplineSet
55 664 m 1
 145 664 l 1
 145 475 l 2
 145 378 195 338 322 338 c 0
 372 338 439 343 506 357 c 1
 506 664 l 1
 596 664 l 1
 596 0 l 1
 506 0 l 1
 506 274 l 1
 468 265 372 254 324 254 c 0
 132 254 55 324 55 476 c 2
 55 664 l 1
EndSplineSet
EndChar

StartChar: uni0428
Encoding: 1064 1064 127
Width: 1010
GlyphClass: 1
Flags: MW
HStem: 0 84<175 460 550 835> 644 20G<85 175 175 175 460 550 550 550 835 925 925 925>
VStem: 85 90<84 664 84 664 84 664> 460 90<84 664 84 664> 835 90<84 664>
CounterMasks: 1 38
LayerCount: 2
Fore
SplineSet
925 0 m 1
 85 0 l 1
 85 664 l 1
 175 664 l 1
 175 84 l 1
 460 84 l 1
 460 664 l 1
 550 664 l 1
 550 84 l 1
 835 84 l 1
 835 664 l 1
 925 664 l 1
 925 0 l 1
EndSplineSet
EndChar

StartChar: uni0429
Encoding: 1065 1065 128
Width: 1050
GlyphClass: 1
Flags: MW
HStem: -147 21G<925 1015 925 925> 0 84<175 460 550 835> 644 20G<85 175 175 175 460 550 550 550 835 925 925 925>
VStem: 85 90<84 664 84 664 84 664> 460 90<84 664> 835 90<84 664> 925 90<-147 0 0 0 -147 664 -147 84>
LayerCount: 2
Fore
SplineSet
550 84 m 1xfc
 835 84 l 1
 835 664 l 1xfc
 925 664 l 1
 925 84 l 1
 1015 84 l 1
 1015 -147 l 1xfa
 925 -147 l 1
 925 0 l 1
 85 0 l 1
 85 664 l 1
 175 664 l 1
 175 84 l 1
 460 84 l 1
 460 664 l 1
 550 664 l 1
 550 84 l 1xfc
EndSplineSet
EndChar

StartChar: uni042A
Encoding: 1066 1066 129
Width: 761
GlyphClass: 1
Flags: MW
HStem: 0 84<276 494 276 494> 314 84<276 494 276 494> 580 84<15 186 15 276>
VStem: 186 90<84 314 398 580 580 580> 631 90<161 237>
LayerCount: 2
Fore
SplineSet
721 199 m 0
 721 91 651 0 494 0 c 2
 186 0 l 1
 186 580 l 1
 15 580 l 1
 15 664 l 1
 276 664 l 1
 276 398 l 1
 494 398 l 2
 651 398 721 307 721 199 c 0
631 199 m 0
 631 275 578 314 494 314 c 2
 276 314 l 1
 276 84 l 1
 494 84 l 2
 578 84 631 123 631 199 c 0
EndSplineSet
EndChar

StartChar: uni042B
Encoding: 1067 1067 130
Width: 868
GlyphClass: 1
Flags: MW
HStem: 0 84<175 373 175 373> 314 84<175 373 175 373> 644 20G<85 175 175 175 693 783 783 783>
VStem: 85 90<84 314 398 664> 510 90<161 237> 693 90<0 664 0 664>
LayerCount: 2
Fore
SplineSet
783 664 m 1
 783 0 l 1
 693 0 l 1
 693 664 l 1
 783 664 l 1
600 199 m 0
 600 91 530 0 373 0 c 2
 85 0 l 1
 85 664 l 1
 175 664 l 1
 175 398 l 1
 373 398 l 2
 530 398 600 307 600 199 c 0
510 199 m 0
 510 275 457 314 373 314 c 2
 175 314 l 1
 175 84 l 1
 373 84 l 2
 457 84 510 123 510 199 c 0
EndSplineSet
EndChar

StartChar: uni042C
Encoding: 1068 1068 131
Width: 660
GlyphClass: 1
Flags: MW
HStem: 0 84<175 393 175 393> 314 84<175 393 175 393> 644 20G<85 175 175 175>
VStem: 85 90<84 314 398 664> 530 90<161 237>
LayerCount: 2
Fore
SplineSet
620 199 m 0
 620 91 550 0 393 0 c 2
 85 0 l 1
 85 664 l 1
 175 664 l 1
 175 398 l 1
 393 398 l 2
 550 398 620 307 620 199 c 0
530 199 m 0
 530 275 477 314 393 314 c 2
 175 314 l 1
 175 84 l 1
 393 84 l 2
 477 84 530 123 530 199 c 0
EndSplineSet
EndChar

StartChar: uni042D
Encoding: 1069 1069 132
Width: 710
GlyphClass: 1
Flags: MW
HStem: -13 84<285 392.5 285 423.5> 290 84<212 572 212 572> 593 84<285 392>
CounterMasks: 1 e0
LayerCount: 2
Fore
SplineSet
328 593 m 0
 242 593 178 556 137 499 c 1
 35 499 l 1
 88 605 191 677 328 677 c 0
 519 677 665 531 665 332 c 0
 665 133 519 -13 328 -13 c 0
 191 -13 88 59 35 165 c 1
 137 165 l 1
 178 108 242 71 328 71 c 0
 457 71 557 161 572 290 c 1
 212 290 l 1
 212 374 l 1
 572 374 l 1
 558 502 456 593 328 593 c 0
EndSplineSet
EndChar

StartChar: uni042E
Encoding: 1070 1070 133
Width: 1029
GlyphClass: 1
Flags: MW
HStem: -13 84<580 720 580 745> 0 21G<85 175 85 85> 290 84<175 318 175 318> 593 84<580 720> 644 20G<85 175 175 175>
VStem: 85 90<0 290 0 374 374 664> 894 90<256.5 407.5>
LayerCount: 2
Fore
SplineSet
650 677 m 0xb6
 840 677 984 529 984 332 c 0
 984 135 840 -13 650 -13 c 0xb6
 474 -13 337 114 318 290 c 1
 175 290 l 1
 175 0 l 1
 85 0 l 1
 85 664 l 1
 175 664 l 1x6e
 175 374 l 1
 318 374 l 1
 337 549 474 677 650 677 c 0xb6
650 593 m 0
 510 593 406 483 406 332 c 0
 406 181 510 71 650 71 c 0
 790 71 894 181 894 332 c 0
 894 483 790 593 650 593 c 0
EndSplineSet
EndChar

StartChar: uni042F
Encoding: 1071 1071 134
Width: 666
GlyphClass: 1
Flags: MW
HStem: 0 21G<30 147 30 30 491 581 491 491> 274 84<191.5 491 268 307 423 491 423 423> 580 84<227.5 581 268 491>
VStem: 46 90<432.5 505.5 432.5 522> 491 90<0 274 274 274 358 580 580 580>
LayerCount: 2
Fore
SplineSet
46 469 m 0
 46 575 115 664 268 664 c 2
 581 664 l 1
 581 0 l 1
 491 0 l 1
 491 274 l 1
 423 274 l 1
 147 0 l 1
 30 0 l 1
 307 274 l 1
 268 274 l 2
 115 274 46 363 46 469 c 0
136 469 m 0
 136 396 187 358 268 358 c 2
 491 358 l 1
 491 580 l 1
 268 580 l 2
 187 580 136 542 136 469 c 0
EndSplineSet
EndChar

StartChar: uni0430
Encoding: 1072 1072 135
Width: 554
GlyphClass: 1
Flags: MW
HStem: -13 80<214 273.5> -13 88 0 75 214 75<216.5 398 253 398 253 398> 344 88 393 80<236.5 302>
VStem: 49 104 51 86<115 165 115 195.5> 398 86<0 50 50 50 184 214 214 214 289 293 0 327> 398 96
LayerCount: 2
Fore
SplineSet
264 473 m 0x5640
 394 473 484 408 484 293 c 2
 484 0 l 1
 398 0 l 1x3a80
 398 50 l 1
 362 11 309 -13 238 -13 c 0
 130 -13 51 37 51 140 c 0x9940
 51 251 147 289 253 289 c 2
 398 289 l 1
 398 365 340 393 264 393 c 0
 209 393 154 370 136 326 c 1
 40 326 l 1
 67 421 158 473 264 473 c 0x5640
398 184 m 2
 398 214 l 1
 252 214 l 2
 181 214 137 190 137 140 c 0x5940
 137 90 181 67 247 67 c 0
 340 67 398 115 398 184 c 2
EndSplineSet
EndChar

StartChar: uni0431
Encoding: 1073 1073 136
Width: 590
GlyphClass: 1
Flags: MW
HStem: -13 80<254.5 344 254.5 368> 378 79<265.5 344> 649 20G<440 526 526 526>
VStem: 60 86<185.5 265 178 370> 454 86<178 265>
LayerCount: 2
Fore
SplineSet
306 457 m 0
 438 457 540 351 540 221 c 0
 540 91 437 -13 299 -13 c 0
 141 -13 60 104 60 267 c 0
 60 473 106 588 263 605 c 2
 358 615 l 2
 404 620 433 634 440 669 c 1
 526 669 l 1
 521 606 482 550 389 540 c 2
 270 528 l 2
 173 518 149 444 144 385 c 1
 173 422 225 457 306 457 c 0
299 67 m 0
 389 67 454 135 454 221 c 0
 454 309 389 378 299 378 c 0
 210 378 146 309 146 221 c 0
 146 135 210 67 299 67 c 0
EndSplineSet
EndChar

StartChar: uni0432
Encoding: 1074 1074 137
Width: 556
GlyphClass: 1
Flags: MW
HStem: 0 76<166 350 350 359> 192 76<166 346 346 350 166 346> 384 76<166 346 166 166>
VStem: 80 86<76 192 76 268 268 384> 420 82
CounterMasks: 1 e0
LayerCount: 2
Fore
SplineSet
442 230 m 1
 494 203 506 163 506 124 c 0
 506 56 459 0 359 0 c 2
 80 0 l 1
 80 460 l 1
 355 460 l 2
 455 460 502 405 502 336 c 0
 502 298 492 259 442 230 c 1
350 76 m 2
 393 76 420 95 420 134 c 0
 420 173 393 192 350 192 c 2
 166 192 l 1
 166 76 l 1
 350 76 l 2
346 268 m 2
 389 268 416 287 416 326 c 0
 416 365 389 384 346 384 c 2
 166 384 l 1
 166 268 l 1
 346 268 l 2
EndSplineSet
EndChar

StartChar: uni0433
Encoding: 1075 1075 138
Width: 467
GlyphClass: 1
Flags: MW
HStem: 0 21G<80 166 80 80> 384 76<166 437 166 166>
VStem: 80 86<0 384 0 460 0 460>
LayerCount: 2
Fore
SplineSet
80 460 m 1
 437 460 l 1
 437 384 l 1
 166 384 l 1
 166 0 l 1
 80 0 l 1
 80 460 l 1
EndSplineSet
EndChar

StartChar: uni0434
Encoding: 1076 1076 139
Width: 608
GlyphClass: 1
Flags: MW
HStem: -126 21G<10 96 10 10 482 568 482 482> 0 76<167 407 10 96> 384 76<207 407 207 207>
VStem: 10 86<-126 0 -126 76 -126 76> 121 86<269 270 270 384> 407 86<76 384 384 384> 482 86<-126 0 0 0>
LayerCount: 2
Fore
SplineSet
568 -126 m 1xfa
 482 -126 l 1
 482 0 l 1xfa
 96 0 l 1
 96 -126 l 1
 10 -126 l 1
 10 76 l 1
 64 76 l 1
 107 115 121 192 121 269 c 2
 121 460 l 1
 493 460 l 1
 493 76 l 1xfc
 568 76 l 1
 568 -126 l 1xfa
207 270 m 2
 207 207 200 129 167 76 c 1
 407 76 l 1
 407 384 l 1xfc
 207 384 l 1
 207 270 l 2
EndSplineSet
EndChar

StartChar: uni0435
Encoding: 1077 1077 140
Width: 552
GlyphClass: 1
Flags: MW
HStem: -13 80<246.5 313 246.5 336.5> -13 88 187 80 198 75<135 417 135 505 134 417> 344 88 393 80<241.5 318.5>
VStem: 31 104
LayerCount: 2
Fore
SplineSet
286 67 m 0x94
 340 67 384 88 408 129 c 1
 501 129 l 1
 469 40 387 -13 286 -13 c 0
 147 -13 45 89 45 231 c 0
 45 369 142 473 281 473 c 0
 413 473 507 368 507 236 c 0
 507 225 507 211 505 198 c 1
 134 198 l 1
 144 123 207 67 286 67 c 0x94
281 393 m 0
 202 393 145 344 135 273 c 1
 417 273 l 1
 406 344 356 393 281 393 c 0
EndSplineSet
EndChar

StartChar: uni0436
Encoding: 1078 1078 141
Width: 716
GlyphClass: 1
Flags: MW
HStem: 0 21G<10 125 10 10 315 401 315 315 591 706 591 591> 440 20G<10 119 119 119 315 401 401 401 597 706 706 706>
VStem: 315 86<0 186 0 186 265 460>
LayerCount: 2
Fore
SplineSet
315 460 m 1
 401 460 l 1
 401 265 l 1
 597 460 l 1
 706 460 l 1
 474 228 l 1
 706 0 l 1
 591 0 l 1
 401 186 l 1
 401 0 l 1
 315 0 l 1
 315 186 l 1
 125 0 l 1
 10 0 l 1
 242 228 l 1
 10 460 l 1
 119 460 l 1
 315 265 l 1
 315 460 l 1
EndSplineSet
EndChar

StartChar: uni0437
Encoding: 1079 1079 142
Width: 536
GlyphClass: 1
Flags: MW
HStem: -13 80<241.5 310.5 241.5 333> 192 76<212 321 321 323 212 321> 394 79<242 308.5>
VStem: 392 89
LayerCount: 2
Fore
SplineSet
478 328 m 0
 478 293 465 257 418 230 c 1
 456 208 481 179 481 128 c 0
 481 51 395 -13 271 -13 c 0
 141 -13 65 54 45 134 c 1
 143 134 l 1
 161 90 204 67 279 67 c 0
 342 67 395 93 395 136 c 0
 395 172 367 192 323 192 c 2
 212 192 l 1
 212 268 l 1
 321 268 l 2
 364 268 392 288 392 324 c 0
 392 367 341 394 276 394 c 0
 208 394 165 375 144 331 c 1
 49 331 l 1
 70 406 140 473 275 473 c 0
 363 473 478 433 478 328 c 0
EndSplineSet
EndChar

StartChar: uni0438
Encoding: 1080 1080 143
Width: 601
GlyphClass: 1
Flags: MW
HStem: 0 21G<80 166 80 80 435 435 435 521> 440 20G<80 166 166 166 435 521 521 521>
VStem: 80 86<126 460> 435 86<0 334 334 334 0 460>
LayerCount: 2
Fore
SplineSet
166 0 m 1
 80 0 l 1
 80 460 l 1
 166 460 l 1
 166 126 l 1
 435 460 l 1
 521 460 l 1
 521 0 l 1
 435 0 l 1
 435 334 l 1
 166 0 l 1
EndSplineSet
EndChar

StartChar: uni0439
Encoding: 1081 1081 144
Width: 601
GlyphClass: 1
Flags: MW
HStem: -31 21G -1 21G 0 21G<80 166 80 80 435 435 435 521> 403 20G 440 20G<80 166 166 166 435 521 521 521> 461 95 528 75<271 328.5 271 348.5> 598 20G 674 20G<118 193 193 193 406 482 482 482>
VStem: 57 121 80 86<126 460> 342 121 435 86<0 334 334 334 0 460>
LayerCount: 2
Fore
SplineSet
166 0 m 1xbdb0
 80 0 l 1xbdb0
 80 460 l 1
 166 460 l 1
 166 126 l 1xddb0
 435 460 l 1
 521 460 l 1
 521 0 l 1
 435 0 l 1xbdc8
 435 334 l 1xddc8
 166 0 l 1xbdb0
300 603 m 0xdad0
 357 603 398 642 406 694 c 1
 482 694 l 1
 474 601 397 528 300 528 c 0
 202 528 126 601 118 694 c 1
 193 694 l 1
 201 642 242 603 300 603 c 0xdad0
EndSplineSet
EndChar

StartChar: uni043A
Encoding: 1082 1082 145
Width: 512
GlyphClass: 1
Flags: MW
HStem: 0 21G<80 166 80 80 387 502 387 387> 440 20G<80 166 166 166 387 502 502 502>
VStem: 80 86<0 189 259 460>
LayerCount: 2
Fore
SplineSet
80 460 m 1
 166 460 l 1
 166 259 l 1
 387 460 l 1
 502 460 l 1
 247 230 l 1
 502 0 l 1
 387 0 l 1
 166 189 l 1
 166 0 l 1
 80 0 l 1
 80 460 l 1
EndSplineSet
EndChar

StartChar: uni043B
Encoding: 1083 1083 146
Width: 578
GlyphClass: 1
Flags: MW
HStem: 0 81<20 38 38 49 20 38> 384 76<211 407 211 211>
VStem: 125 86<265 384> 407 86<0 384 384 384>
LayerCount: 2
Fore
SplineSet
125 460 m 1
 493 460 l 1
 493 0 l 1
 407 0 l 1
 407 384 l 1
 211 384 l 1
 211 265 l 2
 211 149 202 0 49 0 c 2
 20 0 l 1
 20 81 l 1
 38 81 l 2
 124 81 125 186 125 265 c 2
 125 460 l 1
EndSplineSet
EndChar

StartChar: uni043C
Encoding: 1084 1084 147
Width: 721
GlyphClass: 1
Flags: MW
HStem: 0 21G<80 166 80 80 361 361 555 555 555 641> 440 20G<80 176 176 176 547 641 641 641>
VStem: 80 86<0 315 0 460> 555 86<0 316 316 316>
LayerCount: 2
Fore
SplineSet
555 316 m 1
 361 0 l 1
 166 315 l 1
 166 0 l 1
 80 0 l 1
 80 460 l 1
 176 460 l 1
 362 159 l 1
 547 460 l 1
 641 460 l 1
 641 0 l 1
 555 0 l 1
 555 316 l 1
EndSplineSet
EndChar

StartChar: uni043D
Encoding: 1085 1085 148
Width: 601
GlyphClass: 1
Flags: MW
HStem: 0 21G<80 166 80 80 435 521 435 435> 194 76<166 435 166 435> 440 20G<80 166 166 166 435 521 521 521>
VStem: 80 86<0 194 0 270 270 460> 435 86<0 194 194 194 270 460 0 460>
LayerCount: 2
Fore
SplineSet
435 460 m 1
 521 460 l 1
 521 0 l 1
 435 0 l 1
 435 194 l 1
 166 194 l 1
 166 0 l 1
 80 0 l 1
 80 460 l 1
 166 460 l 1
 166 270 l 1
 435 270 l 1
 435 460 l 1
EndSplineSet
EndChar

StartChar: uni043E
Encoding: 1086 1086 149
Width: 582
GlyphClass: 1
Flags: MW
HStem: -13 80<245.5 336.5 245.5 360> -13 88 344 88 393 80<245.5 336.5>
VStem: -546 104 -182 104 50 86<185 275.5 185 299.5> 446 86<185 275.5>
LayerCount: 2
Fore
SplineSet
291 473 m 0x93
 429 473 532 369 532 230 c 0
 532 92 429 -13 291 -13 c 0
 153 -13 50 92 50 230 c 0
 50 369 153 473 291 473 c 0x93
291 67 m 0
 382 67 446 140 446 230 c 0
 446 321 382 393 291 393 c 0
 200 393 136 321 136 230 c 0
 136 140 200 67 291 67 c 0
EndSplineSet
EndChar

StartChar: uni043F
Encoding: 1087 1087 150
Width: 593
GlyphClass: 1
Flags: MW
HStem: 0 21G<80 166 80 80 427 513 427 427> 384 76<166 427 166 166>
VStem: 80 86<0 384 0 460 0 460> 427 86<0 384 384 384>
LayerCount: 2
Fore
SplineSet
80 460 m 1
 513 460 l 1
 513 0 l 1
 427 0 l 1
 427 384 l 1
 166 384 l 1
 166 0 l 1
 80 0 l 1
 80 460 l 1
EndSplineSet
EndChar

StartChar: uni0440
Encoding: 1088 1088 151
Width: 604
GlyphClass: 1
Flags: MW
HStem: -229 21G -204 21G<80 166 80 80> -13 80<288.5 362.5 278 396.5> -13 88 344 88 393 67 393 80<288.5 362.5>
VStem: 65 101 406 104 468 86<186 274>
LayerCount: 2
Fore
SplineSet
166 -204 m 1xe980
 80 -204 l 1
 80 460 l 1
 166 460 l 1xd580
 166 410 l 1
 200 448 256 473 321 473 c 0xd380
 472 473 554 357 554 230 c 0xd940
 554 103 472 -13 321 -13 c 0
 256 -13 200 12 166 50 c 1
 166 -204 l 1xe980
163 230 m 0
 163 121 238 67 318 67 c 0
 407 67 468 142 468 230 c 0xe940
 468 318 407 393 318 393 c 0
 238 393 163 339 163 230 c 0
EndSplineSet
EndChar

StartChar: uni0441
Encoding: 1089 1089 152
Width: 552
GlyphClass: 1
Flags: MW
HStem: -13 80<245 317 245 341> -13 88 344 88 393 80<245 317>
VStem: 34 104 50 86<184.5 275.5 184.5 299.5>
LayerCount: 2
Fore
SplineSet
507 326 m 1x94
 412 326 l 1
 388 367 344 393 290 393 c 0
 200 393 136 321 136 230 c 0
 136 139 200 67 290 67 c 0
 344 67 388 93 412 134 c 1
 507 134 l 1
 474 45 392 -13 290 -13 c 0
 154 -13 50 91 50 230 c 0
 50 369 154 473 290 473 c 0
 392 473 474 415 507 326 c 1x94
EndSplineSet
EndChar

StartChar: uni0442
Encoding: 1090 1090 153
Width: 482
GlyphClass: 1
Flags: MW
HStem: 0 21G<198 284 198 198> 384 76<20 462 20 198 284 284 284 462>
VStem: 198 86<0 384 0 384>
LayerCount: 2
Fore
SplineSet
20 384 m 1
 20 460 l 1
 462 460 l 1
 462 384 l 1
 284 384 l 1
 284 0 l 1
 198 0 l 1
 198 384 l 1
 20 384 l 1
EndSplineSet
EndChar

StartChar: uni0443
Encoding: 1091 1091 154
Width: 521
GlyphClass: 1
Flags: MW
HStem: -229 21G -204 76<75 103 103 119 75 103> 401 20G 440 20G<20 117 117 117 431 523 523 523>
LayerCount: 2
Fore
SplineSet
226 6 m 1
 20 460 l 1
 117 460 l 1
 274 112 l 1
 431 460 l 1
 523 460 l 1
 303 -25 l 2
 240 -163 228 -204 119 -204 c 2
 75 -204 l 1
 75 -128 l 1
 103 -128 l 2
 156 -128 176 -109 207 -38 c 2
 226 6 l 1
EndSplineSet
EndChar

StartChar: uni0444
Encoding: 1092 1092 155
Width: 766
GlyphClass: 1
Flags: MW
HStem: -204 21G<340 426 340 340> 0 76<217.5 340 296 340 296 340 426 470 470 472> 384 76<294 297 297 340 426 469> 649 20G<340 426 426 426>
VStem: 50 86<187 275 187 297> 340 86<-204 0 -204 0 76 384 460 669> 630 86<187 275>
CounterMasks: 1 0e
LayerCount: 2
Fore
SplineSet
340 669 m 1
 426 669 l 1
 426 460 l 1
 472 460 l 2
 614 460 716 363 716 231 c 0
 716 93 625 0 472 0 c 2
 426 0 l 1
 426 -204 l 1
 340 -204 l 1
 340 0 l 1
 294 0 l 2
 141 0 50 93 50 231 c 0
 50 363 152 460 294 460 c 2
 340 460 l 1
 340 669 l 1
469 384 m 2
 426 384 l 1
 426 76 l 1
 470 76 l 2
 578 76 630 143 630 231 c 0
 630 319 570 384 469 384 c 2
340 384 m 1
 297 384 l 2
 196 384 136 319 136 231 c 0
 136 143 188 76 296 76 c 2
 340 76 l 1
 340 384 l 1
EndSplineSet
EndChar

StartChar: uni0445
Encoding: 1093 1093 156
Width: 521
GlyphClass: 1
Flags: MW
HStem: 0 21G<20 119 20 20 396 501 396 396> 401 20G 440 20G<22 129 129 129 396 499 499 499>
LayerCount: 2
Fore
SplineSet
499 460 m 1
 312 233 l 1
 501 0 l 1
 396 0 l 1
 258 169 l 1
 119 0 l 1
 20 0 l 1
 208 230 l 1
 22 460 l 1
 129 460 l 1
 262 295 l 1
 396 460 l 1
 499 460 l 1
EndSplineSet
EndChar

StartChar: uni0446
Encoding: 1094 1094 157
Width: 628
GlyphClass: 1
Flags: MW
HStem: -126 21G<502 588 502 502> 0 76<166 427 166 502> 440 20G<80 166 166 166 427 513 513 513>
VStem: 80 86<76 460 76 460 76 460> 427 86<76 460 76 460> 502 86<-126 0 0 0>
LayerCount: 2
Fore
SplineSet
588 -126 m 1xf4
 502 -126 l 1
 502 0 l 1xf4
 80 0 l 1
 80 460 l 1
 166 460 l 1
 166 76 l 1
 427 76 l 1
 427 460 l 1
 513 460 l 1
 513 76 l 1xf8
 588 76 l 1
 588 -126 l 1xf4
EndSplineSet
EndChar

StartChar: uni0447
Encoding: 1095 1095 158
Width: 561
GlyphClass: 1
Flags: MW
HStem: 0 21G<395 481 395 395> 157 80<216 278 216 279> 440 20G<55 141 141 141 395 481 481 481>
VStem: 55 86<311 319 319 460> 395 86<0 170 170 170 250 460 0 460>
LayerCount: 2
Fore
SplineSet
55 311 m 2
 55 460 l 1
 141 460 l 1
 141 319 l 2
 141 259 173 237 259 237 c 0
 297 237 344 242 395 250 c 1
 395 460 l 1
 481 460 l 1
 481 0 l 1
 395 0 l 1
 395 170 l 1
 368 164 296 157 262 157 c 0
 125 157 55 207 55 311 c 2
EndSplineSet
EndChar

StartChar: uni0448
Encoding: 1096 1096 159
Width: 820
GlyphClass: 1
Flags: MW
HStem: 0 76<166 367 453 654> 440 20G<80 166 166 166 367 453 453 453 654 740 740 740>
VStem: 80 86<76 460 76 460 76 460> 367 86<76 460 76 460> 654 86<76 460>
CounterMasks: 1 38
LayerCount: 2
Fore
SplineSet
740 0 m 1
 80 0 l 1
 80 460 l 1
 166 460 l 1
 166 76 l 1
 367 76 l 1
 367 460 l 1
 453 460 l 1
 453 76 l 1
 654 76 l 1
 654 460 l 1
 740 460 l 1
 740 0 l 1
EndSplineSet
EndChar

StartChar: uni0449
Encoding: 1097 1097 160
Width: 855
GlyphClass: 1
Flags: MW
HStem: -126 21G<729 815 729 729> 0 76<166 367 453 654> 440 20G<80 166 166 166 367 453 453 453 654 740 740 740>
VStem: 80 86<76 460 76 460 76 460> 367 86<76 460 76 460> 654 86<76 460 76 460> 729 86<-126 0 0 0>
LayerCount: 2
Fore
SplineSet
815 -126 m 1xfa
 729 -126 l 1
 729 0 l 1xfa
 80 0 l 1
 80 460 l 1
 166 460 l 1
 166 76 l 1
 367 76 l 1
 367 460 l 1
 453 460 l 1
 453 76 l 1
 654 76 l 1
 654 460 l 1
 740 460 l 1
 740 76 l 1xfc
 815 76 l 1
 815 -126 l 1xfa
EndSplineSet
EndChar

StartChar: uni044A
Encoding: 1098 1098 161
Width: 609
GlyphClass: 1
Flags: MW
HStem: 0 76<246 403 403 406> 232 76<246 403 246 406> 384 76<15 160 15 246>
VStem: 160 86<76 232 308 384 384 384> 493 86<129 179>
LayerCount: 2
Fore
SplineSet
406 308 m 2
 525 308 579 236 579 154 c 0
 579 71 525 0 406 0 c 2
 160 0 l 1
 160 384 l 1
 15 384 l 1
 15 460 l 1
 246 460 l 1
 246 308 l 1
 406 308 l 2
403 76 m 2
 458 76 493 104 493 154 c 0
 493 204 458 232 403 232 c 2
 246 232 l 1
 246 76 l 1
 403 76 l 2
EndSplineSet
EndChar

StartChar: uni044B
Encoding: 1099 1099 162
Width: 723
GlyphClass: 1
Flags: MW
HStem: 0 76<166 303 303 306> 232 76<166 303 166 306> 440 20G<80 166 166 166 557 643 643 643>
VStem: 80 86<76 232 308 460> 393 86<129 179> 557 86<0 460 0 460>
LayerCount: 2
Fore
SplineSet
557 460 m 1
 643 460 l 1
 643 0 l 1
 557 0 l 1
 557 460 l 1
306 308 m 2
 425 308 479 236 479 154 c 0
 479 71 425 0 306 0 c 2
 80 0 l 1
 80 460 l 1
 166 460 l 1
 166 308 l 1
 306 308 l 2
303 76 m 2
 358 76 393 104 393 154 c 0
 393 204 358 232 303 232 c 2
 166 232 l 1
 166 76 l 1
 303 76 l 2
EndSplineSet
EndChar

StartChar: uni044C
Encoding: 1100 1100 163
Width: 529
GlyphClass: 1
Flags: MW
HStem: 0 76<166 323 323 326> 232 76<166 323 166 326> 440 20G<80 166 166 166>
VStem: 80 86<76 232 308 460> 413 86<129 179>
LayerCount: 2
Fore
SplineSet
326 308 m 2
 445 308 499 236 499 154 c 0
 499 71 445 0 326 0 c 2
 80 0 l 1
 80 460 l 1
 166 460 l 1
 166 308 l 1
 326 308 l 2
323 76 m 2
 378 76 413 104 413 154 c 0
 413 204 378 232 323 232 c 2
 166 232 l 1
 166 76 l 1
 323 76 l 2
EndSplineSet
EndChar

StartChar: uni044D
Encoding: 1101 1101 164
Width: 552
GlyphClass: 1
Flags: MW
HStem: -13 80<237.5 303.5 237.5 332.5> 192 76<184 412 184 412> 393 80<237.5 303.5>
CounterMasks: 1 e0
LayerCount: 2
Fore
SplineSet
184 192 m 1
 184 268 l 1
 412 268 l 1
 399 341 342 393 265 393 c 0
 210 393 164 367 140 326 c 1
 45 326 l 1
 78 415 162 473 265 473 c 0
 400 473 502 371 502 230 c 0
 502 89 400 -13 265 -13 c 0
 162 -13 78 45 45 134 c 1
 140 134 l 1
 164 93 210 67 265 67 c 0
 342 67 399 119 412 192 c 1
 184 192 l 1
EndSplineSet
EndChar

StartChar: uni044E
Encoding: 1102 1102 165
Width: 780
GlyphClass: 1
Flags: MW
HStem: -13 80<449.5 538.5 449.5 561.5> 0 21G<80 166 80 80> 194 76<166 260 166 261> 393 80<449.5 538.5> 440 20G<80 166 166 166>
VStem: 80 86<0 194 270 460> 644 86<185 275.5>
LayerCount: 2
Fore
SplineSet
166 270 m 1x6e
 261 270 l 1
 278 388 372 473 494 473 c 0
 629 473 730 369 730 230 c 0
 730 92 629 -13 494 -13 c 0xb6
 371 -13 276 74 260 194 c 1
 166 194 l 1
 166 0 l 1
 80 0 l 1
 80 460 l 1
 166 460 l 1
 166 270 l 1x6e
494 67 m 0
 583 67 644 140 644 230 c 0
 644 321 583 393 494 393 c 0
 405 393 344 321 344 230 c 0
 344 140 405 67 494 67 c 0
EndSplineSet
EndChar

StartChar: uni044F
Encoding: 1103 1103 166
Width: 529
GlyphClass: 1
Flags: MW
HStem: 0 21G<20 144 20 20 363 363 363 449> 154 76<206 363 327 363 327 327> 384 76<214 217 217 363>
VStem: 41 86<282.5 331.5 282.5 348> 363 86<0 154 154 154 230 384 384 384>
LayerCount: 2
Fore
SplineSet
363 154 m 1
 327 154 l 1
 144 0 l 1
 20 0 l 1
 206 154 l 1
 92 157 41 228 41 307 c 0
 41 389 95 460 214 460 c 2
 449 460 l 1
 449 0 l 1
 363 0 l 1
 363 154 l 1
363 384 m 1
 217 384 l 2
 162 384 127 356 127 307 c 0
 127 258 162 230 217 230 c 2
 363 230 l 1
 363 384 l 1
EndSplineSet
EndChar

StartChar: uni0451
Encoding: 1105 1105 167
Width: 562
GlyphClass: 1
Flags: MW
HStem: -13 80<251.5 318 251.5 341.5> -13 88 187 80 198 75<140 422 140 510 139 422> 344 88 393 80<246.5 323.5> 485 124
VStem: 34 106 98 129 285 129
LayerCount: 2
Fore
SplineSet
291 67 m 0xaac0
 345 67 389 88 413 129 c 1
 506 129 l 1
 474 40 392 -13 291 -13 c 0
 152 -13 50 89 50 231 c 0
 50 369 147 473 286 473 c 0xa6c0
 418 473 512 368 512 236 c 0
 512 225 512 211 510 198 c 1
 139 198 l 1x5ac0
 149 123 212 67 291 67 c 0xaac0
286 393 m 0
 207 393 150 344 140 273 c 1x5b40
 422 273 l 1x5ac0
 411 344 361 393 286 393 c 0
EndSplineSet
EndChar

StartChar: uni0452
Encoding: 1106 1106 168
Width: 600
GlyphClass: 1
Flags: MW
HStem: -204 76<294 358 294 358> 0 21G<89 175 89 89> 393 80<294.5 362.5> 526 76<10 89 10 89 175 328> 649 20G<89 175 175 175>
VStem: 89 86<0 239 410 526 602 669> 444 86<-25 264 264 271>
LayerCount: 2
Fore
SplineSet
444 264 m 2
 444 340 404 393 321 393 c 0
 246 393 175 336 175 239 c 2
 175 0 l 1
 89 0 l 1
 89 526 l 1
 10 526 l 1
 10 602 l 1
 89 602 l 1
 89 669 l 1
 175 669 l 1
 175 602 l 1
 328 602 l 1
 328 526 l 1
 175 526 l 1
 175 410 l 1
 205 447 259 473 330 473 c 0
 456 473 530 389 530 271 c 2
 530 -25 l 2
 530 -145 478 -204 358 -204 c 2
 294 -204 l 1
 294 -128 l 1
 358 -128 l 2
 423 -128 444 -90 444 -25 c 2
 444 264 l 2
EndSplineSet
EndChar

StartChar: uni0453
Encoding: 1107 1107 169
Width: 467
GlyphClass: 1
Flags: MW
HStem: 0 21G<80 166 80 80> 331 90 485 21G 533 21G 655 20G 699 20G
VStem: 78 101
LayerCount: 2
Fore
SplineSet
80 460 m 1
 437 460 l 1
 437 384 l 1
 166 384 l 1
 166 0 l 1
 80 0 l 1
 80 460 l 1
EndSplineSet
EndChar

StartChar: uni0454
Encoding: 1108 1108 170
Width: 552
GlyphClass: 1
Flags: MW
HStem: -13 80<248.5 314.5 248.5 338.5> -12 106 163 109 192 76<140 368 140 368> 327 106 393 80<248.5 314.5>
LayerCount: 2
Fore
SplineSet
368 268 m 1x68
 368 192 l 1x94
 140 192 l 1
 153 119 210 67 287 67 c 0
 342 67 388 93 412 134 c 1
 507 134 l 1
 474 45 390 -13 287 -13 c 0
 152 -13 50 89 50 230 c 0
 50 371 152 473 287 473 c 0
 390 473 474 415 507 326 c 1
 412 326 l 1
 388 367 342 393 287 393 c 0
 210 393 153 341 140 268 c 1
 368 268 l 1x68
EndSplineSet
EndChar

StartChar: uni0455
Encoding: 1109 1109 171
Width: 520
GlyphClass: 1
Flags: MW
HStem: -13 80<246.5 317 246.5 340> -13 88 344 88 393 79<219 286.5>
VStem: 55 86<310.5 349.5 310.5 367.5> 57 96 243 104 394 86<110 148>
LayerCount: 2
Fore
SplineSet
485 330 m 1x99
 390 330 l 1
 369 374 321 393 252 393 c 0
 186 393 141 369 141 330 c 0
 141 291 175 277 236 272 c 2
 329 265 l 2
 425 257 480 214 480 131 c 0
 480 52 404 -13 276 -13 c 0
 141 -13 60 54 40 134 c 1
 135 134 l 1
 153 90 206 67 287 67 c 0
 347 67 394 91 394 129 c 0
 394 167 360 183 298 188 c 2
 202 196 l 2
 104 205 55 248 55 327 c 0
 55 408 131 472 253 472 c 0
 390 472 464 405 485 330 c 1x99
EndSplineSet
EndChar

StartChar: uni0457
Encoding: 1111 1111 172
Width: 250
GlyphClass: 1
Flags: MW
HStem: 0 21G<82 168 82 82> 401 20G 440 20G<82 168 168 168> 499 96 565 99
VStem: 2 100 66 102 82 86<0 460 0 460> 133 100
LayerCount: 2
Fore
SplineSet
82 460 m 1
 168 460 l 1
 168 0 l 1
 82 0 l 1
 82 460 l 1
EndSplineSet
EndChar

StartChar: uni0459
Encoding: 1113 1113 173
Width: 856
GlyphClass: 1
Flags: MW
HStem: 0 76<493 650 650 653> 232 76<493 650 493 653> 384 76<211 407 211 211>
VStem: 125 86<265 384> 407 86<76 232 308 384 384 384> 740 86<129 179>
LayerCount: 2
Fore
SplineSet
653 308 m 2
 772 308 826 236 826 154 c 0
 826 71 772 0 653 0 c 2
 407 0 l 1
 407 384 l 1
 211 384 l 1
 211 265 l 2
 211 149 202 0 49 0 c 2
 20 0 l 1
 20 81 l 1
 38 81 l 2
 124 81 125 186 125 265 c 2
 125 460 l 1
 493 460 l 1
 493 308 l 1
 653 308 l 2
650 76 m 2
 705 76 740 104 740 154 c 0
 740 204 705 232 650 232 c 2
 493 232 l 1
 493 76 l 1
 650 76 l 2
EndSplineSet
EndChar

StartChar: uni045A
Encoding: 1114 1114 174
Width: 884
GlyphClass: 1
Flags: MW
HStem: 0 76<521 678 678 681> 194 76<166 435 166 435> 232 76<521 678 521 681> 440 20G<80 166 166 166 435 521 521 521>
VStem: 80 86<0 194 0 270 270 460> 435 86<76 194 194 194 308 460> 768 86<129 179>
LayerCount: 2
Fore
SplineSet
435 460 m 1xde
 521 460 l 1
 521 308 l 1
 681 308 l 2xbe
 800 308 854 236 854 154 c 0
 854 71 800 0 681 0 c 2
 435 0 l 1
 435 194 l 1
 166 194 l 1
 166 0 l 1
 80 0 l 1
 80 460 l 1
 166 460 l 1
 166 270 l 1
 435 270 l 1
 435 460 l 1xde
678 76 m 2
 733 76 768 104 768 154 c 0
 768 204 733 232 678 232 c 2
 521 232 l 1
 521 76 l 1
 678 76 l 2
EndSplineSet
EndChar

StartChar: uni045C
Encoding: 1116 1116 175
Width: 512
GlyphClass: 1
Flags: MW
HStem: 0 21G<80 166 80 80 387 502 387 387> 401 20G 485 21G 533 21G 655 20G 699 20G
VStem: 70 101
LayerCount: 2
Fore
SplineSet
80 460 m 1
 166 460 l 1
 166 259 l 1
 387 460 l 1
 502 460 l 1
 247 230 l 1
 502 0 l 1
 387 0 l 1
 166 189 l 1
 166 0 l 1
 80 0 l 1
 80 460 l 1
EndSplineSet
EndChar

StartChar: uni045F
Encoding: 1119 1119 176
Width: 593
GlyphClass: 1
Flags: MW
HStem: -126 21G<254 340 254 254> 0 76<166 254 340 340 340 427 166 513> 440 20G<80 166 166 166 427 513 513 513>
VStem: 80 86<76 460 76 460 76 460> 254 86<-126 0> 427 86<76 460 0 460>
LayerCount: 2
Fore
SplineSet
340 -126 m 1
 254 -126 l 1
 254 0 l 1
 80 0 l 1
 80 460 l 1
 166 460 l 1
 166 76 l 1
 427 76 l 1
 427 460 l 1
 513 460 l 1
 513 0 l 1
 340 0 l 1
 340 -126 l 1
EndSplineSet
EndChar

StartChar: uni0490
Encoding: 1168 1168 177
Width: 566
GlyphClass: 1
Flags: MW
HStem: 0 21G<85 175 85 85> 580 84<175 451 85 541 175 175> 783 20G<451 541 541 541>
VStem: 85 90<0 580 0 664 0 664> 451 90<664 803 580 803>
LayerCount: 2
Fore
SplineSet
85 664 m 1
 451 664 l 1
 451 803 l 1
 541 803 l 1
 541 580 l 1
 175 580 l 1
 175 0 l 1
 85 0 l 1
 85 664 l 1
EndSplineSet
EndChar

StartChar: uni0491
Encoding: 1169 1169 178
Width: 467
GlyphClass: 1
Flags: MW
HStem: 0 21G<80 166 80 80> 384 76<166 351 80 437 166 166> 556 20G<351 437 437 437>
VStem: 80 86<0 384 0 460 0 460> 351 86<460 576 384 576>
LayerCount: 2
Fore
SplineSet
351 576 m 1
 437 576 l 1
 437 384 l 1
 166 384 l 1
 166 0 l 1
 80 0 l 1
 80 460 l 1
 351 460 l 1
 351 576 l 1
EndSplineSet
EndChar

StartChar: uni0492
Encoding: 1170 1170 179
Width: 602
GlyphClass: 1
Flags: MW
HStem: 0 21G<121 211 121 121> 290 84<20 121 20 121 211 441> 580 84<211 577 211 211>
VStem: 121 90<0 290 0 290 374 580>
LayerCount: 2
Fore
SplineSet
441 374 m 1
 441 290 l 1
 211 290 l 1
 211 0 l 1
 121 0 l 1
 121 290 l 1
 20 290 l 1
 20 374 l 1
 121 374 l 1
 121 664 l 1
 577 664 l 1
 577 580 l 1
 211 580 l 1
 211 374 l 1
 441 374 l 1
EndSplineSet
EndChar

StartChar: uni0493
Encoding: 1171 1171 180
Width: 486
GlyphClass: 1
Flags: MW
HStem: 0 21G<99 185 99 99> 176 76<20 99 20 99 185 360> 384 76<185 456 185 185>
VStem: 99 86<0 176 0 176 252 384>
LayerCount: 2
Fore
SplineSet
20 252 m 1
 99 252 l 1
 99 460 l 1
 456 460 l 1
 456 384 l 1
 185 384 l 1
 185 252 l 1
 360 252 l 1
 360 176 l 1
 185 176 l 1
 185 0 l 1
 99 0 l 1
 99 176 l 1
 20 176 l 1
 20 252 l 1
EndSplineSet
EndChar

StartChar: uni049A
Encoding: 1178 1178 181
Width: 630
GlyphClass: 1
Flags: MW
HStem: -147 21G<517 607 517 517> 0 21G<85 175 85 85 487 517 487 487> 644 20G<85 175 175 175 487 607 607 607>
VStem: 85 90<0 287 377 664> 517 90<-147 0 0 0 -147 84>
LayerCount: 2
Fore
SplineSet
252 332 m 1
 517 84 l 1
 607 84 l 1
 607 -147 l 1
 517 -147 l 1
 517 0 l 1
 487 0 l 1
 175 287 l 1
 175 0 l 1
 85 0 l 1
 85 664 l 1
 175 664 l 1
 175 377 l 1
 487 664 l 1
 607 664 l 1
 252 332 l 1
EndSplineSet
EndChar

StartChar: uni049B
Encoding: 1179 1179 182
Width: 532
GlyphClass: 1
Flags: MW
HStem: -126 21G<416 502 416 416> 0 21G<80 166 80 80 387 416 387 387> 440 20G<80 166 166 166 387 502 502 502>
VStem: 80 86<0 189 0 259 259 460> 416 86<-126 0 0 0>
LayerCount: 2
Fore
SplineSet
502 -126 m 1
 416 -126 l 1
 416 0 l 1
 387 0 l 1
 166 189 l 1
 166 0 l 1
 80 0 l 1
 80 460 l 1
 166 460 l 1
 166 259 l 1
 387 460 l 1
 502 460 l 1
 247 230 l 1
 417 76 l 1
 502 76 l 1
 502 -126 l 1
EndSplineSet
EndChar

StartChar: uni04A2
Encoding: 1186 1186 183
Width: 778
GlyphClass: 1
Flags: MW
HStem: -147 21G<653 743 653 653> 0 21G<85 175 85 85 563 653 563 563> 290 84<175 563 175 563> 644 20G<85 175 175 175 563 653 653 653>
VStem: 85 90<0 290 0 374 374 664> 563 90<84 290 290 290 374 664> 653 90<-147 0 0 0 -147 664 -147 84>
LayerCount: 2
Fore
SplineSet
563 664 m 1xfc
 653 664 l 1
 653 84 l 1
 743 84 l 1
 743 -147 l 1xfa
 653 -147 l 1
 653 0 l 1
 563 0 l 1
 563 290 l 1
 175 290 l 1
 175 0 l 1
 85 0 l 1
 85 664 l 1
 175 664 l 1
 175 374 l 1
 563 374 l 1
 563 664 l 1xfc
EndSplineSet
EndChar

StartChar: uni04A3
Encoding: 1187 1187 184
Width: 636
GlyphClass: 1
Flags: MW
HStem: -126 21G<510 596 510 510> 0 21G<80 166 80 80 435 510 435 435> 194 76<166 435 166 435> 440 20G<80 166 166 166 435 521 521 521>
VStem: 80 86<0 194 0 270 270 460> 435 86<76 194 194 194 270 460 76 460> 510 86<-126 0 0 0>
LayerCount: 2
Fore
SplineSet
596 -126 m 1xfa
 510 -126 l 1
 510 0 l 1xfa
 435 0 l 1
 435 194 l 1
 166 194 l 1
 166 0 l 1
 80 0 l 1
 80 460 l 1
 166 460 l 1
 166 270 l 1
 435 270 l 1
 435 460 l 1
 521 460 l 1
 521 76 l 1xfc
 596 76 l 1
 596 -126 l 1xfa
EndSplineSet
EndChar

StartChar: uni04AE
Encoding: 1198 1198 185
Width: 590
GlyphClass: 1
Flags: MW
HStem: 0 21G<250 340 250 250> 644 20G<0 99 99 99 494 590 590 590> 647 20G
VStem: 228 106 250 90<0 247 0 247>
LayerCount: 2
Fore
SplineSet
296 331 m 1xc8
 494 664 l 1
 590 664 l 1
 340 247 l 1
 340 0 l 1
 250 0 l 1
 250 247 l 1
 0 664 l 1
 99 664 l 1
 296 331 l 1xc8
EndSplineSet
EndChar

StartChar: uni04AF
Encoding: 1199 1199 186
Width: 523
GlyphClass: 1
Flags: MW
HStem: -204 21G<219 305 219 219> 440 20G<10 107 107 107 421 513 513 513>
VStem: 219 86<-204 0 0 0>
LayerCount: 2
Fore
SplineSet
513 460 m 1
 305 2 l 1
 305 -204 l 1
 219 -204 l 1
 219 0 l 1
 10 460 l 1
 107 460 l 1
 264 112 l 1
 421 460 l 1
 513 460 l 1
EndSplineSet
EndChar

StartChar: uni04B0
Encoding: 1200 1200 187
Width: 590
GlyphClass: 1
Flags: MW
HStem: 0 21G<250 340 250 250> 217 84<77 217 77 250 77 217 372 516> 644 20G<0 99 99 99 494 590 590 590>
VStem: 250 90<0 217 0 217>
LayerCount: 2
Fore
SplineSet
296 331 m 1
 494 664 l 1
 590 664 l 1
 372 301 l 1
 516 301 l 1
 516 217 l 1
 340 217 l 1
 340 0 l 1
 250 0 l 1
 250 217 l 1
 77 217 l 1
 77 301 l 1
 217 301 l 1
 0 664 l 1
 99 664 l 1
 296 331 l 1
EndSplineSet
EndChar

StartChar: uni04B1
Encoding: 1201 1201 188
Width: 523
GlyphClass: 1
Flags: MW
HStem: -204 21G<219 305 219 219> -22 76<54 194 54 219 54 194 328 470> 440 20G<10 107 107 107 421 513 513 513>
VStem: 219 86<-204 -22 -204 -22>
LayerCount: 2
Fore
SplineSet
513 460 m 1
 328 54 l 1
 470 54 l 1
 470 -22 l 1
 305 -22 l 1
 305 -204 l 1
 219 -204 l 1
 219 -22 l 1
 54 -22 l 1
 54 54 l 1
 194 54 l 1
 10 460 l 1
 107 460 l 1
 264 112 l 1
 421 460 l 1
 513 460 l 1
EndSplineSet
EndChar

StartChar: uni04BA
Encoding: 1210 1210 189
Width: 681
GlyphClass: 1
Flags: MW
HStem: 0 21G<85 175 85 85 536 626 536 536> 11 42 305 114 326 84<334 422.5> 643 21 647 20G
VStem: 85 90<0 307 0 390 390 664> 113 127 479 126 536 90<0 188>
LayerCount: 2
Fore
SplineSet
626 0 m 1xa540
 536 0 l 1xa540
 536 189 l 2x6540
 536 286 486 326 359 326 c 0x5580
 309 326 242 321 175 307 c 1
 175 0 l 1
 85 0 l 1xa680
 85 664 l 1
 175 664 l 1x6a80
 175 390 l 1x6680
 213 399 309 410 357 410 c 0x5580
 549 410 626 340 626 188 c 2
 626 0 l 1xa540
EndSplineSet
EndChar

StartChar: uni04BB
Encoding: 1211 1211 190
Width: 591
GlyphClass: 1
Flags: MW
HStem: 0 21G<80 166 80 80 435 521 435 435> 344 88 393 80<285.5 353.5> 649 20G<80 166 166 166> 709 20G
VStem: 61 102 80 86<0 239 410 669> 336 102 435 86<0 264 264 271 0 302>
LayerCount: 2
Fore
SplineSet
321 473 m 0xb280
 447 473 521 389 521 271 c 2
 521 0 l 1
 435 0 l 1
 435 264 l 2
 435 340 395 393 312 393 c 0
 237 393 166 336 166 239 c 2
 166 0 l 1
 80 0 l 1
 80 669 l 1
 166 669 l 1
 166 410 l 1
 196 447 250 473 321 473 c 0xb280
EndSplineSet
EndChar

StartChar: uni04E8
Encoding: 1256 1256 191
Width: 772
GlyphClass: 1
Flags: MW
HStem: -13 84<321 450.5 321 482.5> 290 84<138 634 138 634> 593 84<321 450.5>
CounterMasks: 1 e0
LayerCount: 2
Fore
SplineSet
386 677 m 0
 579 677 727 531 727 332 c 0
 727 133 579 -13 386 -13 c 0
 193 -13 45 133 45 332 c 0
 45 531 193 677 386 677 c 0
386 593 m 0
 256 593 153 504 138 374 c 1
 634 374 l 1
 619 504 515 593 386 593 c 0
386 71 m 0
 515 71 619 159 634 290 c 1
 138 290 l 1
 153 159 256 71 386 71 c 0
EndSplineSet
EndChar

StartChar: uni04E9
Encoding: 1257 1257 192
Width: 582
GlyphClass: 1
Flags: MW
HStem: -13 80<251 330.5 251 360> 194 76<140 442 140 442 139 442> 393 80<252 330>
LayerCount: 2
Fore
SplineSet
291 473 m 0
 429 473 532 372 532 230 c 0
 532 89 429 -13 291 -13 c 0
 153 -13 50 89 50 230 c 0
 50 372 153 473 291 473 c 0
291 67 m 0
 370 67 430 118 442 194 c 1
 139 194 l 1
 152 118 211 67 291 67 c 0
291 393 m 0
 213 393 154 344 140 270 c 1
 442 270 l 1
 428 344 369 393 291 393 c 0
EndSplineSet
EndChar

StartChar: Udotaccent
Encoding: 62590 62590 193
Width: 736
GlyphClass: 1
Flags: MW
HStem: -13 94 647 20G 734 134 754 100
VStem: 68 106 255 140 476 106
LayerCount: 2
Fore
SplineSet
80 275 m 2x10
 80 664 l 1
 170 664 l 1
 170 275 l 2
 170 140 246 71 368 71 c 0
 490 71 566 140 566 275 c 2
 566 664 l 1
 656 664 l 1
 656 275 l 2
 656 90 542 -13 368 -13 c 0
 194 -13 80 90 80 275 c 2x10
EndSplineSet
EndChar

StartChar: udotaccent
Encoding: 62591 62591 194
Width: 585
GlyphClass: 1
Flags: MW
HStem: -13 80<235.5 301.5> -13 88 0 67 401 20G 440 20G<70 156 156 156 419 505 505 505> 485 130 565 104
VStem: 44 102 70 86<189 196 196 460> 164 135 317 102 419 86<0 50 50 50 221 460 0 460>
LayerCount: 2
Fore
SplineSet
267 -13 m 0x02
 143 -13 70 71 70 189 c 2
 70 460 l 1
 156 460 l 1
 156 196 l 2
 156 120 195 67 276 67 c 0
 349 67 419 124 419 221 c 2
 419 460 l 1
 505 460 l 1
 505 0 l 1
 419 0 l 1x8890
 419 50 l 1
 389 13 336 -13 267 -13 c 0x02
EndSplineSet
EndChar

StartChar: Sacute
Encoding: 346 346 196
Width: 614
GlyphClass: 1
Flags: MW
HStem: -13 84<269 363.5 269 400> 593 84<244 339> 725 21G 871 20G
VStem: 43 90<451.5 512 451.5 536.5> 486 90<150 213.5>
LayerCount: 2
Fore
SplineSet
25 165 m 1
 123 165 l 1
 153 108 225 71 313 71 c 0
 414 71 486 118 486 182 c 0
 486 245 440 277 345 287 c 2
 229 299 l 2
 98 313 43 384 43 478 c 0
 43 595 141 677 299 677 c 0
 462 677 551 580 579 499 c 1
 481 499 l 1
 455 554 382 593 296 593 c 0
 192 593 133 542 133 482 c 0
 133 421 178 389 256 381 c 2
 381 368 l 2
 503 355 576 285 576 187 c 0
 576 88 487 -13 313 -13 c 0
 138 -13 55 79 25 165 c 1
EndSplineSet
EndChar

StartChar: Tcaron
Encoding: 356 356 197
Width: 600
GlyphClass: 1
Flags: MW
HStem: 0 21G<255 345 255 255> 580 84<25 255 25 575 345 575 345 345> 725 21G 871 20G
VStem: 255 90<0 580 0 580>
LayerCount: 2
Fore
SplineSet
25 664 m 1
 575 664 l 1
 575 580 l 1
 345 580 l 1
 345 0 l 1
 255 0 l 1
 255 580 l 1
 25 580 l 1
 25 664 l 1
EndSplineSet
EndChar

StartChar: Zacute
Encoding: 377 377 198
Width: 638
GlyphClass: 1
Flags: MW
HStem: 0 84<162 583 162 583> 580 84<55 476 55 583> 725 21G 871 20G
LayerCount: 2
Fore
SplineSet
583 664 m 1
 583 577 l 1
 162 84 l 1
 583 84 l 1
 583 0 l 1
 56 0 l 1
 56 86 l 1
 476 580 l 1
 55 580 l 1
 55 664 l 1
 583 664 l 1
EndSplineSet
EndChar

StartChar: sacute
Encoding: 347 347 199
Width: 520
GlyphClass: 1
Flags: MW
HStem: -12 114 359 113 533 21G 699 20G
VStem: 99 123 292 131
LayerCount: 2
Fore
SplineSet
485 330 m 1
 390 330 l 1
 369 374 321 393 252 393 c 0
 186 393 141 369 141 330 c 0
 141 291 175 277 236 272 c 2
 329 265 l 2
 425 257 480 214 480 131 c 0
 480 52 404 -13 276 -13 c 0
 141 -13 60 54 40 134 c 1
 135 134 l 1
 153 90 206 67 287 67 c 0
 347 67 394 91 394 129 c 0
 394 167 360 183 298 188 c 2
 202 196 l 2
 104 205 55 248 55 327 c 0
 55 408 131 472 253 472 c 0
 390 472 464 405 485 330 c 1
EndSplineSet
EndChar

StartChar: zacute
Encoding: 378 378 200
Width: 491
GlyphClass: 1
Flags: MW
HStem: 0 76<153 451 45 45> 384 76<45 337 45 446 45 446> 533 21G 699 20G
LayerCount: 2
Fore
SplineSet
451 0 m 1
 45 0 l 1
 45 76 l 1
 337 384 l 1
 45 384 l 1
 45 460 l 1
 446 460 l 1
 446 384 l 1
 153 76 l 1
 451 76 l 1
 451 0 l 1
EndSplineSet
EndChar

StartChar: Aogonek
Encoding: 260 260 201
Width: 681
GlyphClass: 1
Flags: MW
HStem: -204 73<592 681 637 681 637 681> 0 21G<0 93 0 0 585 585 681 681> 154 83<196 482 196 518 160 482> 644 20G<292 390 390 390>
VStem: 508 80<-109.5 -95>
LayerCount: 2
Fore
SplineSet
339 566 m 1
 196 237 l 1
 482 237 l 1
 339 566 l 1
585 0 m 1
 518 154 l 1
 160 154 l 1
 93 0 l 1
 0 0 l 1
 292 664 l 1
 390 664 l 1
 681 0 l 1
 644 -25 588 -66 588 -98 c 0
 588 -121 606 -131 637 -131 c 2
 681 -131 l 1
 681 -204 l 1
 633 -204 l 2
 551 -204 508 -174 508 -116 c 0
 508 -74 541 -35 585 0 c 1
EndSplineSet
EndChar

StartChar: Scedilla
Encoding: 350 350 202
Width: 614
GlyphClass: 1
Flags: MW
HStem: -184 21G<134 228 134 134> 593 84<244 339>
VStem: 43 90<451.5 512 451.5 536.5> 486 90<150 213.5>
LayerCount: 2
Fore
SplineSet
25 165 m 1
 123 165 l 1
 153 108 225 71 313 71 c 0
 414 71 486 118 486 182 c 0
 486 245 440 277 345 287 c 2
 229 299 l 2
 98 313 43 384 43 478 c 0
 43 595 141 677 299 677 c 0
 462 677 551 580 579 499 c 1
 481 499 l 1
 455 554 382 593 296 593 c 0
 192 593 133 542 133 482 c 0
 133 421 178 389 256 381 c 2
 381 368 l 2
 503 355 576 285 576 187 c 0
 576 97 503 7 361 -10 c 1
 228 -184 l 1
 134 -184 l 1
 267 -11 l 1
 123 3 52 87 25 165 c 1
EndSplineSet
EndChar

StartChar: Ohungarumlaut
Encoding: 336 336 203
Width: 772
GlyphClass: 1
Flags: MW
HStem: -13 84<314.5 457.5 314.5 482.5> 593 84<314.5 457.5> 725 21G 871 20G
VStem: 45 90<257 407 257 430> 637 90<257 407>
LayerCount: 2
Fore
SplineSet
386 677 m 0
 579 677 727 528 727 332 c 0
 727 136 579 -13 386 -13 c 0
 193 -13 45 136 45 332 c 0
 45 528 193 677 386 677 c 0
386 593 m 0
 243 593 135 482 135 332 c 0
 135 182 243 71 386 71 c 0
 529 71 637 182 637 332 c 0
 637 482 529 593 386 593 c 0
EndSplineSet
EndChar

StartChar: aogonek
Encoding: 261 261 204
Width: 554
GlyphClass: 1
Flags: MW
HStem: -204 73<395 484 440 484 440 484> -13 80<214 273.5> 214 75<216.5 398 253 398 253 398> 393 80<236.5 302>
VStem: 51 86<115 165 115 195.5> 311 80<-109.5 -95> 398 86<0 50 50 50 184 214 214 214 289 293>
LayerCount: 2
Fore
SplineSet
264 473 m 0
 394 473 484 408 484 293 c 2
 484 0 l 1
 447 -25 391 -66 391 -98 c 0
 391 -121 409 -131 440 -131 c 2
 484 -131 l 1
 484 -204 l 1
 436 -204 l 2
 354 -204 311 -174 311 -116 c 0
 311 -74 347 -35 398 0 c 1
 398 50 l 1
 362 11 309 -13 238 -13 c 0
 130 -13 51 37 51 140 c 0
 51 251 147 289 253 289 c 2
 398 289 l 1
 398 365 340 393 264 393 c 0
 209 393 154 370 136 326 c 1
 40 326 l 1
 67 421 158 473 264 473 c 0
398 184 m 2
 398 214 l 1
 252 214 l 2
 181 214 137 190 137 140 c 0
 137 90 181 67 247 67 c 0
 340 67 398 115 398 184 c 2
EndSplineSet
EndChar

StartChar: Lcaron
Encoding: 317 317 205
Width: 565
GlyphClass: 1
Flags: MW
HStem: 0 84<175 535 175 535> 0 96 468 21G<423 483 423 423> 644 20G<85 175 175 175 424 535 535 535> 647 20G
VStem: 55 106 85 90<84 664 84 664 84 664>
LayerCount: 2
Fore
SplineSet
483 468 m 1x30
 423 468 l 1
 480 563 l 1
 424 563 l 1
 424 664 l 1
 535 664 l 1
 535 553 l 1
 483 468 l 1x30
175 664 m 1x92
 175 84 l 1
 535 84 l 1
 535 0 l 1
 85 0 l 1
 85 664 l 1
 175 664 l 1x92
EndSplineSet
EndChar

StartChar: lcaron
Encoding: 318 318 206
Width: 390
GlyphClass: 1
Flags: MW
HStem: 0 21G<93 179 93 93> 2 21G 436 21G<262 325 262 262> 553 21G<279 332 279 279> 644 20G<279 390 390 390> 649 20G<93 179 179 179> 775 20G
VStem: 73 110 93 86<0 669 0 669>
LayerCount: 2
Fore
SplineSet
93 669 m 1x8480
 179 669 l 1
 179 0 l 1
 93 0 l 1
 93 669 l 1x8480
325 436 m 1x38
 262 436 l 1
 332 553 l 1
 279 553 l 1
 279 664 l 1
 390 664 l 1
 390 543 l 1
 325 436 l 1x38
EndSplineSet
EndChar

StartChar: zdotaccent
Encoding: 380 380 207
Width: 491
GlyphClass: 1
Flags: MW
HStem: 0 76<153 451 45 45> 384 76<45 337 45 446 45 446> 565 104
LayerCount: 2
Fore
SplineSet
451 0 m 1
 45 0 l 1
 45 76 l 1
 337 384 l 1
 45 384 l 1
 45 460 l 1
 446 460 l 1
 446 384 l 1
 153 76 l 1
 451 76 l 1
 451 0 l 1
EndSplineSet
EndChar

StartChar: Racute
Encoding: 340 340 208
Width: 663
GlyphClass: 1
Flags: MW
HStem: 0 21G<85 175 85 85 508 638 508 508> 274 84<175 197 175 398 326 398 326 326> 580 84<175 398 175 175> 725 21G 871 20G
VStem: 85 90<0 274 0 358 358 580> 530 90<432.5 505.5>
LayerCount: 2
Fore
SplineSet
620 469 m 0
 620 363 551 274 398 274 c 2
 326 274 l 1
 638 0 l 1
 508 0 l 1
 197 274 l 1
 175 274 l 1
 175 0 l 1
 85 0 l 1
 85 664 l 1
 398 664 l 2
 551 664 620 575 620 469 c 0
530 469 m 0
 530 542 479 580 398 580 c 2
 175 580 l 1
 175 358 l 1
 398 358 l 2
 479 358 530 396 530 469 c 0
EndSplineSet
EndChar

StartChar: Lacute
Encoding: 313 313 209
Width: 565
GlyphClass: 1
Flags: MW
HStem: 0 84<175 535 175 535> 644 20G<85 175 175 175> 725 21G 871 20G
VStem: 85 90<84 664 84 664 84 664>
LayerCount: 2
Fore
SplineSet
175 664 m 1
 175 84 l 1
 535 84 l 1
 535 0 l 1
 85 0 l 1
 85 664 l 1
 175 664 l 1
EndSplineSet
EndChar

StartChar: Cacute
Encoding: 262 262 210
Width: 715
GlyphClass: 1
Flags: MW
HStem: -13 84<314.5 428 314.5 453.5> 593 84<314.5 428> 725 21G 871 20G
VStem: 45 90<257 407 257 430>
LayerCount: 2
Fore
SplineSet
386 593 m 0
 243 593 135 482 135 332 c 0
 135 182 243 71 386 71 c 0
 470 71 532 108 573 165 c 1
 675 165 l 1
 622 59 521 -13 386 -13 c 0
 193 -13 45 136 45 332 c 0
 45 528 193 677 386 677 c 0
 521 677 622 605 675 499 c 1
 573 499 l 1
 532 556 470 593 386 593 c 0
EndSplineSet
EndChar

StartChar: Zdotaccent
Encoding: 379 379 211
Width: 638
GlyphClass: 1
Flags: MW
HStem: 0 84<162 583 162 583> 580 84<55 476 55 583> 754 100
LayerCount: 2
Fore
SplineSet
583 664 m 1
 583 577 l 1
 162 84 l 1
 583 84 l 1
 583 0 l 1
 56 0 l 1
 56 86 l 1
 476 580 l 1
 55 580 l 1
 55 664 l 1
 583 664 l 1
EndSplineSet
EndChar

StartChar: Ccedilla
Encoding: 199 199 212
Width: 715
GlyphClass: 1
Flags: MW
HStem: -184 21G<205 299 205 205> 593 84<314.5 428>
VStem: 45 90<257 407 257 430>
LayerCount: 2
Fore
SplineSet
386 593 m 0
 243 593 135 482 135 332 c 0
 135 182 243 71 386 71 c 0
 470 71 532 108 573 165 c 1
 675 165 l 1
 628 71 544 4 432 -10 c 1
 299 -184 l 1
 205 -184 l 1
 339 -10 l 1
 170 12 45 152 45 332 c 0
 45 528 193 677 386 677 c 0
 521 677 622 605 675 499 c 1
 573 499 l 1
 532 556 470 593 386 593 c 0
EndSplineSet
EndChar

StartChar: Ccaron
Encoding: 268 268 213
Width: 715
GlyphClass: 1
Flags: MW
HStem: -13 84<314.5 428 314.5 453.5> 593 84<314.5 428> 725 21G 871 20G
VStem: 45 90<257 407 257 430>
LayerCount: 2
Fore
SplineSet
386 593 m 0
 243 593 135 482 135 332 c 0
 135 182 243 71 386 71 c 0
 470 71 532 108 573 165 c 1
 675 165 l 1
 622 59 521 -13 386 -13 c 0
 193 -13 45 136 45 332 c 0
 45 528 193 677 386 677 c 0
 521 677 622 605 675 499 c 1
 573 499 l 1
 532 556 470 593 386 593 c 0
EndSplineSet
EndChar

StartChar: Eacute
Encoding: 201 201 214
Width: 600
GlyphClass: 1
Flags: MW
HStem: 0 84<175 535 175 535> 290 84<175 528 175 528> 580 84<175 535 175 175> 725 21G 871 20G
VStem: 85 90<84 290 374 580>
LayerCount: 2
Fore
SplineSet
535 580 m 1
 175 580 l 1
 175 374 l 1
 528 374 l 1
 528 290 l 1
 175 290 l 1
 175 84 l 1
 535 84 l 1
 535 0 l 1
 85 0 l 1
 85 664 l 1
 535 664 l 1
 535 580 l 1
EndSplineSet
EndChar

StartChar: Eogonek
Encoding: 280 280 215
Width: 600
GlyphClass: 1
Flags: MW
HStem: -204 73<446 535 491 535 491 535> 0 84<175 445 175 535> 290 84<175 528 175 528> 580 84<175 535 175 175>
VStem: 85 90<84 290 374 580> 362 80<-109.5 -95>
LayerCount: 2
Fore
SplineSet
445 0 m 1
 85 0 l 1
 85 664 l 1
 535 664 l 1
 535 580 l 1
 175 580 l 1
 175 374 l 1
 528 374 l 1
 528 290 l 1
 175 290 l 1
 175 84 l 1
 535 84 l 1
 535 0 l 1
 498 -25 442 -66 442 -98 c 0
 442 -121 460 -131 491 -131 c 2
 535 -131 l 1
 535 -204 l 1
 487 -204 l 2
 405 -204 362 -174 362 -116 c 0
 362 -74 398 -35 445 0 c 1
EndSplineSet
EndChar

StartChar: Edieresis
Encoding: 203 203 216
Width: 600
GlyphClass: 1
Flags: MW
HStem: 0 84<175 535 175 535> 290 84<175 528 175 528> 580 84<175 535 175 175> 744 100
VStem: 85 90<84 290 374 580>
LayerCount: 2
Fore
SplineSet
535 580 m 1
 175 580 l 1
 175 374 l 1
 528 374 l 1
 528 290 l 1
 175 290 l 1
 175 84 l 1
 535 84 l 1
 535 0 l 1
 85 0 l 1
 85 664 l 1
 535 664 l 1
 535 580 l 1
EndSplineSet
EndChar

StartChar: Ecaron
Encoding: 282 282 217
Width: 600
GlyphClass: 1
Flags: MW
HStem: 0 84<175 535 175 535> 290 84<175 528 175 528> 580 84<175 535 175 175> 725 21G 871 20G
VStem: 85 90<84 290 374 580>
LayerCount: 2
Fore
SplineSet
535 580 m 1
 175 580 l 1
 175 374 l 1
 528 374 l 1
 528 290 l 1
 175 290 l 1
 175 84 l 1
 535 84 l 1
 535 0 l 1
 85 0 l 1
 85 664 l 1
 535 664 l 1
 535 580 l 1
EndSplineSet
EndChar

StartChar: Iacute
Encoding: 205 205 218
Width: 260
GlyphClass: 1
Flags: MW
HStem: 0 21G<85 175 85 85> 644 20G<85 175 175 175> 725 21G 871 20G
VStem: 85 90<0 664 0 664>
LayerCount: 2
Fore
SplineSet
175 664 m 1
 175 0 l 1
 85 0 l 1
 85 664 l 1
 175 664 l 1
EndSplineSet
EndChar

StartChar: Icircumflex
Encoding: 206 206 219
Width: 260
GlyphClass: 1
Flags: MW
HStem: 0 21G<85 175 85 85> 644 20G<85 175 175 175> 725 21G 871 20G
VStem: 85 90<0 664 0 664>
LayerCount: 2
Fore
SplineSet
175 664 m 1
 175 0 l 1
 85 0 l 1
 85 664 l 1
 175 664 l 1
EndSplineSet
EndChar

StartChar: Dcaron
Encoding: 270 270 220
Width: 717
GlyphClass: 1
Flags: MW
HStem: 0 84<175 308> 580 84<175 308 308 314 175 175> 725 21G 871 20G
VStem: 85 90<84 580 84 664 84 664> 582 90<259 405>
LayerCount: 2
Fore
SplineSet
85 664 m 1
 308 664 l 2
 540 664 672 514 672 332 c 0
 672 150 540 0 308 0 c 2
 85 0 l 1
 85 664 l 1
582 332 m 0
 582 478 481 580 314 580 c 2
 175 580 l 1
 175 84 l 1
 314 84 l 2
 481 84 582 186 582 332 c 0
EndSplineSet
EndChar

StartChar: Dcroat
Encoding: 272 272 221
Width: 743
GlyphClass: 1
Flags: MW
HStem: 0 84<201 334> 290 84<20 111 20 111 201 421> 580 84<201 334 334 340 201 201>
VStem: 111 90<84 290 84 290 84 290 374 580> 608 90<259 405>
CounterMasks: 1 e0
LayerCount: 2
Fore
SplineSet
111 664 m 1
 334 664 l 2
 566 664 698 514 698 332 c 0
 698 150 566 0 334 0 c 2
 111 0 l 1
 111 290 l 1
 20 290 l 1
 20 374 l 1
 111 374 l 1
 111 664 l 1
608 332 m 0
 608 478 507 580 340 580 c 2
 201 580 l 1
 201 374 l 1
 421 374 l 1
 421 290 l 1
 201 290 l 1
 201 84 l 1
 340 84 l 2
 507 84 608 186 608 332 c 0
EndSplineSet
EndChar

StartChar: Nacute
Encoding: 323 323 222
Width: 766
GlyphClass: 1
Flags: MW
HStem: 0 21G<85 175 85 85 580 681 580 580> 644 20G<85 186 186 186 591 681 681 681> 725 21G 871 20G
VStem: 85 90<0 536 0 664> 591 90<128 664 0 664>
LayerCount: 2
Fore
SplineSet
591 664 m 1
 681 664 l 1
 681 0 l 1
 580 0 l 1
 175 536 l 1
 175 0 l 1
 85 0 l 1
 85 664 l 1
 186 664 l 1
 591 128 l 1
 591 664 l 1
EndSplineSet
EndChar

StartChar: Ncaron
Encoding: 327 327 223
Width: 766
GlyphClass: 1
Flags: MW
HStem: 0 21G<85 175 85 85 580 681 580 580> 644 20G<85 186 186 186 591 681 681 681> 725 21G 871 20G
VStem: 85 90<0 536 0 664> 591 90<128 664 0 664>
LayerCount: 2
Fore
SplineSet
591 664 m 1
 681 664 l 1
 681 0 l 1
 580 0 l 1
 175 536 l 1
 175 0 l 1
 85 0 l 1
 85 664 l 1
 186 664 l 1
 591 128 l 1
 591 664 l 1
EndSplineSet
EndChar

StartChar: Oacute
Encoding: 211 211 224
Width: 772
GlyphClass: 1
Flags: MW
HStem: -14 69 -13 84<314.5 457.5 314.5 482.5> 317 71 593 84<314.5 457.5> 597 68 725 21G 767 21G 876 20G
VStem: -582 81 -171 82 32 83 45 90<257 407 257 430> 637 90<257 407> 660 82
LayerCount: 2
Fore
SplineSet
386 677 m 0xb7e4
 579 677 727 528 727 332 c 0xafe8
 727 136 579 -13 386 -13 c 0x6fe4
 193 -13 45 136 45 332 c 0xafd4
 45 528 193 677 386 677 c 0xb7e4
386 593 m 0
 243 593 135 482 135 332 c 0xafd4
 135 182 243 71 386 71 c 0x6fe4
 529 71 637 182 637 332 c 0xafe8
 637 482 529 593 386 593 c 0
EndSplineSet
EndChar

StartChar: Ocircumflex
Encoding: 212 212 225
Width: 772
GlyphClass: 1
Flags: MW
HStem: -13 84<314.5 457.5 314.5 482.5> 593 84<314.5 457.5> 725 21G 871 20G
VStem: 45 90<257 407 257 430> 637 90<257 407>
LayerCount: 2
Fore
SplineSet
386 677 m 0
 579 677 727 528 727 332 c 0
 727 136 579 -13 386 -13 c 0
 193 -13 45 136 45 332 c 0
 45 528 193 677 386 677 c 0
386 593 m 0
 243 593 135 482 135 332 c 0
 135 182 243 71 386 71 c 0
 529 71 637 182 637 332 c 0
 637 482 529 593 386 593 c 0
EndSplineSet
EndChar

StartChar: Odieresis
Encoding: 214 214 226
Width: 772
GlyphClass: 1
Flags: MW
HStem: -13 84<314.5 457.5 314.5 482.5> 593 84<314.5 457.5> 744 100
VStem: 45 90<257 407 257 430> 637 90<257 407>
LayerCount: 2
Fore
SplineSet
386 677 m 0
 579 677 727 528 727 332 c 0
 727 136 579 -13 386 -13 c 0
 193 -13 45 136 45 332 c 0
 45 528 193 677 386 677 c 0
386 593 m 0
 243 593 135 482 135 332 c 0
 135 182 243 71 386 71 c 0
 529 71 637 182 637 332 c 0
 637 482 529 593 386 593 c 0
EndSplineSet
EndChar

StartChar: Rcaron
Encoding: 344 344 227
Width: 663
GlyphClass: 1
Flags: MW
HStem: 0 21G<85 175 85 85 508 638 508 508> 274 84<175 197 175 398 326 398 326 326> 580 84<175 398 175 175> 725 21G 871 20G
VStem: 85 90<0 274 0 358 358 580> 530 90<432.5 505.5>
LayerCount: 2
Fore
SplineSet
620 469 m 0
 620 363 551 274 398 274 c 2
 326 274 l 1
 638 0 l 1
 508 0 l 1
 197 274 l 1
 175 274 l 1
 175 0 l 1
 85 0 l 1
 85 664 l 1
 398 664 l 2
 551 664 620 575 620 469 c 0
530 469 m 0
 530 542 479 580 398 580 c 2
 175 580 l 1
 175 358 l 1
 398 358 l 2
 479 358 530 396 530 469 c 0
EndSplineSet
EndChar

StartChar: Uacute
Encoding: 218 218 228
Width: 736
GlyphClass: 1
Flags: MW
HStem: -13 84<307 429 307 455> 644 20G<80 170 170 170 566 656 656 656> 725 21G 871 20G
VStem: 80 90<275 664> 566 90<275 664>
LayerCount: 2
Fore
SplineSet
80 275 m 2
 80 664 l 1
 170 664 l 1
 170 275 l 2
 170 140 246 71 368 71 c 0
 490 71 566 140 566 275 c 2
 566 664 l 1
 656 664 l 1
 656 275 l 2
 656 90 542 -13 368 -13 c 0
 194 -13 80 90 80 275 c 2
EndSplineSet
EndChar

StartChar: Uhungarumlaut
Encoding: 368 368 229
Width: 736
GlyphClass: 1
Flags: MW
HStem: -13 84<307 429 307 455> 644 20G<80 170 170 170 566 656 656 656> 725 21G 871 20G
VStem: 80 90<275 664> 566 90<275 664>
LayerCount: 2
Fore
SplineSet
80 275 m 2
 80 664 l 1
 170 664 l 1
 170 275 l 2
 170 140 246 71 368 71 c 0
 490 71 566 140 566 275 c 2
 566 664 l 1
 656 664 l 1
 656 275 l 2
 656 90 542 -13 368 -13 c 0
 194 -13 80 90 80 275 c 2
EndSplineSet
EndChar

StartChar: Udieresis
Encoding: 220 220 230
Width: 736
GlyphClass: 1
Flags: MW
HStem: -13 84<307 429 307 455> 644 20G<80 170 170 170 566 656 656 656> 744 100
VStem: 80 90<275 664> 566 90<275 664>
LayerCount: 2
Fore
SplineSet
80 275 m 2
 80 664 l 1
 170 664 l 1
 170 275 l 2
 170 140 246 71 368 71 c 0
 490 71 566 140 566 275 c 2
 566 664 l 1
 656 664 l 1
 656 275 l 2
 656 90 542 -13 368 -13 c 0
 194 -13 80 90 80 275 c 2
EndSplineSet
EndChar

StartChar: Yacute
Encoding: 221 221 231
Width: 590
GlyphClass: 1
Flags: MW
HStem: 0 21G<250 340 250 250> 644 20G<0 99 99 99 494 590 590 590> 725 21G 871 20G
VStem: 250 90<0 247 0 247>
LayerCount: 2
Fore
SplineSet
296 331 m 1
 494 664 l 1
 590 664 l 1
 340 247 l 1
 340 0 l 1
 250 0 l 1
 250 247 l 1
 0 664 l 1
 99 664 l 1
 296 331 l 1
EndSplineSet
EndChar

StartChar: uni0162
Encoding: 354 354 232
Width: 600
GlyphClass: 1
Flags: MW
HStem: -184 21G<113 204 113 113> 580 84<25 255 25 575 345 575 345 345>
VStem: 255 90<0 580 0 580>
LayerCount: 2
Fore
SplineSet
25 664 m 1
 575 664 l 1
 575 580 l 1
 345 580 l 1
 345 0 l 1
 204 -184 l 1
 113 -184 l 1
 255 0 l 1
 255 580 l 1
 25 580 l 1
 25 664 l 1
EndSplineSet
EndChar

StartChar: tcaron
Encoding: 357 357 233
Width: 531
GlyphClass: 1
Flags: MW
HStem: 0 76<228.5 348 287 348 287 348> 384 76<30 115 30 115 201 348> 436 21G<403 466 403 403> 553 21G<420 473 420 420> 566 20G<115 201 201 201> 644 20G<420 531 531 531>
VStem: 115 86<142 158 158 384 460 586>
LayerCount: 2
Fore
SplineSet
115 586 m 1xca
 201 586 l 1
 201 460 l 1
 348 460 l 1
 348 384 l 1
 201 384 l 1
 201 158 l 2
 201 103 230 76 287 76 c 2
 348 76 l 1
 348 0 l 1
 286 0 l 2
 171 0 115 53 115 142 c 2
 115 384 l 1
 30 384 l 1
 30 460 l 1
 115 460 l 1
 115 586 l 1xca
466 436 m 1x34
 403 436 l 1
 473 553 l 1
 420 553 l 1
 420 664 l 1
 531 664 l 1
 531 543 l 1
 466 436 l 1x34
EndSplineSet
EndChar

StartChar: racute
Encoding: 341 341 234
Width: 395
GlyphClass: 1
Flags: MW
HStem: 0 21G<80 166 80 80> 382 82<277.5 355 328 355> 440 20G<80 166 166 166> 533 21G 699 20G
VStem: 80 86<0 221 395 460>
LayerCount: 2
Fore
SplineSet
80 460 m 1xa4
 166 460 l 1xa4
 166 395 l 1
 191 431 244 464 328 464 c 2
 355 464 l 1
 355 382 l 1
 328 382 l 2xc4
 227 382 166 317 166 221 c 2
 166 0 l 1
 80 0 l 1
 80 460 l 1xa4
EndSplineSet
EndChar

StartChar: aacute
Encoding: 225 225 235
Width: 554
GlyphClass: 1
Flags: MW
HStem: -13 80<214 273.5> 0 67 214 75<216.5 398 253 398 253 398> 393 80<236.5 302> 533 21G 699 20G
VStem: 51 86<115 165 115 195.5> 398 86<0 50 50 50 184 214 214 214 289 293 0 327>
LayerCount: 2
Fore
SplineSet
264 473 m 0xb3
 394 473 484 408 484 293 c 2
 484 0 l 1
 398 0 l 1x73
 398 50 l 1
 362 11 309 -13 238 -13 c 0
 130 -13 51 37 51 140 c 0
 51 251 147 289 253 289 c 2
 398 289 l 1
 398 365 340 393 264 393 c 0
 209 393 154 370 136 326 c 1
 40 326 l 1
 67 421 158 473 264 473 c 0xb3
398 184 m 2
 398 214 l 1
 252 214 l 2
 181 214 137 190 137 140 c 0
 137 90 181 67 247 67 c 0
 340 67 398 115 398 184 c 2
EndSplineSet
EndChar

StartChar: acircumflex
Encoding: 226 226 236
Width: 554
GlyphClass: 1
Flags: MW
HStem: -13 80<214 273.5> 0 67 214 75<216.5 398 253 398 253 398> 393 80<236.5 302> 537 21G 701 20G
VStem: 51 86<115 165 115 195.5> 398 86<0 50 50 50 184 214 214 214 289 293 0 327>
LayerCount: 2
Fore
SplineSet
264 473 m 0xb3
 394 473 484 408 484 293 c 2
 484 0 l 1
 398 0 l 1x73
 398 50 l 1
 362 11 309 -13 238 -13 c 0
 130 -13 51 37 51 140 c 0
 51 251 147 289 253 289 c 2
 398 289 l 1
 398 365 340 393 264 393 c 0
 209 393 154 370 136 326 c 1
 40 326 l 1
 67 421 158 473 264 473 c 0xb3
398 184 m 2
 398 214 l 1
 252 214 l 2
 181 214 137 190 137 140 c 0
 137 90 181 67 247 67 c 0
 340 67 398 115 398 184 c 2
EndSplineSet
EndChar

StartChar: adieresis
Encoding: 228 228 237
Width: 554
GlyphClass: 1
Flags: MW
HStem: -13 80<214 273.5> 0 67 214 75<216.5 398 253 398 253 398> 393 80<236.5 302> 565 99
VStem: 51 86<115 165 115 195.5> 398 86<0 50 50 50 184 214 214 214 289 293 0 327>
LayerCount: 2
Fore
SplineSet
264 473 m 0xb6
 394 473 484 408 484 293 c 2
 484 0 l 1
 398 0 l 1x76
 398 50 l 1
 362 11 309 -13 238 -13 c 0
 130 -13 51 37 51 140 c 0
 51 251 147 289 253 289 c 2
 398 289 l 1
 398 365 340 393 264 393 c 0
 209 393 154 370 136 326 c 1
 40 326 l 1
 67 421 158 473 264 473 c 0xb6
398 184 m 2
 398 214 l 1
 252 214 l 2
 181 214 137 190 137 140 c 0
 137 90 181 67 247 67 c 0
 340 67 398 115 398 184 c 2
EndSplineSet
EndChar

StartChar: lacute
Encoding: 314 314 238
Width: 246
GlyphClass: 1
Flags: MW
HStem: 0 21G<80 166 80 80> 649 20G<80 166 166 166> 725 21G 871 20G
VStem: 80 86<0 669 0 669>
LayerCount: 2
Fore
SplineSet
80 669 m 1
 166 669 l 1
 166 0 l 1
 80 0 l 1
 80 669 l 1
EndSplineSet
EndChar

StartChar: cacute
Encoding: 263 263 239
Width: 552
GlyphClass: 1
Flags: MW
HStem: -13 80<245 317 245 341> 393 80<245 317> 533 21G 699 20G
VStem: 50 86<184.5 275.5 184.5 299.5>
LayerCount: 2
Fore
SplineSet
507 326 m 1
 412 326 l 1
 388 367 344 393 290 393 c 0
 200 393 136 321 136 230 c 0
 136 139 200 67 290 67 c 0
 344 67 388 93 412 134 c 1
 507 134 l 1
 474 45 392 -13 290 -13 c 0
 154 -13 50 91 50 230 c 0
 50 369 154 473 290 473 c 0
 392 473 474 415 507 326 c 1
EndSplineSet
EndChar

StartChar: ccedilla
Encoding: 231 231 240
Width: 552
GlyphClass: 1
Flags: MW
HStem: -184 21G<114 208 114 114> 393 80<245 317>
VStem: 50 86<184.5 275.5 184.5 299.5>
LayerCount: 2
Fore
SplineSet
507 326 m 1
 412 326 l 1
 388 367 344 393 290 393 c 0
 200 393 136 321 136 230 c 0
 136 139 200 67 290 67 c 0
 344 67 388 93 412 134 c 1
 507 134 l 1
 480 61 420 9 343 -7 c 1
 208 -184 l 1
 114 -184 l 1
 248 -10 l 1
 133 8 50 105 50 230 c 0
 50 369 154 473 290 473 c 0
 392 473 474 415 507 326 c 1
EndSplineSet
EndChar

StartChar: ccaron
Encoding: 269 269 241
Width: 552
GlyphClass: 1
Flags: MW
HStem: -13 80<245 317 245 341> 393 80<245 317> 537 21G 701 20G
VStem: 50 86<184.5 275.5 184.5 299.5>
LayerCount: 2
Fore
SplineSet
507 326 m 1
 412 326 l 1
 388 367 344 393 290 393 c 0
 200 393 136 321 136 230 c 0
 136 139 200 67 290 67 c 0
 344 67 388 93 412 134 c 1
 507 134 l 1
 474 45 392 -13 290 -13 c 0
 154 -13 50 91 50 230 c 0
 50 369 154 473 290 473 c 0
 392 473 474 415 507 326 c 1
EndSplineSet
EndChar

StartChar: eacute
Encoding: 233 233 242
Width: 562
GlyphClass: 1
Flags: MW
HStem: -13 80<251.5 318 251.5 341.5> 198 75<140 422 140 510 139 422> 393 80<246.5 323.5> 533 21G 699 20G
LayerCount: 2
Fore
SplineSet
291 67 m 0
 345 67 389 88 413 129 c 1
 506 129 l 1
 474 40 392 -13 291 -13 c 0
 152 -13 50 89 50 231 c 0
 50 369 147 473 286 473 c 0
 418 473 512 368 512 236 c 0
 512 225 512 211 510 198 c 1
 139 198 l 1
 149 123 212 67 291 67 c 0
286 393 m 0
 207 393 150 344 140 273 c 1
 422 273 l 1
 411 344 361 393 286 393 c 0
EndSplineSet
EndChar

StartChar: eogonek
Encoding: 281 281 243
Width: 562
GlyphClass: 1
Flags: MW
HStem: -204 73<300 389 345 389 345 389> -13 80 198 75<140 422 140 510 139 422> 393 80<246.5 323.5>
VStem: 216 80<-109.5 -97.5>
LayerCount: 2
Fore
SplineSet
291 67 m 0
 345 67 389 88 413 129 c 1
 506 129 l 1
 483 66 437 30 389 0 c 0
 351 -24 296 -66 296 -98 c 0
 296 -121 314 -131 345 -131 c 2
 389 -131 l 1
 389 -204 l 1
 341 -204 l 2
 259 -204 216 -174 216 -116 c 0
 216 -79 245 -44 285 -13 c 1
 149 -10 50 91 50 231 c 0
 50 369 147 473 286 473 c 0
 418 473 512 368 512 236 c 0
 512 225 512 211 510 198 c 1
 139 198 l 1
 149 123 212 67 291 67 c 0
286 393 m 0
 207 393 150 344 140 273 c 1
 422 273 l 1
 411 344 361 393 286 393 c 0
EndSplineSet
EndChar

StartChar: edieresis
Encoding: 235 235 244
Width: 562
GlyphClass: 1
Flags: MW
HStem: -13 80<251.5 318 251.5 341.5> 198 75<140 422 140 510 139 422> 393 80<246.5 323.5> 565 99
LayerCount: 2
Fore
SplineSet
291 67 m 0
 345 67 389 88 413 129 c 1
 506 129 l 1
 474 40 392 -13 291 -13 c 0
 152 -13 50 89 50 231 c 0
 50 369 147 473 286 473 c 0
 418 473 512 368 512 236 c 0
 512 225 512 211 510 198 c 1
 139 198 l 1
 149 123 212 67 291 67 c 0
286 393 m 0
 207 393 150 344 140 273 c 1
 422 273 l 1
 411 344 361 393 286 393 c 0
EndSplineSet
EndChar

StartChar: ecaron
Encoding: 283 283 245
Width: 562
GlyphClass: 1
Flags: MW
HStem: -13 80<251.5 318 251.5 341.5> 198 75<140 422 140 510 139 422> 393 80<246.5 323.5> 537 21G 701 20G
LayerCount: 2
Fore
SplineSet
291 67 m 0
 345 67 389 88 413 129 c 1
 506 129 l 1
 474 40 392 -13 291 -13 c 0
 152 -13 50 89 50 231 c 0
 50 369 147 473 286 473 c 0
 418 473 512 368 512 236 c 0
 512 225 512 211 510 198 c 1
 139 198 l 1
 149 123 212 67 291 67 c 0
286 393 m 0
 207 393 150 344 140 273 c 1
 422 273 l 1
 411 344 361 393 286 393 c 0
EndSplineSet
EndChar

StartChar: iacute
Encoding: 237 237 246
Width: 250
GlyphClass: 1
Flags: MW
HStem: 0 21G<84 170 84 84> 440 20G<84 170 170 170>
VStem: 84 86<0 460 0 460>
LayerCount: 2
Fore
SplineSet
84 460 m 1
 170 460 l 1
 170 0 l 1
 84 0 l 1
 84 460 l 1
EndSplineSet
EndChar

StartChar: icircumflex
Encoding: 238 238 247
Width: 250
GlyphClass: 1
Flags: MW
HStem: 0 21G<84 170 84 84> 440 20G<84 170 170 170>
VStem: 84 86<0 460 0 460>
LayerCount: 2
Fore
SplineSet
84 460 m 1
 170 460 l 1
 170 0 l 1
 84 0 l 1
 84 460 l 1
EndSplineSet
EndChar

StartChar: dcaron
Encoding: 271 271 248
Width: 735
GlyphClass: 1
Flags: MW
HStem: -14 96 -13 80<241.5 315.5> 0 82 375 96 393 80<241.5 315.5 207.5 326> 436 21G<607 670 607 607> 553 21G<624 677 624 624> 644 20G<624 735 735 735> 649 20G<438 524 524 524> 775 20G
VStem: 48 113 50 86<186 274 186 293.5> 421 111 438 86<0 50 50 50 410 669 0 669>
LayerCount: 2
Fore
SplineSet
438 669 m 1x92e4
 524 669 l 1
 524 0 l 1
 438 0 l 1x32e4
 438 50 l 1x92e4
 404 12 348 -13 283 -13 c 0x52e8
 132 -13 50 103 50 230 c 0x92d8
 50 357 132 473 283 473 c 0x8ae8
 348 473 404 448 438 410 c 1
 438 669 l 1x92e4
441 230 m 0
 441 339 366 393 286 393 c 0x8ae8
 197 393 136 318 136 230 c 0x92d8
 136 142 197 67 286 67 c 0x52e8
 366 67 441 121 441 230 c 0
670 436 m 1x8768
 607 436 l 1
 677 553 l 1
 624 553 l 1
 624 664 l 1
 735 664 l 1
 735 543 l 1
 670 436 l 1x8768
EndSplineSet
EndChar

StartChar: nacute
Encoding: 324 324 249
Width: 591
GlyphClass: 1
Flags: MW
HStem: 0 21G<80 166 80 80 435 521 435 435> 393 67 393 80<285.5 353.5> 533 21G 699 20G
VStem: 80 86<0 239 410 460> 435 86<0 264 264 271 0 302>
LayerCount: 2
Fore
SplineSet
321 473 m 0xa6
 447 473 521 389 521 271 c 2
 521 0 l 1
 435 0 l 1
 435 264 l 2
 435 340 395 393 312 393 c 0
 237 393 166 336 166 239 c 2
 166 0 l 1
 80 0 l 1
 80 460 l 1
 166 460 l 1xc6
 166 410 l 1
 196 447 250 473 321 473 c 0xa6
EndSplineSet
EndChar

StartChar: ncaron
Encoding: 328 328 250
Width: 591
GlyphClass: 1
Flags: MW
HStem: 0 21G<80 166 80 80 435 521 435 435> 393 67 393 80<285.5 353.5> 537 21G 701 20G
VStem: 80 86<0 239 410 460> 435 86<0 264 264 271 0 302>
LayerCount: 2
Fore
SplineSet
321 473 m 0xa6
 447 473 521 389 521 271 c 2
 521 0 l 1
 435 0 l 1
 435 264 l 2
 435 340 395 393 312 393 c 0
 237 393 166 336 166 239 c 2
 166 0 l 1
 80 0 l 1
 80 460 l 1
 166 460 l 1xc6
 166 410 l 1
 196 447 250 473 321 473 c 0xa6
EndSplineSet
EndChar

StartChar: oacute
Encoding: 243 243 251
Width: 582
GlyphClass: 1
Flags: MW
HStem: -13 80<245.5 336.5 245.5 360> 393 80<245.5 336.5> 533 21G 699 20G
VStem: 50 86<185 275.5 185 299.5> 446 86<185 275.5>
LayerCount: 2
Fore
SplineSet
291 473 m 0
 429 473 532 369 532 230 c 0
 532 92 429 -13 291 -13 c 0
 153 -13 50 92 50 230 c 0
 50 369 153 473 291 473 c 0
291 67 m 0
 382 67 446 140 446 230 c 0
 446 321 382 393 291 393 c 0
 200 393 136 321 136 230 c 0
 136 140 200 67 291 67 c 0
EndSplineSet
EndChar

StartChar: ocircumflex
Encoding: 244 244 252
Width: 582
GlyphClass: 1
Flags: MW
HStem: -13 80<245.5 336.5 245.5 360> 393 80<245.5 336.5> 537 21G 701 20G
VStem: 50 86<185 275.5 185 299.5> 446 86<185 275.5>
LayerCount: 2
Fore
SplineSet
291 473 m 0
 429 473 532 369 532 230 c 0
 532 92 429 -13 291 -13 c 0
 153 -13 50 92 50 230 c 0
 50 369 153 473 291 473 c 0
291 67 m 0
 382 67 446 140 446 230 c 0
 446 321 382 393 291 393 c 0
 200 393 136 321 136 230 c 0
 136 140 200 67 291 67 c 0
EndSplineSet
EndChar

StartChar: ohungarumlaut
Encoding: 337 337 253
Width: 582
GlyphClass: 1
Flags: MW
HStem: -13 80<245.5 336.5 245.5 360> 393 80<245.5 336.5> 533 21G 699 20G
VStem: 50 86<185 275.5 185 299.5> 446 86<185 275.5>
LayerCount: 2
Fore
SplineSet
291 473 m 0
 429 473 532 369 532 230 c 0
 532 92 429 -13 291 -13 c 0
 153 -13 50 92 50 230 c 0
 50 369 153 473 291 473 c 0
291 67 m 0
 382 67 446 140 446 230 c 0
 446 321 382 393 291 393 c 0
 200 393 136 321 136 230 c 0
 136 140 200 67 291 67 c 0
EndSplineSet
EndChar

StartChar: odieresis
Encoding: 246 246 254
Width: 582
GlyphClass: 1
Flags: MW
HStem: -13 80<245.5 336.5 245.5 360> 393 80<245.5 336.5> 565 99
VStem: 50 86<185 275.5 185 299.5> 446 86<185 275.5>
LayerCount: 2
Fore
SplineSet
291 473 m 0
 429 473 532 369 532 230 c 0
 532 92 429 -13 291 -13 c 0
 153 -13 50 92 50 230 c 0
 50 369 153 473 291 473 c 0
291 67 m 0
 382 67 446 140 446 230 c 0
 446 321 382 393 291 393 c 0
 200 393 136 321 136 230 c 0
 136 140 200 67 291 67 c 0
EndSplineSet
EndChar

StartChar: rcaron
Encoding: 345 345 255
Width: 395
GlyphClass: 1
Flags: MW
HStem: 0 21G<80 166 80 80> 382 82<277.5 355 328 355> 440 20G<80 166 166 166> 537 21G 701 20G
VStem: 80 86<0 221 395 460>
LayerCount: 2
Fore
SplineSet
80 460 m 1xa4
 166 460 l 1xa4
 166 395 l 1
 191 431 244 464 328 464 c 2
 355 464 l 1
 355 382 l 1
 328 382 l 2xc4
 227 382 166 317 166 221 c 2
 166 0 l 1
 80 0 l 1
 80 460 l 1xa4
EndSplineSet
EndChar

StartChar: uring
Encoding: 367 367 256
Width: 585
GlyphClass: 1
Flags: MW
HStem: -13 80<235.5 301.5> 0 67 440 20G<70 156 156 156 419 505 505 505> 520 70 720 70
VStem: 70 86<189 196 196 460> 157 70 357 70 419 86<0 50 50 50 221 460 0 460>
LayerCount: 2
Fore
SplineSet
267 -13 m 0xa480
 143 -13 70 71 70 189 c 2
 70 460 l 1
 156 460 l 1
 156 196 l 2
 156 120 195 67 276 67 c 0
 349 67 419 124 419 221 c 2
 419 460 l 1
 505 460 l 1
 505 0 l 1
 419 0 l 1x6480
 419 50 l 1
 389 13 336 -13 267 -13 c 0xa480
EndSplineSet
EndChar

StartChar: uacute
Encoding: 250 250 257
Width: 585
GlyphClass: 1
Flags: MW
HStem: -13 80<235.5 301.5> 0 67 440 20G<70 156 156 156 419 505 505 505> 533 21G 699 20G
VStem: 70 86<189 196 196 460> 419 86<0 50 50 50 221 460 0 460>
LayerCount: 2
Fore
SplineSet
267 -13 m 0xa6
 143 -13 70 71 70 189 c 2
 70 460 l 1
 156 460 l 1
 156 196 l 2
 156 120 195 67 276 67 c 0
 349 67 419 124 419 221 c 2
 419 460 l 1
 505 460 l 1
 505 0 l 1
 419 0 l 1x66
 419 50 l 1
 389 13 336 -13 267 -13 c 0xa6
EndSplineSet
EndChar

StartChar: uhungarumlaut
Encoding: 369 369 258
Width: 585
GlyphClass: 1
Flags: MW
HStem: -13 80<235.5 301.5> 0 67 440 20G<70 156 156 156 419 505 505 505> 533 21G 699 20G
VStem: 70 86<189 196 196 460> 419 86<0 50 50 50 221 460 0 460>
LayerCount: 2
Fore
SplineSet
267 -13 m 0xa6
 143 -13 70 71 70 189 c 2
 70 460 l 1
 156 460 l 1
 156 196 l 2
 156 120 195 67 276 67 c 0
 349 67 419 124 419 221 c 2
 419 460 l 1
 505 460 l 1
 505 0 l 1
 419 0 l 1x66
 419 50 l 1
 389 13 336 -13 267 -13 c 0xa6
EndSplineSet
EndChar

StartChar: dcroat
Encoding: 273 273 259
Width: 612
GlyphClass: 1
Flags: MW
HStem: -13 80<240.5 314.5> 0 67 393 80<240.5 314.5 206.5 325> 526 76<284 437 284 437 523 602> 649 20G<437 523 523 523>
VStem: 49 86<186 274 186 293.5> 437 86<0 50 50 50 410 526 0 526 602 669>
LayerCount: 2
Fore
SplineSet
437 669 m 1xbe
 523 669 l 1
 523 602 l 1
 602 602 l 1
 602 526 l 1
 523 526 l 1
 523 0 l 1
 437 0 l 1x7e
 437 50 l 1
 403 12 347 -13 282 -13 c 0
 131 -13 49 103 49 230 c 0
 49 357 131 473 282 473 c 0
 347 473 403 448 437 410 c 1
 437 526 l 1
 284 526 l 1
 284 602 l 1
 437 602 l 1
 437 669 l 1xbe
440 230 m 0
 440 339 365 393 285 393 c 0
 196 393 135 318 135 230 c 0
 135 142 196 67 285 67 c 0
 365 67 440 121 440 230 c 0
EndSplineSet
EndChar

StartChar: udieresis
Encoding: 252 252 260
Width: 585
GlyphClass: 1
Flags: MW
HStem: -13 80<235.5 301.5> 0 67 440 20G<70 156 156 156 419 505 505 505> 565 99
VStem: 70 86<189 196 196 460> 419 86<0 50 50 50 221 460 0 460>
LayerCount: 2
Fore
SplineSet
267 -13 m 0xac
 143 -13 70 71 70 189 c 2
 70 460 l 1
 156 460 l 1
 156 196 l 2
 156 120 195 67 276 67 c 0
 349 67 419 124 419 221 c 2
 419 460 l 1
 505 460 l 1
 505 0 l 1
 419 0 l 1x6c
 419 50 l 1
 389 13 336 -13 267 -13 c 0xac
EndSplineSet
EndChar

StartChar: yacute
Encoding: 253 253 261
Width: 516
GlyphClass: 1
Flags: MW
HStem: -204 76<65 93 93 109 65 93> 440 20G<10 107 107 107 421 513 513 513> 533 21G 699 20G
LayerCount: 2
Fore
SplineSet
216 6 m 1
 10 460 l 1
 107 460 l 1
 264 112 l 1
 421 460 l 1
 513 460 l 1
 293 -25 l 2
 230 -163 218 -204 109 -204 c 2
 65 -204 l 1
 65 -128 l 1
 93 -128 l 2
 146 -128 166 -109 197 -38 c 2
 216 6 l 1
EndSplineSet
EndChar

StartChar: uni0163
Encoding: 355 355 262
Width: 393
GlyphClass: 1
Flags: MW
HStem: -184 21G<72 166 72 72> 0 21G<307 348 307 307> 384 76<30 115 30 115 201 348> 566 20G<115 201 201 201>
VStem: 115 86<142 158 158 384 460 586>
LayerCount: 2
Fore
SplineSet
115 586 m 1
 201 586 l 1
 201 460 l 1
 348 460 l 1
 348 384 l 1
 201 384 l 1
 201 158 l 2
 201 103 230 76 287 76 c 2
 348 76 l 1
 348 0 l 1
 307 0 l 1
 166 -184 l 1
 72 -184 l 1
 221 7 l 1
 150 24 115 72 115 142 c 2
 115 384 l 1
 30 384 l 1
 30 460 l 1
 115 460 l 1
 115 586 l 1
EndSplineSet
EndChar

StartChar: Ntilde
Encoding: 209 209 263
Width: 766
GlyphClass: 1
Flags: MW
HStem: 0 21G<85 175 85 85 580 681 580 580> 644 20G<85 186 186 186 591 681 681 681> 726 75 815 75
VStem: 85 90<0 536 0 664> 191 72 504 72 591 90<128 664 0 664>
LayerCount: 2
Fore
SplineSet
591 664 m 1
 681 664 l 1
 681 0 l 1
 580 0 l 1
 175 536 l 1
 175 0 l 1
 85 0 l 1
 85 664 l 1
 186 664 l 1
 591 128 l 1
 591 664 l 1
EndSplineSet
EndChar

StartChar: agrave
Encoding: 224 224 264
Width: 554
GlyphClass: 1
Flags: MW
HStem: -13 80<214 273.5> 0 67 214 75<216.5 398 253 398 253 398> 393 80<236.5 302> 536 21G 702 20G
VStem: 51 86<115 165 115 195.5> 398 86<0 50 50 50 184 214 214 214 289 293 0 327>
LayerCount: 2
Fore
SplineSet
264 473 m 0xb3
 394 473 484 408 484 293 c 2
 484 0 l 1
 398 0 l 1x73
 398 50 l 1
 362 11 309 -13 238 -13 c 0
 130 -13 51 37 51 140 c 0
 51 251 147 289 253 289 c 2
 398 289 l 1
 398 365 340 393 264 393 c 0
 209 393 154 370 136 326 c 1
 40 326 l 1
 67 421 158 473 264 473 c 0xb3
398 184 m 2
 398 214 l 1
 252 214 l 2
 181 214 137 190 137 140 c 0
 137 90 181 67 247 67 c 0
 340 67 398 115 398 184 c 2
EndSplineSet
EndChar

StartChar: atilde
Encoding: 227 227 265
Width: 554
GlyphClass: 1
Flags: MW
HStem: -13 80<214 273.5> 0 67 214 75<216.5 398 253 398 253 398> 393 80<236.5 302>
VStem: 51 86<115 165 115 195.5> 398 86<0 50 50 50 184 214 214 214 289 293 0 327>
LayerCount: 2
Fore
SplineSet
264 473 m 0xbc
 394 473 484 408 484 293 c 2
 484 0 l 1
 398 0 l 1x7c
 398 50 l 1
 362 11 309 -13 238 -13 c 0
 130 -13 51 37 51 140 c 0
 51 251 147 289 253 289 c 2
 398 289 l 1
 398 365 340 393 264 393 c 0
 209 393 154 370 136 326 c 1
 40 326 l 1
 67 421 158 473 264 473 c 0xbc
398 184 m 2
 398 214 l 1
 252 214 l 2
 181 214 137 190 137 140 c 0
 137 90 181 67 247 67 c 0
 340 67 398 115 398 184 c 2
EndSplineSet
EndChar

StartChar: aring
Encoding: 229 229 266
Width: 554
GlyphClass: 1
Flags: MW
HStem: -13 80<214 273.5> 0 67 214 75<216.5 398 253 398 253 398> 393 80<236.5 302> 520 70 720 70
VStem: 51 86<115 165 115 195.5> 136 70 336 70 398 86<0 50 50 50 184 214 214 214 289 293 0 327>
LayerCount: 2
Fore
SplineSet
264 473 m 0xb240
 394 473 484 408 484 293 c 2
 484 0 l 1
 398 0 l 1x7240
 398 50 l 1
 362 11 309 -13 238 -13 c 0
 130 -13 51 37 51 140 c 0
 51 251 147 289 253 289 c 2
 398 289 l 1
 398 365 340 393 264 393 c 0
 209 393 154 370 136 326 c 1
 40 326 l 1
 67 421 158 473 264 473 c 0xb240
398 184 m 2
 398 214 l 1
 252 214 l 2
 181 214 137 190 137 140 c 0
 137 90 181 67 247 67 c 0
 340 67 398 115 398 184 c 2
EndSplineSet
EndChar

StartChar: egrave
Encoding: 232 232 267
Width: 562
GlyphClass: 1
Flags: MW
HStem: -13 80<251.5 318 251.5 341.5> 198 75<140 422 140 510 139 422> 393 80<246.5 323.5> 536 21G 702 20G
LayerCount: 2
Fore
SplineSet
291 67 m 0
 345 67 389 88 413 129 c 1
 506 129 l 1
 474 40 392 -13 291 -13 c 0
 152 -13 50 89 50 231 c 0
 50 369 147 473 286 473 c 0
 418 473 512 368 512 236 c 0
 512 225 512 211 510 198 c 1
 139 198 l 1
 149 123 212 67 291 67 c 0
286 393 m 0
 207 393 150 344 140 273 c 1
 422 273 l 1
 411 344 361 393 286 393 c 0
EndSplineSet
EndChar

StartChar: ecircumflex
Encoding: 234 234 268
Width: 562
GlyphClass: 1
Flags: MW
HStem: -13 80<251.5 318 251.5 341.5> 198 75<140 422 140 510 139 422> 393 80<246.5 323.5> 537 21G 701 20G
LayerCount: 2
Fore
SplineSet
291 67 m 0
 345 67 389 88 413 129 c 1
 506 129 l 1
 474 40 392 -13 291 -13 c 0
 152 -13 50 89 50 231 c 0
 50 369 147 473 286 473 c 0
 418 473 512 368 512 236 c 0
 512 225 512 211 510 198 c 1
 139 198 l 1
 149 123 212 67 291 67 c 0
286 393 m 0
 207 393 150 344 140 273 c 1
 422 273 l 1
 411 344 361 393 286 393 c 0
EndSplineSet
EndChar

StartChar: igrave
Encoding: 236 236 269
Width: 250
GlyphClass: 1
Flags: MW
HStem: 0 21G<84 170 84 84> 440 20G<84 170 170 170> 536 21G 702 20G
VStem: 84 86<0 460 0 460>
LayerCount: 2
Fore
SplineSet
84 460 m 1
 170 460 l 1
 170 0 l 1
 84 0 l 1
 84 460 l 1
EndSplineSet
EndChar

StartChar: idieresis
Encoding: 239 239 270
Width: 250
GlyphClass: 1
Flags: MW
HStem: 0 21G<84 170 84 84> 440 20G<84 170 170 170>
VStem: 84 86<0 460 0 460>
LayerCount: 2
Fore
SplineSet
84 460 m 1
 170 460 l 1
 170 0 l 1
 84 0 l 1
 84 460 l 1
EndSplineSet
EndChar

StartChar: ntilde
Encoding: 241 241 271
Width: 591
GlyphClass: 1
Flags: MW
HStem: 0 21G<80 166 80 80 435 521 435 435> 393 67 393 80<285.5 353.5>
VStem: 80 86<0 239 410 460> 435 86<0 264 264 271 0 302>
LayerCount: 2
Fore
SplineSet
321 473 m 0xb8
 447 473 521 389 521 271 c 2
 521 0 l 1
 435 0 l 1
 435 264 l 2
 435 340 395 393 312 393 c 0
 237 393 166 336 166 239 c 2
 166 0 l 1
 80 0 l 1
 80 460 l 1
 166 460 l 1xd8
 166 410 l 1
 196 447 250 473 321 473 c 0xb8
EndSplineSet
EndChar

StartChar: ograve
Encoding: 242 242 272
Width: 582
GlyphClass: 1
Flags: MW
HStem: -13 80<245.5 336.5 245.5 360> 393 80<245.5 336.5> 536 21G 702 20G
VStem: 50 86<185 275.5 185 299.5> 446 86<185 275.5>
LayerCount: 2
Fore
SplineSet
291 473 m 0
 429 473 532 369 532 230 c 0
 532 92 429 -13 291 -13 c 0
 153 -13 50 92 50 230 c 0
 50 369 153 473 291 473 c 0
291 67 m 0
 382 67 446 140 446 230 c 0
 446 321 382 393 291 393 c 0
 200 393 136 321 136 230 c 0
 136 140 200 67 291 67 c 0
EndSplineSet
EndChar

StartChar: otilde
Encoding: 245 245 273
Width: 582
GlyphClass: 1
Flags: MW
HStem: -13 80<245.5 336.5 245.5 360> 393 80<245.5 336.5>
VStem: 50 86<185 275.5 185 299.5> 446 86<185 275.5>
LayerCount: 2
Fore
SplineSet
291 473 m 0
 429 473 532 369 532 230 c 0
 532 92 429 -13 291 -13 c 0
 153 -13 50 92 50 230 c 0
 50 369 153 473 291 473 c 0
291 67 m 0
 382 67 446 140 446 230 c 0
 446 321 382 393 291 393 c 0
 200 393 136 321 136 230 c 0
 136 140 200 67 291 67 c 0
EndSplineSet
EndChar

StartChar: ugrave
Encoding: 249 249 274
Width: 585
GlyphClass: 1
Flags: MW
HStem: -13 80<235.5 301.5> 0 67 440 20G<70 156 156 156 419 505 505 505> 536 21G 702 20G
VStem: 70 86<189 196 196 460> 419 86<0 50 50 50 221 460 0 460>
LayerCount: 2
Fore
SplineSet
267 -13 m 0xa6
 143 -13 70 71 70 189 c 2
 70 460 l 1
 156 460 l 1
 156 196 l 2
 156 120 195 67 276 67 c 0
 349 67 419 124 419 221 c 2
 419 460 l 1
 505 460 l 1
 505 0 l 1
 419 0 l 1x66
 419 50 l 1
 389 13 336 -13 267 -13 c 0xa6
EndSplineSet
EndChar

StartChar: ucircumflex
Encoding: 251 251 275
Width: 585
GlyphClass: 1
Flags: MW
HStem: -13 80<235.5 301.5> 0 67 440 20G<70 156 156 156 419 505 505 505> 537 21G 701 20G
VStem: 70 86<189 196 196 460> 419 86<0 50 50 50 221 460 0 460>
LayerCount: 2
Fore
SplineSet
267 -13 m 0xa6
 143 -13 70 71 70 189 c 2
 70 460 l 1
 156 460 l 1
 156 196 l 2
 156 120 195 67 276 67 c 0
 349 67 419 124 419 221 c 2
 419 460 l 1
 505 460 l 1
 505 0 l 1
 419 0 l 1x66
 419 50 l 1
 389 13 336 -13 267 -13 c 0xa6
EndSplineSet
EndChar

StartChar: Otilde
Encoding: 213 213 276
Width: 772
GlyphClass: 1
Flags: MW
HStem: -13 84<314.5 457.5 314.5 482.5> 593 84<314.5 457.5> 726 75 815 75
VStem: 45 90<257 407 257 430> 194 72 507 72 637 90<257 407>
LayerCount: 2
Fore
SplineSet
386 677 m 0
 579 677 727 528 727 332 c 0
 727 136 579 -13 386 -13 c 0
 193 -13 45 136 45 332 c 0
 45 528 193 677 386 677 c 0
386 593 m 0
 243 593 135 482 135 332 c 0
 135 182 243 71 386 71 c 0
 529 71 637 182 637 332 c 0
 637 482 529 593 386 593 c 0
EndSplineSet
EndChar

StartChar: Ecircumflex
Encoding: 202 202 277
Width: 600
GlyphClass: 1
Flags: MW
HStem: 0 84<175 535 175 535> 290 84<175 528 175 528> 580 84<175 535 175 175> 725 21G 871 20G
VStem: 85 90<84 290 374 580>
LayerCount: 2
Fore
SplineSet
535 580 m 1
 175 580 l 1
 175 374 l 1
 528 374 l 1
 528 290 l 1
 175 290 l 1
 175 84 l 1
 535 84 l 1
 535 0 l 1
 85 0 l 1
 85 664 l 1
 535 664 l 1
 535 580 l 1
EndSplineSet
EndChar

StartChar: Egrave
Encoding: 200 200 278
Width: 600
GlyphClass: 1
Flags: MW
HStem: 0 84<175 535 175 535> 290 84<175 528 175 528> 580 84<175 535 175 175> 725 21G 871 20G
VStem: 85 90<84 290 374 580>
LayerCount: 2
Fore
SplineSet
535 580 m 1
 175 580 l 1
 175 374 l 1
 528 374 l 1
 528 290 l 1
 175 290 l 1
 175 84 l 1
 535 84 l 1
 535 0 l 1
 85 0 l 1
 85 664 l 1
 535 664 l 1
 535 580 l 1
EndSplineSet
EndChar

StartChar: Idieresis
Encoding: 207 207 279
Width: 260
GlyphClass: 1
Flags: MW
HStem: 0 21G<85 175 85 85> 644 20G<85 175 175 175> 744 100
VStem: 85 90<0 664 0 664>
LayerCount: 2
Fore
SplineSet
175 664 m 1
 175 0 l 1
 85 0 l 1
 85 664 l 1
 175 664 l 1
EndSplineSet
EndChar

StartChar: Igrave
Encoding: 204 204 280
Width: 260
GlyphClass: 1
Flags: MW
HStem: 0 21G<85 175 85 85> 644 20G<85 175 175 175> 725 21G 871 20G
VStem: 85 90<0 664 0 664>
LayerCount: 2
Fore
SplineSet
175 664 m 1
 175 0 l 1
 85 0 l 1
 85 664 l 1
 175 664 l 1
EndSplineSet
EndChar

StartChar: Ograve
Encoding: 210 210 281
Width: 772
GlyphClass: 1
Flags: MW
HStem: -13 84<314.5 457.5 314.5 482.5> 593 84<314.5 457.5> 725 21G 871 20G
VStem: 45 90<257 407 257 430> 637 90<257 407>
LayerCount: 2
Fore
SplineSet
386 677 m 0
 579 677 727 528 727 332 c 0
 727 136 579 -13 386 -13 c 0
 193 -13 45 136 45 332 c 0
 45 528 193 677 386 677 c 0
386 593 m 0
 243 593 135 482 135 332 c 0
 135 182 243 71 386 71 c 0
 529 71 637 182 637 332 c 0
 637 482 529 593 386 593 c 0
EndSplineSet
EndChar

StartChar: Ucircumflex
Encoding: 219 219 282
Width: 736
GlyphClass: 1
Flags: MW
HStem: -13 84<307 429 307 455> 644 20G<80 170 170 170 566 656 656 656> 725 21G 871 20G
VStem: 80 90<275 664> 566 90<275 664>
LayerCount: 2
Fore
SplineSet
80 275 m 2
 80 664 l 1
 170 664 l 1
 170 275 l 2
 170 140 246 71 368 71 c 0
 490 71 566 140 566 275 c 2
 566 664 l 1
 656 664 l 1
 656 275 l 2
 656 90 542 -13 368 -13 c 0
 194 -13 80 90 80 275 c 2
EndSplineSet
EndChar

StartChar: Ugrave
Encoding: 217 217 283
Width: 736
GlyphClass: 1
Flags: MW
HStem: -13 84<307 429 307 455> 644 20G<80 170 170 170 566 656 656 656> 725 21G 871 20G
VStem: 80 90<275 664> 566 90<275 664>
LayerCount: 2
Fore
SplineSet
80 275 m 2
 80 664 l 1
 170 664 l 1
 170 275 l 2
 170 140 246 71 368 71 c 0
 490 71 566 140 566 275 c 2
 566 664 l 1
 656 664 l 1
 656 275 l 2
 656 90 542 -13 368 -13 c 0
 194 -13 80 90 80 275 c 2
EndSplineSet
EndChar

StartChar: ydieresis
Encoding: 255 255 284
Width: 516
GlyphClass: 1
Flags: MW
HStem: -204 76<65 93 93 109 65 93> 440 20G<10 107 107 107 421 513 513 513> 565 99
LayerCount: 2
Fore
SplineSet
216 6 m 1
 10 460 l 1
 107 460 l 1
 264 112 l 1
 421 460 l 1
 513 460 l 1
 293 -25 l 2
 230 -163 218 -204 109 -204 c 2
 65 -204 l 1
 65 -128 l 1
 93 -128 l 2
 146 -128 166 -109 197 -38 c 2
 216 6 l 1
EndSplineSet
EndChar

StartChar: Ydieresis
Encoding: 376 376 285
Width: 590
GlyphClass: 1
Flags: MW
HStem: 0 21G<250 340 250 250> 644 20G<0 99 99 99 494 590 590 590>
VStem: 250 90<0 247 0 247>
LayerCount: 2
Fore
SplineSet
296 331 m 1
 494 664 l 1
 590 664 l 1
 340 247 l 1
 340 0 l 1
 250 0 l 1
 250 247 l 1
 0 664 l 1
 99 664 l 1
 296 331 l 1
EndSplineSet
EndChar

StartChar: Emacron
Encoding: 274 274 286
Width: 600
GlyphClass: 1
Flags: MW
HStem: 0 84<175 535 175 535> 290 84<175 528 175 528> 580 84<175 535 175 175> 744 73
VStem: 85 90<84 290 374 580>
LayerCount: 2
Fore
SplineSet
535 580 m 1
 175 580 l 1
 175 374 l 1
 528 374 l 1
 528 290 l 1
 175 290 l 1
 175 84 l 1
 535 84 l 1
 535 0 l 1
 85 0 l 1
 85 664 l 1
 535 664 l 1
 535 580 l 1
EndSplineSet
EndChar

StartChar: emacron
Encoding: 275 275 287
Width: 562
GlyphClass: 1
Flags: MW
HStem: -13 80<251.5 318 251.5 341.5> 198 75<140 422 140 510 139 422> 393 80<246.5 323.5> 565 73
LayerCount: 2
Fore
SplineSet
291 67 m 0
 345 67 389 88 413 129 c 1
 506 129 l 1
 474 40 392 -13 291 -13 c 0
 152 -13 50 89 50 231 c 0
 50 369 147 473 286 473 c 0
 418 473 512 368 512 236 c 0
 512 225 512 211 510 198 c 1
 139 198 l 1
 149 123 212 67 291 67 c 0
286 393 m 0
 207 393 150 344 140 273 c 1
 422 273 l 1
 411 344 361 393 286 393 c 0
EndSplineSet
EndChar

StartChar: Edotaccent
Encoding: 278 278 288
Width: 600
GlyphClass: 1
Flags: MW
HStem: 0 84<175 535 175 535> 290 84<175 528 175 528> 580 84<175 535 175 175> 754 100
VStem: 85 90<84 290 374 580>
LayerCount: 2
Fore
SplineSet
535 580 m 1
 175 580 l 1
 175 374 l 1
 528 374 l 1
 528 290 l 1
 175 290 l 1
 175 84 l 1
 535 84 l 1
 535 0 l 1
 85 0 l 1
 85 664 l 1
 535 664 l 1
 535 580 l 1
EndSplineSet
EndChar

StartChar: edotaccent
Encoding: 279 279 289
Width: 562
GlyphClass: 1
Flags: MW
HStem: -13 80<251.5 318 251.5 341.5> 198 75<140 422 140 510 139 422> 393 80<246.5 323.5> 565 104
LayerCount: 2
Fore
SplineSet
291 67 m 0
 345 67 389 88 413 129 c 1
 506 129 l 1
 474 40 392 -13 291 -13 c 0
 152 -13 50 89 50 231 c 0
 50 369 147 473 286 473 c 0
 418 473 512 368 512 236 c 0
 512 225 512 211 510 198 c 1
 139 198 l 1
 149 123 212 67 291 67 c 0
286 393 m 0
 207 393 150 344 140 273 c 1
 422 273 l 1
 411 344 361 393 286 393 c 0
EndSplineSet
EndChar

StartChar: uni0123
Encoding: 291 291 290
Width: 604
GlyphClass: 1
Flags: MW
HStem: -217 80<256.5 335.5 256.5 362.5> -13 80<241.5 315.5> 393 67 393 80<241.5 315.5 207.5 326> 526 20 701 21
VStem: 50 86<186 274 186 293.5> 438 86<24 50 50 50 410 460>
LayerCount: 2
Fore
SplineSet
438 460 m 1xe3
 524 460 l 1xe3
 524 22 l 2
 524 -123 437 -217 288 -217 c 0
 189 -217 98 -164 61 -69 c 1
 156 -69 l 1
 180 -112 225 -137 288 -137 c 0
 383 -137 438 -70 438 24 c 2
 438 50 l 1
 404 12 348 -13 283 -13 c 0
 132 -13 50 103 50 230 c 0
 50 357 132 473 283 473 c 0xd3
 348 473 404 448 438 410 c 1
 438 460 l 1xe3
441 230 m 0
 441 339 366 393 286 393 c 0
 197 393 136 318 136 230 c 0
 136 142 197 67 286 67 c 0
 366 67 441 121 441 230 c 0
EndSplineSet
EndChar

StartChar: uni0136
Encoding: 310 310 291
Width: 612
GlyphClass: 1
Flags: MW
HStem: -232 21G -56 20G 0 21G<85 175 85 85 487 607 487 487> 644 20G<85 175 175 175 487 607 607 607>
VStem: 85 90<0 287 377 664>
LayerCount: 2
Fore
SplineSet
252 332 m 1
 607 0 l 1
 487 0 l 1
 175 287 l 1
 175 0 l 1
 85 0 l 1
 85 664 l 1
 175 664 l 1
 175 377 l 1
 487 664 l 1
 607 664 l 1
 252 332 l 1
EndSplineSet
EndChar

StartChar: uni013B
Encoding: 315 315 292
Width: 565
GlyphClass: 1
Flags: MW
HStem: -232 21G -56 20G 0 84<175 535 175 535> 644 20G<85 175 175 175>
VStem: 85 90<84 664 84 664 84 664>
LayerCount: 2
Fore
SplineSet
175 664 m 1
 175 84 l 1
 535 84 l 1
 535 0 l 1
 85 0 l 1
 85 664 l 1
 175 664 l 1
EndSplineSet
EndChar

StartChar: uni013C
Encoding: 316 316 293
Width: 246
GlyphClass: 1
Flags: MW
HStem: -232 21G -56 20G 0 21G<80 166 80 80> 649 20G<80 166 166 166>
VStem: 80 86<0 669 0 669>
LayerCount: 2
Fore
SplineSet
80 669 m 1
 166 669 l 1
 166 0 l 1
 80 0 l 1
 80 669 l 1
EndSplineSet
EndChar

StartChar: uni0145
Encoding: 325 325 294
Width: 766
GlyphClass: 1
Flags: MW
HStem: -232 21G -56 20G 0 21G<85 175 85 85 580 681 580 580> 644 20G<85 186 186 186 591 681 681 681>
VStem: 85 90<0 536 0 664> 591 90<128 664 0 664>
LayerCount: 2
Fore
SplineSet
591 664 m 1
 681 664 l 1
 681 0 l 1
 580 0 l 1
 175 536 l 1
 175 0 l 1
 85 0 l 1
 85 664 l 1
 186 664 l 1
 591 128 l 1
 591 664 l 1
EndSplineSet
EndChar

StartChar: uni0146
Encoding: 326 326 295
Width: 591
GlyphClass: 1
Flags: MW
HStem: -232 21G -56 20G 0 21G<80 166 80 80 435 521 435 435> 393 67 393 80<285.5 353.5>
VStem: 80 86<0 239 410 460> 435 86<0 264 264 271 0 302>
LayerCount: 2
Fore
SplineSet
321 473 m 0x2e
 447 473 521 389 521 271 c 2
 521 0 l 1
 435 0 l 1
 435 264 l 2
 435 340 395 393 312 393 c 0
 237 393 166 336 166 239 c 2
 166 0 l 1
 80 0 l 1
 80 460 l 1
 166 460 l 1x36
 166 410 l 1
 196 447 250 473 321 473 c 0x2e
EndSplineSet
EndChar

StartChar: uni0157
Encoding: 343 343 296
Width: 395
GlyphClass: 1
Flags: MW
HStem: -232 21G -56 20G 0 21G<80 166 80 80> 382 82<277.5 355 328 355> 440 20G<80 166 166 166>
VStem: 80 86<0 221 395 460>
LayerCount: 2
Fore
SplineSet
80 460 m 1x2c
 166 460 l 1x2c
 166 395 l 1
 191 431 244 464 328 464 c 2
 355 464 l 1
 355 382 l 1
 328 382 l 2x34
 227 382 166 317 166 221 c 2
 166 0 l 1
 80 0 l 1
 80 460 l 1x2c
EndSplineSet
EndChar

StartChar: Umacron
Encoding: 362 362 297
Width: 736
GlyphClass: 1
Flags: MW
HStem: -13 84<307 429 307 455> 644 20G<80 170 170 170 566 656 656 656> 744 73
VStem: 80 90<275 664> 566 90<275 664>
LayerCount: 2
Fore
SplineSet
80 275 m 2
 80 664 l 1
 170 664 l 1
 170 275 l 2
 170 140 246 71 368 71 c 0
 490 71 566 140 566 275 c 2
 566 664 l 1
 656 664 l 1
 656 275 l 2
 656 90 542 -13 368 -13 c 0
 194 -13 80 90 80 275 c 2
EndSplineSet
EndChar

StartChar: Uring
Encoding: 366 366 298
Width: 736
GlyphClass: 1
Flags: MW
HStem: -13 84<307 429 307 455> 644 20G<80 170 170 170 566 656 656 656> 710 70 910 70
VStem: 80 90<275 664> 233 70 433 70 566 90<275 664>
LayerCount: 2
Fore
SplineSet
80 275 m 2
 80 664 l 1
 170 664 l 1
 170 275 l 2
 170 140 246 71 368 71 c 0
 490 71 566 140 566 275 c 2
 566 664 l 1
 656 664 l 1
 656 275 l 2
 656 90 542 -13 368 -13 c 0
 194 -13 80 90 80 275 c 2
EndSplineSet
EndChar

StartChar: umacron
Encoding: 363 363 299
Width: 585
GlyphClass: 1
Flags: MW
HStem: -13 80<235.5 301.5> 0 67 440 20G<70 156 156 156 419 505 505 505> 565 73
VStem: 70 86<189 196 196 460> 419 86<0 50 50 50 221 460 0 460>
LayerCount: 2
Fore
SplineSet
267 -13 m 0xac
 143 -13 70 71 70 189 c 2
 70 460 l 1
 156 460 l 1
 156 196 l 2
 156 120 195 67 276 67 c 0
 349 67 419 124 419 221 c 2
 419 460 l 1
 505 460 l 1
 505 0 l 1
 419 0 l 1x6c
 419 50 l 1
 389 13 336 -13 267 -13 c 0xac
EndSplineSet
EndChar

StartChar: Uogonek
Encoding: 370 370 300
Width: 736
GlyphClass: 1
Flags: MW
HStem: -204 73<407 496 452 496 452 496> -13 84<307 372> 644 20G<80 170 170 170 566 656 656 656>
VStem: 80 90<275 664> 323 80<-109.5 -97.5> 566 90<275 664>
LayerCount: 2
Fore
SplineSet
80 275 m 2
 80 664 l 1
 170 664 l 1
 170 275 l 2
 170 140 246 71 368 71 c 0
 490 71 566 140 566 275 c 2
 566 664 l 1
 656 664 l 1
 656 275 l 2
 656 128 595 65 496 0 c 0
 459 -25 403 -66 403 -98 c 0
 403 -121 421 -131 452 -131 c 2
 496 -131 l 1
 496 -204 l 1
 448 -204 l 2
 366 -204 323 -174 323 -116 c 0
 323 -79 353 -44 393 -12 c 1
 385 -13 376 -13 368 -13 c 0
 194 -13 80 90 80 275 c 2
EndSplineSet
EndChar

StartChar: uogonek
Encoding: 371 371 301
Width: 585
GlyphClass: 1
Flags: MW
HStem: -204 73<416 505 461 505 461 505> -13 80<235.5 301.5> 440 20G<70 156 156 156 419 505 505 505>
VStem: 70 86<189 196 196 460> 332 80<-109.5 -95> 419 86<0 50 50 50 221 460>
LayerCount: 2
Fore
SplineSet
267 -13 m 0
 143 -13 70 71 70 189 c 2
 70 460 l 1
 156 460 l 1
 156 196 l 2
 156 120 195 67 276 67 c 0
 349 67 419 124 419 221 c 2
 419 460 l 1
 505 460 l 1
 505 0 l 1
 468 -25 412 -66 412 -98 c 0
 412 -121 430 -131 461 -131 c 2
 505 -131 l 1
 505 -204 l 1
 457 -204 l 2
 375 -204 332 -174 332 -116 c 0
 332 -74 368 -35 419 0 c 1
 419 50 l 1
 389 13 336 -13 267 -13 c 0
EndSplineSet
EndChar

StartChar: uni0137
Encoding: 311 311 302
Width: 507
GlyphClass: 1
Flags: MW
HStem: -232 21G -56 20G 0 21G<80 166 80 80 387 502 387 387> 440 20G<387 502 502 502> 649 20G<80 166 166 166>
VStem: 80 86<0 189 259 669>
LayerCount: 2
Fore
SplineSet
80 669 m 1
 166 669 l 1
 166 259 l 1
 387 460 l 1
 502 460 l 1
 247 230 l 1
 502 0 l 1
 387 0 l 1
 166 189 l 1
 166 0 l 1
 80 0 l 1
 80 669 l 1
EndSplineSet
EndChar

StartChar: omacron
Encoding: 333 333 303
Width: 582
GlyphClass: 1
Flags: MW
HStem: -13 80<245.5 336.5 245.5 360> 393 80<245.5 336.5> 565 73
VStem: 50 86<185 275.5 185 299.5> 446 86<185 275.5>
LayerCount: 2
Fore
SplineSet
291 473 m 0
 429 473 532 369 532 230 c 0
 532 92 429 -13 291 -13 c 0
 153 -13 50 92 50 230 c 0
 50 369 153 473 291 473 c 0
291 67 m 0
 382 67 446 140 446 230 c 0
 446 321 382 393 291 393 c 0
 200 393 136 321 136 230 c 0
 136 140 200 67 291 67 c 0
EndSplineSet
EndChar

StartChar: Omacron
Encoding: 332 332 304
Width: 772
GlyphClass: 1
Flags: MW
HStem: -13 84<314.5 457.5 314.5 482.5> 593 84<314.5 457.5> 744 73
VStem: 45 90<257 407 257 430> 637 90<257 407>
LayerCount: 2
Fore
SplineSet
386 677 m 0
 579 677 727 528 727 332 c 0
 727 136 579 -13 386 -13 c 0
 193 -13 45 136 45 332 c 0
 45 528 193 677 386 677 c 0
386 593 m 0
 243 593 135 482 135 332 c 0
 135 182 243 71 386 71 c 0
 529 71 637 182 637 332 c 0
 637 482 529 593 386 593 c 0
EndSplineSet
EndChar

StartChar: Iogonek
Encoding: 302 302 305
Width: 260
GlyphClass: 1
Flags: MW
HStem: -204 73<86 175 131 175 131 175> 644 20G<85 175 175 175>
VStem: 2 80<-109.5 -95> 85 90<0 664>
LayerCount: 2
Fore
SplineSet
85 0 m 1
 85 664 l 1
 175 664 l 1
 175 0 l 1
 138 -25 82 -66 82 -98 c 0
 82 -121 100 -131 131 -131 c 2
 175 -131 l 1
 175 -204 l 1
 127 -204 l 2
 45 -204 2 -174 2 -116 c 0
 2 -74 38 -35 85 0 c 1
EndSplineSet
EndChar

StartChar: iogonek
Encoding: 303 303 306
Width: 250
GlyphClass: 1
Flags: MW
HStem: -204 73<79 168 124 168 124 168> 440 20G<82 168 168 168> 565 104<75 175 75 175>
VStem: -5 80<-109.5 -95> 82 86<0 460>
LayerCount: 2
Fore
SplineSet
82 0 m 1
 82 460 l 1
 168 460 l 1
 168 0 l 1
 131 -25 75 -66 75 -98 c 0
 75 -121 93 -131 124 -131 c 2
 168 -131 l 1
 168 -204 l 1
 120 -204 l 2
 38 -204 -5 -174 -5 -116 c 0
 -5 -74 33 -35 82 0 c 1
75 565 m 1
 75 669 l 1
 175 669 l 1
 175 565 l 1
 75 565 l 1
EndSplineSet
EndChar

StartChar: Imacron
Encoding: 298 298 307
Width: 260
GlyphClass: 1
Flags: MW
HStem: 0 21G<85 175 85 85> 644 20G<85 175 175 175> 744 73
VStem: 85 90<0 664 0 664>
LayerCount: 2
Fore
SplineSet
175 664 m 1
 175 0 l 1
 85 0 l 1
 85 664 l 1
 175 664 l 1
EndSplineSet
EndChar

StartChar: imacron
Encoding: 299 299 308
Width: 250
GlyphClass: 1
Flags: MW
HStem: 0 21G<84 170 84 84> 440 20G<84 170 170 170> 565 73
VStem: 84 86<0 460 0 460>
LayerCount: 2
Fore
SplineSet
84 460 m 1
 170 460 l 1
 170 0 l 1
 84 0 l 1
 84 460 l 1
EndSplineSet
EndChar

StartChar: uni0219
Encoding: 537 537 309
Width: 520
GlyphClass: 1
Flags: MW
HStem: -252 21G -76 20G -13 80<246.5 317 246.5 340> -12 114 359 113 393 79<219 286.5>
VStem: 55 86<310.5 349.5 310.5 367.5> 99 123 292 131 394 86<110 148>
LayerCount: 2
Fore
SplineSet
485 330 m 1x2640
 390 330 l 1
 369 374 321 393 252 393 c 0
 186 393 141 369 141 330 c 0
 141 291 175 277 236 272 c 2
 329 265 l 2
 425 257 480 214 480 131 c 0
 480 52 404 -13 276 -13 c 0
 141 -13 60 54 40 134 c 1
 135 134 l 1
 153 90 206 67 287 67 c 0
 347 67 394 91 394 129 c 0
 394 167 360 183 298 188 c 2
 202 196 l 2
 104 205 55 248 55 327 c 0
 55 408 131 472 253 472 c 0
 390 472 464 405 485 330 c 1x2640
EndSplineSet
EndChar

StartChar: uni0401
Encoding: 1025 1025 310
Width: 600
GlyphClass: 1
Flags: MW
HStem: 0 84<175 535 175 535> 290 84<175 528 175 528> 580 84<175 535 175 175> 744 100
VStem: 85 90<84 290 374 580>
LayerCount: 2
Fore
SplineSet
535 580 m 1
 175 580 l 1
 175 374 l 1
 528 374 l 1
 528 290 l 1
 175 290 l 1
 175 84 l 1
 535 84 l 1
 535 0 l 1
 85 0 l 1
 85 664 l 1
 535 664 l 1
 535 580 l 1
EndSplineSet
EndChar

StartChar: uni0405
Encoding: 1029 1029 311
Width: 614
GlyphClass: 1
Flags: MW
HStem: -13 84<269 363.5 269 400> 593 84<244 339>
VStem: 43 90<451.5 512 451.5 536.5> 486 90<150 213.5>
LayerCount: 2
Fore
SplineSet
25 165 m 1
 123 165 l 1
 153 108 225 71 313 71 c 0
 414 71 486 118 486 182 c 0
 486 245 440 277 345 287 c 2
 229 299 l 2
 98 313 43 384 43 478 c 0
 43 595 141 677 299 677 c 0
 462 677 551 580 579 499 c 1
 481 499 l 1
 455 554 382 593 296 593 c 0
 192 593 133 542 133 482 c 0
 133 421 178 389 256 381 c 2
 381 368 l 2
 503 355 576 285 576 187 c 0
 576 88 487 -13 313 -13 c 0
 138 -13 55 79 25 165 c 1
EndSplineSet
EndChar

StartChar: uni0408
Encoding: 1032 1032 312
Width: 407
GlyphClass: 1
Flags: MW
HStem: 0 84<5 133 5 133> 644 20G<237 327 327 327>
VStem: 237 90<180 664>
LayerCount: 2
Fore
SplineSet
237 664 m 1
 327 664 l 1
 327 180 l 2
 327 64 249 0 133 0 c 2
 5 0 l 1
 5 84 l 1
 133 84 l 2
 199 84 237 114 237 180 c 2
 237 664 l 1
EndSplineSet
EndChar

StartChar: uni0456
Encoding: 1110 1110 313
Width: 262
GlyphClass: 1
Flags: MW
HStem: 0 21G<85 171 85 85> 440 20G<85 171 171 171> 565 104<78 178 78 178>
VStem: 85 86<0 460 0 460>
LayerCount: 2
Fore
SplineSet
85 460 m 1
 171 460 l 1
 171 0 l 1
 85 0 l 1
 85 460 l 1
78 565 m 1
 78 669 l 1
 178 669 l 1
 178 565 l 1
 78 565 l 1
EndSplineSet
EndChar

StartChar: uni045B
Encoding: 1115 1115 314
Width: 600
GlyphClass: 1
Flags: MW
HStem: 0 116 119 21G 356 114 393 80<294.5 362.5> 483 97 526 76<10 89 10 89 175 328> 649 20G<89 175 175 175> 658 20G 683 20G 735 20G 758 20G 795 20G 865 82
VStem: 85 126 89 83 89 86<0 239 410 526 602 669> 370 129 444 86<0 264 264 271 0 302> 562 126
LayerCount: 2
Fore
SplineSet
330 473 m 0xd9fca0
 456 473 530 389 530 271 c 2
 530 0 l 1
 444 0 l 1
 444 264 l 2xe9fc60
 444 340 404 393 321 393 c 0xd9fca0
 246 393 175 336 175 239 c 2
 175 0 l 1xe9f9a0
 89 0 l 1
 89 526 l 1
 10 526 l 1
 10 602 l 1
 89 602 l 1xe5faa0
 89 669 l 1
 175 669 l 1xeaf9a0
 175 602 l 1
 328 602 l 1
 328 526 l 1
 175 526 l 1xe5f9a0
 175 410 l 1xe9f9a0
 205 447 259 473 330 473 c 0xd9fca0
EndSplineSet
EndChar

StartChar: eng
Encoding: 331 331 315
Width: 591
GlyphClass: 1
Flags: MW
HStem: -204 76<285 349 285 349> 0 21G<80 166 80 80> 393 67 393 80<285.5 353.5>
VStem: 80 86<0 239 410 460> 435 86<-25 264 264 271>
LayerCount: 2
Fore
SplineSet
321 473 m 0xdc
 447 473 521 389 521 271 c 2
 521 -25 l 2
 521 -145 469 -204 349 -204 c 2
 285 -204 l 1
 285 -128 l 1
 349 -128 l 2
 414 -128 435 -90 435 -25 c 2
 435 264 l 2
 435 340 395 393 312 393 c 0
 237 393 166 336 166 239 c 2
 166 0 l 1
 80 0 l 1
 80 460 l 1
 166 460 l 1xec
 166 410 l 1
 196 447 250 473 321 473 c 0xdc
EndSplineSet
EndChar

StartChar: Eng
Encoding: 330 330 316
Width: 766
GlyphClass: 1
Flags: MW
HStem: -203 84<359 487 359 487> 0 21G<85 175 85 85 591 591> 644 20G<85 186 186 186 591 681 681 681>
VStem: 85 90<0 536 0 664> 591 90<-23 0 0 0 138 664>
LayerCount: 2
Fore
SplineSet
591 664 m 1
 681 664 l 1
 681 -23 l 2
 681 -139 603 -203 487 -203 c 2
 359 -203 l 1
 359 -119 l 1
 487 -119 l 2
 553 -119 591 -89 591 -23 c 2
 591 0 l 1
 175 536 l 1
 175 0 l 1
 85 0 l 1
 85 664 l 1
 186 664 l 1
 591 138 l 1
 591 664 l 1
EndSplineSet
EndChar

StartChar: uni1E02
Encoding: 7682 7682 317
Width: 655
GlyphClass: 1
Flags: MW
HStem: 0 84<175 387 387 388> 290 84<175 387 175 387> 580 84<175 387 175 175> 754 100
VStem: 85 90<84 84 84 290 374 580> 510 90<153 206.5 129.5 221 457.5 511>
LayerCount: 2
Fore
SplineSet
513 332 m 1
 585 291 600 234 600 179 c 0
 600 80 533 0 388 0 c 2
 85 0 l 1
 85 664 l 1
 388 664 l 2
 533 664 600 584 600 485 c 0
 600 430 585 373 513 332 c 1
175 84 m 1
 387 84 l 2
 463 84 510 119 510 187 c 0
 510 255 463 290 387 290 c 2
 175 290 l 1
 175 84 l 1
175 374 m 1
 387 374 l 2
 463 374 510 409 510 477 c 0
 510 545 463 580 387 580 c 2
 175 580 l 1
 175 374 l 1
EndSplineSet
EndChar

StartChar: uni1E03
Encoding: 7683 7683 318
Width: 604
GlyphClass: 1
Flags: MW
HStem: -13 80<288.5 362.5 278 396.5> 0 67 393 80<288.5 362.5> 649 20G<80 166 166 166> 754 100
VStem: 80 86<0 50 410 669> 468 86<186 274>
LayerCount: 2
Fore
SplineSet
80 669 m 1x76
 166 669 l 1
 166 410 l 1
 200 448 256 473 321 473 c 0
 472 473 554 357 554 230 c 0
 554 103 472 -13 321 -13 c 0xb6
 256 -13 200 12 166 50 c 1
 166 0 l 1
 80 0 l 1
 80 669 l 1x76
163 230 m 0
 163 121 238 67 318 67 c 0
 407 67 468 142 468 230 c 0
 468 318 407 393 318 393 c 0
 238 393 163 339 163 230 c 0
EndSplineSet
EndChar

StartChar: Cdotaccent
Encoding: 266 266 319
Width: 715
GlyphClass: 1
Flags: MW
HStem: -13 84<314.5 428 314.5 453.5> 593 84<314.5 428> 754 100
VStem: 45 90<257 407 257 430>
LayerCount: 2
Fore
SplineSet
386 593 m 0
 243 593 135 482 135 332 c 0
 135 182 243 71 386 71 c 0
 470 71 532 108 573 165 c 1
 675 165 l 1
 622 59 521 -13 386 -13 c 0
 193 -13 45 136 45 332 c 0
 45 528 193 677 386 677 c 0
 521 677 622 605 675 499 c 1
 573 499 l 1
 532 556 470 593 386 593 c 0
EndSplineSet
EndChar

StartChar: cdotaccent
Encoding: 267 267 320
Width: 552
GlyphClass: 1
Flags: MW
HStem: -13 80<245 317 245 341> 393 80<245 317> 565 104
VStem: 50 86<184.5 275.5 184.5 299.5>
LayerCount: 2
Fore
SplineSet
507 326 m 1
 412 326 l 1
 388 367 344 393 290 393 c 0
 200 393 136 321 136 230 c 0
 136 139 200 67 290 67 c 0
 344 67 388 93 412 134 c 1
 507 134 l 1
 474 45 392 -13 290 -13 c 0
 154 -13 50 91 50 230 c 0
 50 369 154 473 290 473 c 0
 392 473 474 415 507 326 c 1
EndSplineSet
EndChar

StartChar: uni1E0A
Encoding: 7690 7690 321
Width: 717
GlyphClass: 1
Flags: MW
HStem: 0 84<175 308> 580 84<175 308 308 314 175 175> 754 100
VStem: 85 90<84 580 84 664 84 664> 582 90<259 405>
LayerCount: 2
Fore
SplineSet
85 664 m 1
 308 664 l 2
 540 664 672 514 672 332 c 0
 672 150 540 0 308 0 c 2
 85 0 l 1
 85 664 l 1
582 332 m 0
 582 478 481 580 314 580 c 2
 175 580 l 1
 175 84 l 1
 314 84 l 2
 481 84 582 186 582 332 c 0
EndSplineSet
EndChar

StartChar: Wgrave
Encoding: 7808 7808 322
Width: 1058
GlyphClass: 1
Flags: MW
HStem: 0 21G<238 343 238 238 717 822 717 717> 644 20G<10 107 107 107 476 581 581 581 952 1048 1048 1048> 725 21G 871 20G
LayerCount: 2
Fore
SplineSet
10 664 m 1
 107 664 l 1
 293 116 l 1
 476 664 l 1
 581 664 l 1
 768 117 l 1
 952 664 l 1
 1048 664 l 1
 822 0 l 1
 717 0 l 1
 528 558 l 1
 343 0 l 1
 238 0 l 1
 10 664 l 1
EndSplineSet
EndChar

StartChar: Wacute
Encoding: 7810 7810 323
Width: 1058
GlyphClass: 1
Flags: MW
HStem: 0 21G<238 343 238 238 717 822 717 717> 644 20G<10 107 107 107 476 581 581 581 952 1048 1048 1048> 725 21G 871 20G
LayerCount: 2
Fore
SplineSet
10 664 m 1
 107 664 l 1
 293 116 l 1
 476 664 l 1
 581 664 l 1
 768 117 l 1
 952 664 l 1
 1048 664 l 1
 822 0 l 1
 717 0 l 1
 528 558 l 1
 343 0 l 1
 238 0 l 1
 10 664 l 1
EndSplineSet
EndChar

StartChar: uni1E0B
Encoding: 7691 7691 324
Width: 604
GlyphClass: 1
Flags: MW
HStem: -13 80<241.5 315.5> 0 67 393 80<241.5 315.5 207.5 326> 649 20G<438 524 524 524> 754 100
VStem: 50 86<186 274 186 293.5> 438 86<0 50 50 50 410 669 0 669>
LayerCount: 2
Fore
SplineSet
438 669 m 1xb6
 524 669 l 1
 524 0 l 1
 438 0 l 1x76
 438 50 l 1
 404 12 348 -13 283 -13 c 0
 132 -13 50 103 50 230 c 0
 50 357 132 473 283 473 c 0
 348 473 404 448 438 410 c 1
 438 669 l 1xb6
441 230 m 0
 441 339 366 393 286 393 c 0
 197 393 136 318 136 230 c 0
 136 142 197 67 286 67 c 0
 366 67 441 121 441 230 c 0
EndSplineSet
EndChar

StartChar: Ygrave
Encoding: 7922 7922 325
Width: 590
GlyphClass: 1
Flags: MW
HStem: 0 21G<250 340 250 250> 644 20G<0 99 99 99 494 590 590 590> 725 21G 871 20G
VStem: 250 90<0 247 0 247>
LayerCount: 2
Fore
SplineSet
296 331 m 1
 494 664 l 1
 590 664 l 1
 340 247 l 1
 340 0 l 1
 250 0 l 1
 250 247 l 1
 0 664 l 1
 99 664 l 1
 296 331 l 1
EndSplineSet
EndChar

StartChar: uni1E1E
Encoding: 7710 7710 326
Width: 580
GlyphClass: 1
Flags: MW
HStem: 0 21G<85 175 85 85> 290 84<175 528 175 528> 580 84<175 535 175 175> 754 100
VStem: 85 90<0 290 374 580>
LayerCount: 2
Fore
SplineSet
535 580 m 1
 175 580 l 1
 175 374 l 1
 528 374 l 1
 528 290 l 1
 175 290 l 1
 175 0 l 1
 85 0 l 1
 85 664 l 1
 535 664 l 1
 535 580 l 1
EndSplineSet
EndChar

StartChar: uni1E1F
Encoding: 7711 7711 327
Width: 353
GlyphClass: 1
Flags: MW
HStem: 0 21G<100 186 100 100> 384 76<15 100 15 100 186 333> 593 76<244.5 333 273 333> 754 100
VStem: 100 86<0 384 460 514>
LayerCount: 2
Fore
SplineSet
186 0 m 1
 100 0 l 1
 100 384 l 1
 15 384 l 1
 15 460 l 1
 100 460 l 1
 100 524 l 2
 100 608 159 669 273 669 c 2
 333 669 l 1
 333 593 l 1
 273 593 l 2
 216 593 186 560 186 514 c 2
 186 460 l 1
 333 460 l 1
 333 384 l 1
 186 384 l 1
 186 0 l 1
EndSplineSet
EndChar

StartChar: Gdotaccent
Encoding: 288 288 328
Width: 753
GlyphClass: 1
Flags: MW
HStem: -13 84<314.5 447.5 314.5 477> 261 84<373 612 373 708> 593 84<314.5 427> 754 100
VStem: 45 90<257 407 257 430>
LayerCount: 2
Fore
SplineSet
386 593 m 0
 243 593 135 482 135 332 c 0
 135 182 242 71 387 71 c 0
 508 71 588 149 612 261 c 1
 373 261 l 1
 373 345 l 1
 708 345 l 1
 708 130 564 -13 390 -13 c 0
 195 -13 45 136 45 332 c 0
 45 528 193 677 386 677 c 0
 519 677 626 604 680 499 c 1
 577 499 l 1
 537 555 468 593 386 593 c 0
EndSplineSet
EndChar

StartChar: gdotaccent
Encoding: 289 289 329
Width: 602
GlyphClass: 1
Flags: MW
HStem: -217 80<254.5 333.5 254.5 360.5> -13 80<239.5 313.5> 393 67 393 80<239.5 313.5 205.5 324> 565 104
VStem: 48 86<186 274 186 293.5> 436 86<24 50 50 50 410 460>
LayerCount: 2
Fore
SplineSet
436 460 m 1xe6
 522 460 l 1xe6
 522 22 l 2
 522 -123 435 -217 286 -217 c 0
 187 -217 96 -164 59 -69 c 1
 154 -69 l 1
 178 -112 223 -137 286 -137 c 0
 381 -137 436 -70 436 24 c 2
 436 50 l 1
 402 12 346 -13 281 -13 c 0
 130 -13 48 103 48 230 c 0
 48 357 130 473 281 473 c 0xd6
 346 473 402 448 436 410 c 1
 436 460 l 1xe6
439 230 m 0
 439 339 364 393 284 393 c 0
 195 393 134 318 134 230 c 0
 134 142 195 67 284 67 c 0
 364 67 439 121 439 230 c 0
EndSplineSet
EndChar

StartChar: uni1E40
Encoding: 7744 7744 330
Width: 960
GlyphClass: 1
Flags: MW
HStem: 0 21G<85 175 85 85 480 480 785 785 785 875> 644 20G<85 199 199 199 765 875 875 875> 754 100
VStem: 85 90<0 531 0 664> 785 90<0 531 531 531>
LayerCount: 2
Fore
SplineSet
785 531 m 1
 480 0 l 1
 175 531 l 1
 175 0 l 1
 85 0 l 1
 85 664 l 1
 199 664 l 1
 482 168 l 1
 765 664 l 1
 875 664 l 1
 875 0 l 1
 785 0 l 1
 785 531 l 1
EndSplineSet
EndChar

StartChar: uni1E41
Encoding: 7745 7745 331
Width: 931
GlyphClass: 1
Flags: MW
HStem: 0 21G<80 166 80 80 427 513 427 427 775 861 775 775> 393 67 393 80<279.5 347.5 622.5 695.5> 565 104
VStem: 80 86<0 244 410 460> 427 86<0 241 0 268 0 305> 775 86<0 268 268 274 0 305>
LayerCount: 2
Fore
SplineSet
775 0 m 1xae
 775 268 l 2
 775 342 736 393 655 393 c 0
 583 393 513 338 513 241 c 2
 513 0 l 1
 427 0 l 1
 427 268 l 2
 427 342 388 393 307 393 c 0
 235 393 166 338 166 244 c 2
 166 0 l 1
 80 0 l 1
 80 460 l 1
 166 460 l 1xce
 166 410 l 1
 195 445 245 473 314 473 c 0
 393 473 452 439 485 387 c 1
 524 437 583 473 662 473 c 0
 787 473 861 390 861 274 c 2
 861 0 l 1
 775 0 l 1xae
EndSplineSet
EndChar

StartChar: uni1E56
Encoding: 7766 7766 332
Width: 660
GlyphClass: 1
Flags: MW
HStem: 0 21G<85 175 85 85> 274 84<175 398 175 398> 580 84<175 398 175 175> 754 100
VStem: 85 90<0 274 0 358 358 580> 530 90<432.5 505.5>
LayerCount: 2
Fore
SplineSet
620 469 m 0
 620 363 551 274 398 274 c 2
 175 274 l 1
 175 0 l 1
 85 0 l 1
 85 664 l 1
 398 664 l 2
 551 664 620 575 620 469 c 0
530 469 m 0
 530 542 479 580 398 580 c 2
 175 580 l 1
 175 358 l 1
 398 358 l 2
 479 358 530 396 530 469 c 0
EndSplineSet
EndChar

StartChar: wgrave
Encoding: 7809 7809 333
Width: 835
GlyphClass: 1
Flags: MW
HStem: 0 21G<192 285 192 192 549 643 549 549> 440 20G<20 112 112 112 374 466 466 466 728 815 815 815> 536 21G 702 20G
LayerCount: 2
Fore
SplineSet
20 460 m 1
 112 460 l 1
 243 110 l 1
 374 460 l 1
 466 460 l 1
 596 110 l 1
 728 460 l 1
 815 460 l 1
 643 0 l 1
 549 0 l 1
 417 350 l 1
 285 0 l 1
 192 0 l 1
 20 460 l 1
EndSplineSet
EndChar

StartChar: uni1E57
Encoding: 7767 7767 334
Width: 604
GlyphClass: 1
Flags: MW
HStem: -204 21G<80 166 80 80> -13 80<288.5 362.5 278 396.5> 393 67 393 80<288.5 362.5> 565 104
VStem: 80 86<-204 50 410 460> 468 86<186 274>
LayerCount: 2
Fore
SplineSet
166 -204 m 1xd6
 80 -204 l 1
 80 460 l 1
 166 460 l 1xe6
 166 410 l 1
 200 448 256 473 321 473 c 0
 472 473 554 357 554 230 c 0
 554 103 472 -13 321 -13 c 0
 256 -13 200 12 166 50 c 1
 166 -204 l 1xd6
163 230 m 0
 163 121 238 67 318 67 c 0
 407 67 468 142 468 230 c 0
 468 318 407 393 318 393 c 0
 238 393 163 339 163 230 c 0
EndSplineSet
EndChar

StartChar: wacute
Encoding: 7811 7811 335
Width: 835
GlyphClass: 1
Flags: MW
HStem: 0 21G<192 285 192 192 549 643 549 549> 440 20G<20 112 112 112 374 466 466 466 728 815 815 815> 533 21G 699 20G
LayerCount: 2
Fore
SplineSet
20 460 m 1
 112 460 l 1
 243 110 l 1
 374 460 l 1
 466 460 l 1
 596 110 l 1
 728 460 l 1
 815 460 l 1
 643 0 l 1
 549 0 l 1
 417 350 l 1
 285 0 l 1
 192 0 l 1
 20 460 l 1
EndSplineSet
EndChar

StartChar: uni1E60
Encoding: 7776 7776 336
Width: 614
GlyphClass: 1
Flags: MW
HStem: -13 84<269 363.5 269 400> 593 84<244 339> 754 100
VStem: 43 90<451.5 512 451.5 536.5> 486 90<150 213.5>
LayerCount: 2
Fore
SplineSet
25 165 m 1
 123 165 l 1
 153 108 225 71 313 71 c 0
 414 71 486 118 486 182 c 0
 486 245 440 277 345 287 c 2
 229 299 l 2
 98 313 43 384 43 478 c 0
 43 595 141 677 299 677 c 0
 462 677 551 580 579 499 c 1
 481 499 l 1
 455 554 382 593 296 593 c 0
 192 593 133 542 133 482 c 0
 133 421 178 389 256 381 c 2
 381 368 l 2
 503 355 576 285 576 187 c 0
 576 88 487 -13 313 -13 c 0
 138 -13 55 79 25 165 c 1
EndSplineSet
EndChar

StartChar: ygrave
Encoding: 7923 7923 337
Width: 516
GlyphClass: 1
Flags: MW
HStem: -204 76<65 93 93 109 65 93> 440 20G<10 107 107 107 421 513 513 513> 536 21G 702 20G
LayerCount: 2
Fore
SplineSet
216 6 m 1
 10 460 l 1
 107 460 l 1
 264 112 l 1
 421 460 l 1
 513 460 l 1
 293 -25 l 2
 230 -163 218 -204 109 -204 c 2
 65 -204 l 1
 65 -128 l 1
 93 -128 l 2
 146 -128 166 -109 197 -38 c 2
 216 6 l 1
EndSplineSet
EndChar

StartChar: Wdieresis
Encoding: 7812 7812 338
Width: 1058
GlyphClass: 1
Flags: MW
HStem: 0 21G<238 343 238 238 717 822 717 717> 644 20G<10 107 107 107 476 581 581 581 952 1048 1048 1048> 744 100
LayerCount: 2
Fore
SplineSet
10 664 m 1
 107 664 l 1
 293 116 l 1
 476 664 l 1
 581 664 l 1
 768 117 l 1
 952 664 l 1
 1048 664 l 1
 822 0 l 1
 717 0 l 1
 528 558 l 1
 343 0 l 1
 238 0 l 1
 10 664 l 1
EndSplineSet
EndChar

StartChar: wdieresis
Encoding: 7813 7813 339
Width: 835
GlyphClass: 1
Flags: MW
HStem: 0 21G<192 285 192 192 549 643 549 549> 440 20G<20 112 112 112 374 466 466 466 728 815 815 815> 565 99
LayerCount: 2
Fore
SplineSet
20 460 m 1
 112 460 l 1
 243 110 l 1
 374 460 l 1
 466 460 l 1
 596 110 l 1
 728 460 l 1
 815 460 l 1
 643 0 l 1
 549 0 l 1
 417 350 l 1
 285 0 l 1
 192 0 l 1
 20 460 l 1
EndSplineSet
EndChar

StartChar: uni1E61
Encoding: 7777 7777 340
Width: 520
GlyphClass: 1
Flags: MW
HStem: -12 114 359 113 565 104
VStem: 99 123 292 131
LayerCount: 2
Fore
SplineSet
485 330 m 1
 390 330 l 1
 369 374 321 393 252 393 c 0
 186 393 141 369 141 330 c 0
 141 291 175 277 236 272 c 2
 329 265 l 2
 425 257 480 214 480 131 c 0
 480 52 404 -13 276 -13 c 0
 141 -13 60 54 40 134 c 1
 135 134 l 1
 153 90 206 67 287 67 c 0
 347 67 394 91 394 129 c 0
 394 167 360 183 298 188 c 2
 202 196 l 2
 104 205 55 248 55 327 c 0
 55 408 131 472 253 472 c 0
 390 472 464 405 485 330 c 1
EndSplineSet
EndChar

StartChar: Ycircumflex
Encoding: 374 374 341
Width: 590
GlyphClass: 1
Flags: MW
HStem: 0 21G<250 340 250 250> 644 20G<0 99 99 99 494 590 590 590> 725 21G 871 20G
VStem: 250 90<0 247 0 247>
LayerCount: 2
Fore
SplineSet
296 331 m 1
 494 664 l 1
 590 664 l 1
 340 247 l 1
 340 0 l 1
 250 0 l 1
 250 247 l 1
 0 664 l 1
 99 664 l 1
 296 331 l 1
EndSplineSet
EndChar

StartChar: uni1E6B
Encoding: 7787 7787 342
Width: 393
GlyphClass: 1
Flags: MW
HStem: 0 76<228.5 348 287 348 287 348> 384 76<30 115 30 115 201 348> 566 20G<115 201 201 201> 684 104
VStem: 115 86<142 158 158 384 460 586>
LayerCount: 2
Fore
SplineSet
115 586 m 1
 201 586 l 1
 201 460 l 1
 348 460 l 1
 348 384 l 1
 201 384 l 1
 201 158 l 2
 201 103 230 76 287 76 c 2
 348 76 l 1
 348 0 l 1
 286 0 l 2
 171 0 115 53 115 142 c 2
 115 384 l 1
 30 384 l 1
 30 460 l 1
 115 460 l 1
 115 586 l 1
EndSplineSet
EndChar

StartChar: wcircumflex
Encoding: 373 373 343
Width: 835
GlyphClass: 1
Flags: MW
HStem: 0 21G<192 285 192 192 549 643 549 549> 440 20G<20 112 112 112 374 466 466 466 728 815 815 815> 537 21G 701 20G
LayerCount: 2
Fore
SplineSet
20 460 m 1
 112 460 l 1
 243 110 l 1
 374 460 l 1
 466 460 l 1
 596 110 l 1
 728 460 l 1
 815 460 l 1
 643 0 l 1
 549 0 l 1
 417 350 l 1
 285 0 l 1
 192 0 l 1
 20 460 l 1
EndSplineSet
EndChar

StartChar: Wcircumflex
Encoding: 372 372 344
Width: 1058
GlyphClass: 1
Flags: MW
HStem: 0 21G<238 343 238 238 717 822 717 717> 644 20G<10 107 107 107 476 581 581 581 952 1048 1048 1048> 725 21G 871 20G
LayerCount: 2
Fore
SplineSet
10 664 m 1
 107 664 l 1
 293 116 l 1
 476 664 l 1
 581 664 l 1
 768 117 l 1
 952 664 l 1
 1048 664 l 1
 822 0 l 1
 717 0 l 1
 528 558 l 1
 343 0 l 1
 238 0 l 1
 10 664 l 1
EndSplineSet
EndChar

StartChar: ycircumflex
Encoding: 375 375 345
Width: 516
GlyphClass: 1
Flags: MW
HStem: -204 76<65 93 93 109 65 93> 440 20G<10 107 107 107 421 513 513 513> 537 21G 701 20G
LayerCount: 2
Fore
SplineSet
216 6 m 1
 10 460 l 1
 107 460 l 1
 264 112 l 1
 421 460 l 1
 513 460 l 1
 293 -25 l 2
 230 -163 218 -204 109 -204 c 2
 65 -204 l 1
 65 -128 l 1
 93 -128 l 2
 146 -128 166 -109 197 -38 c 2
 216 6 l 1
EndSplineSet
EndChar

StartChar: uni1E6A
Encoding: 7786 7786 346
Width: 600
GlyphClass: 1
Flags: MW
HStem: 0 21G<255 345 255 255> 580 84<25 255 25 575 345 575 345 345> 754 100
VStem: 255 90<0 580 0 580>
LayerCount: 2
Fore
SplineSet
25 664 m 1
 575 664 l 1
 575 580 l 1
 345 580 l 1
 345 0 l 1
 255 0 l 1
 255 580 l 1
 25 580 l 1
 25 664 l 1
EndSplineSet
EndChar

StartChar: germandbls
Encoding: 223 223 347
Width: 585
GlyphClass: 1
Flags: MW
HStem: 0 76<281 307 281 307 307 328> 303 76<281 307 281 309> 602 80<262 340.5>
VStem: 80 86<0 447 0 523.5>
LayerCount: 2
Fore
SplineSet
301 602 m 0
 223 602 166 551 166 447 c 2
 166 0 l 1
 80 0 l 1
 80 447 l 2
 80 600 166 682 301 682 c 0
 434 682 512 596 512 494 c 0
 512 430 485 372 434 342 c 1
 485 314 520 248 520 190 c 0
 520 84 450 0 328 0 c 2
 281 0 l 1
 281 76 l 1
 307 76 l 2
 389 76 434 124 434 189 c 0
 434 254 388 303 307 303 c 2
 281 303 l 1
 281 379 l 1
 309 379 l 2
 389 379 427 424 427 490 c 0
 427 551 380 602 301 602 c 0
EndSplineSet
EndChar

StartChar: Tbar
Encoding: 358 358 348
Width: 600
GlyphClass: 1
Flags: MW
HStem: 0 21G<255 345 255 255> 290 84<85 255 85 255 345 515> 580 84<25 255 25 575 345 575 345 345>
VStem: 255 90<0 290 0 290 374 580>
LayerCount: 2
Fore
SplineSet
25 664 m 1
 575 664 l 1
 575 580 l 1
 345 580 l 1
 345 374 l 1
 515 374 l 1
 515 290 l 1
 345 290 l 1
 345 0 l 1
 255 0 l 1
 255 290 l 1
 85 290 l 1
 85 374 l 1
 255 374 l 1
 255 580 l 1
 25 580 l 1
 25 664 l 1
EndSplineSet
EndChar

StartChar: tbar
Encoding: 359 359 349
Width: 408
GlyphClass: 1
Flags: MW
HStem: 0 76<228.5 348 287 348 287 348> 232 76<30 115 30 115 201 348> 384 76<30 115 30 115 201 348> 566 20G<115 201 201 201>
VStem: 115 86<143 158 158 232 130.5 232 308 384 460 586>
LayerCount: 2
Fore
SplineSet
30 232 m 1
 30 308 l 1
 115 308 l 1
 115 384 l 1
 30 384 l 1
 30 460 l 1
 115 460 l 1
 115 586 l 1
 201 586 l 1
 201 460 l 1
 348 460 l 1
 348 384 l 1
 201 384 l 1
 201 308 l 1
 348 308 l 1
 348 232 l 1
 201 232 l 1
 201 158 l 2
 201 103 230 76 287 76 c 2
 348 76 l 1
 348 0 l 1
 286 0 l 2
 171 0 115 54 115 143 c 2
 115 232 l 1
 30 232 l 1
EndSplineSet
EndChar

StartChar: Itilde
Encoding: 296 296 350
Width: 260
GlyphClass: 1
Flags: MW
HStem: 0 21G<85 175 85 85> 644 20G<85 175 175 175> 726 75 815 75
VStem: -62 72 85 90<0 664 0 664> 251 72
LayerCount: 2
Fore
SplineSet
175 664 m 1
 175 0 l 1
 85 0 l 1
 85 664 l 1
 175 664 l 1
EndSplineSet
EndChar

StartChar: utilde
Encoding: 361 361 351
Width: 585
GlyphClass: 1
Flags: MW
HStem: -13 80<235.5 301.5> 0 67 440 20G<70 156 156 156 419 505 505 505>
VStem: 70 86<189 196 196 460> 419 86<0 50 50 50 221 460 0 460>
LayerCount: 2
Fore
SplineSet
267 -13 m 0xb8
 143 -13 70 71 70 189 c 2
 70 460 l 1
 156 460 l 1
 156 196 l 2
 156 120 195 67 276 67 c 0
 349 67 419 124 419 221 c 2
 419 460 l 1
 505 460 l 1
 505 0 l 1
 419 0 l 1x78
 419 50 l 1
 389 13 336 -13 267 -13 c 0xb8
EndSplineSet
EndChar

StartChar: Utilde
Encoding: 360 360 352
Width: 736
GlyphClass: 1
Flags: MW
HStem: -13 84<307 429 307 455> 644 20G<80 170 170 170 566 656 656 656> 726 75 815 75
VStem: 80 90<275 664> 176 72 489 72 566 90<275 664>
LayerCount: 2
Fore
SplineSet
80 275 m 2
 80 664 l 1
 170 664 l 1
 170 275 l 2
 170 140 246 71 368 71 c 0
 490 71 566 140 566 275 c 2
 566 664 l 1
 656 664 l 1
 656 275 l 2
 656 90 542 -13 368 -13 c 0
 194 -13 80 90 80 275 c 2
EndSplineSet
EndChar

StartChar: kgreenlandic
Encoding: 312 312 353
Width: 512
GlyphClass: 1
Flags: MW
HStem: 0 21G<80 166 80 80 387 502 387 387> 439 20G 440 20G<80 166 166 166 387 502 502 502> 758 20G
VStem: 68 126 80 86<0 189 259 460>
LayerCount: 2
Fore
SplineSet
80 460 m 1xa4
 166 460 l 1
 166 259 l 1
 387 460 l 1
 502 460 l 1
 247 230 l 1
 502 0 l 1
 387 0 l 1
 166 189 l 1
 166 0 l 1
 80 0 l 1
 80 460 l 1xa4
EndSplineSet
EndChar

StartChar: uni0156
Encoding: 342 342 354
Width: 663
GlyphClass: 1
Flags: MW
HStem: -232 21G -56 20G 0 21G<85 175 85 85 508 638 508 508> 274 84<175 197 175 398 326 398 326 326> 580 84<175 398 175 175>
VStem: 85 90<0 274 0 358 358 580> 530 90<432.5 505.5>
LayerCount: 2
Fore
SplineSet
620 469 m 0
 620 363 551 274 398 274 c 2
 326 274 l 1
 638 0 l 1
 508 0 l 1
 197 274 l 1
 175 274 l 1
 175 0 l 1
 85 0 l 1
 85 664 l 1
 398 664 l 2
 551 664 620 575 620 469 c 0
530 469 m 0
 530 542 479 580 398 580 c 2
 175 580 l 1
 175 358 l 1
 398 358 l 2
 479 358 530 396 530 469 c 0
EndSplineSet
EndChar

StartChar: itilde
Encoding: 297 297 355
Width: 250
GlyphClass: 1
Flags: MW
HStem: 0 21G<84 170 84 84> 440 20G<84 170 170 170>
VStem: 84 86<0 460 0 460>
LayerCount: 2
Fore
SplineSet
84 460 m 1
 170 460 l 1
 170 0 l 1
 84 0 l 1
 84 460 l 1
EndSplineSet
EndChar

StartChar: uni0218
Encoding: 536 536 356
Width: 614
GlyphClass: 1
Flags: MW
HStem: -252 21G -76 20G -13 84<269 363.5 269 400> 593 84<244 339>
VStem: 43 90<451.5 512 451.5 536.5> 486 90<150 213.5>
LayerCount: 2
Fore
SplineSet
25 165 m 1
 123 165 l 1
 153 108 225 71 313 71 c 0
 414 71 486 118 486 182 c 0
 486 245 440 277 345 287 c 2
 229 299 l 2
 98 313 43 384 43 478 c 0
 43 595 141 677 299 677 c 0
 462 677 551 580 579 499 c 1
 481 499 l 1
 455 554 382 593 296 593 c 0
 192 593 133 542 133 482 c 0
 133 421 178 389 256 381 c 2
 381 368 l 2
 503 355 576 285 576 187 c 0
 576 88 487 -13 313 -13 c 0
 138 -13 55 79 25 165 c 1
EndSplineSet
EndChar

StartChar: Ebreve
Encoding: 276 276 357
Width: 600
GlyphClass: 1
Flags: MW
HStem: 0 84<175 535 175 535> 290 84<175 528 175 528> 580 84<175 535 175 175> 725 76 871 20G
VStem: 85 90<84 290 374 580>
LayerCount: 2
Fore
SplineSet
535 580 m 1
 175 580 l 1
 175 374 l 1
 528 374 l 1
 528 290 l 1
 175 290 l 1
 175 84 l 1
 535 84 l 1
 535 0 l 1
 85 0 l 1
 85 664 l 1
 535 664 l 1
 535 580 l 1
EndSplineSet
EndChar

StartChar: ebreve
Encoding: 277 277 358
Width: 562
GlyphClass: 1
Flags: MW
HStem: -13 80<251.5 318 251.5 341.5> 198 75<140 422 140 510 139 422> 393 80<246.5 323.5> 537 75 701 20G
LayerCount: 2
Fore
SplineSet
291 67 m 0
 345 67 389 88 413 129 c 1
 506 129 l 1
 474 40 392 -13 291 -13 c 0
 152 -13 50 89 50 231 c 0
 50 369 147 473 286 473 c 0
 418 473 512 368 512 236 c 0
 512 225 512 211 510 198 c 1
 139 198 l 1
 149 123 212 67 291 67 c 0
286 393 m 0
 207 393 150 344 140 273 c 1
 422 273 l 1
 411 344 361 393 286 393 c 0
EndSplineSet
EndChar

StartChar: uni0122
Encoding: 290 290 359
Width: 753
GlyphClass: 1
Flags: MW
HStem: -252 21G -76 20G -13 84<314.5 447.5 314.5 477> 261 84<373 612 373 708> 593 84<314.5 427>
VStem: 45 90<257 407 257 430>
LayerCount: 2
Fore
SplineSet
386 593 m 0
 243 593 135 482 135 332 c 0
 135 182 242 71 387 71 c 0
 508 71 588 149 612 261 c 1
 373 261 l 1
 373 345 l 1
 708 345 l 1
 708 130 564 -13 390 -13 c 0
 195 -13 45 136 45 332 c 0
 45 528 193 677 386 677 c 0
 519 677 626 604 680 499 c 1
 577 499 l 1
 537 555 468 593 386 593 c 0
EndSplineSet
EndChar

StartChar: Hbar
Encoding: 294 294 360
Width: 758
GlyphClass: 1
Flags: MW
HStem: 0 21G<95 185 95 95 573 663 573 573> 290 84<185 573 185 573> 486 84<10 95 10 95 185 573 663 748> 644 20G<95 185 185 185 573 663 663 663>
VStem: 95 90<0 290 374 486 570 664> 573 90<0 290 290 290 374 486 570 664>
LayerCount: 2
Fore
SplineSet
663 0 m 1
 573 0 l 1
 573 290 l 1
 185 290 l 1
 185 0 l 1
 95 0 l 1
 95 486 l 1
 10 486 l 1
 10 570 l 1
 95 570 l 1
 95 664 l 1
 185 664 l 1
 185 570 l 1
 573 570 l 1
 573 664 l 1
 663 664 l 1
 663 570 l 1
 748 570 l 1
 748 486 l 1
 663 486 l 1
 663 0 l 1
185 374 m 1
 573 374 l 1
 573 486 l 1
 185 486 l 1
 185 374 l 1
EndSplineSet
EndChar

StartChar: hbar
Encoding: 295 295 361
Width: 600
GlyphClass: 1
Flags: MW
HStem: 0 21G<89 175 89 89 444 530 444 444> 393 80<294.5 362.5> 526 76<10 89 10 89 175 328> 649 20G<89 175 175 175>
VStem: 89 86<0 239 410 526 602 669> 444 86<0 264 264 271 0 302>
LayerCount: 2
Fore
SplineSet
330 473 m 0
 456 473 530 389 530 271 c 2
 530 0 l 1
 444 0 l 1
 444 264 l 2
 444 340 404 393 321 393 c 0
 246 393 175 336 175 239 c 2
 175 0 l 1
 89 0 l 1
 89 526 l 1
 10 526 l 1
 10 602 l 1
 89 602 l 1
 89 669 l 1
 175 669 l 1
 175 602 l 1
 328 602 l 1
 328 526 l 1
 175 526 l 1
 175 410 l 1
 205 447 259 473 330 473 c 0
EndSplineSet
EndChar

StartChar: Ibreve
Encoding: 300 300 362
Width: 260
GlyphClass: 1
Flags: MW
HStem: 0 21G<85 175 85 85> 644 20G<85 175 175 175> 725 76 871 20G
VStem: 85 90<0 664 0 664>
LayerCount: 2
Fore
SplineSet
175 664 m 1
 175 0 l 1
 85 0 l 1
 85 664 l 1
 175 664 l 1
EndSplineSet
EndChar

StartChar: ibreve
Encoding: 301 301 363
Width: 250
GlyphClass: 1
Flags: MW
HStem: 0 21G<84 170 84 84> 440 20G<84 170 170 170> 537 75 701 20G
VStem: 84 86<0 460 0 460>
LayerCount: 2
Fore
SplineSet
84 460 m 1
 170 460 l 1
 170 0 l 1
 84 0 l 1
 84 460 l 1
EndSplineSet
EndChar

StartChar: IJ
Encoding: 306 306 364
Width: 649
GlyphClass: 1
Flags: MW
HStem: 0 21G<80 170 80 80 242 242 242 370> 0 84<80 370 242 370 242 370> 644 20G<80 170 170 170 474 564 564 564>
VStem: 80 90<0 664 0 664> 474 90<180 664>
LayerCount: 2
Fore
SplineSet
170 664 m 1xb0
 170 0 l 1
 80 0 l 1
 80 664 l 1
 170 664 l 1xb0
474 664 m 1x68
 564 664 l 1
 564 180 l 2
 564 64 486 0 370 0 c 2
 242 0 l 1
 242 84 l 1
 370 84 l 2
 436 84 474 114 474 180 c 2
 474 664 l 1x68
EndSplineSet
EndChar

StartChar: ij
Encoding: 307 307 365
Width: 498
GlyphClass: 1
Flags: MW
HStem: -204 76<180 244 180 244> 0 21G<82 168 82 82> 440 20G<82 168 168 168 330 416 416 416> 565 104<75 175 75 175 323 423>
VStem: 82 86<0 460 0 460> 330 86<-25 460>
LayerCount: 2
Fore
SplineSet
82 460 m 1
 168 460 l 1
 168 0 l 1
 82 0 l 1
 82 460 l 1
75 565 m 1
 75 669 l 1
 175 669 l 1
 175 565 l 1
 75 565 l 1
330 460 m 1xb4
 416 460 l 1
 416 -25 l 2
 416 -145 364 -204 244 -204 c 2
 180 -204 l 1
 180 -128 l 1
 244 -128 l 2
 309 -128 330 -90 330 -25 c 2
 330 460 l 1xb4
323 565 m 1
 323 669 l 1
 423 669 l 1
 423 565 l 1
 323 565 l 1
EndSplineSet
EndChar

StartChar: Ldot
Encoding: 319 319 366
Width: 565
GlyphClass: 1
Flags: MW
HStem: 0 84<175 535 175 535> 644 20G<85 175 175 175>
VStem: 85 90<84 664 84 664 84 664>
LayerCount: 2
Fore
SplineSet
175 664 m 1
 175 84 l 1
 535 84 l 1
 535 0 l 1
 85 0 l 1
 85 664 l 1
 175 664 l 1
EndSplineSet
EndChar

StartChar: ldot
Encoding: 320 320 367
Width: 381
GlyphClass: 1
Flags: MW
HStem: 0 21G<80 166 80 80> 302 111<240 351 240 351> 649 20G<80 166 166 166>
VStem: 80 86<0 669 0 669>
LayerCount: 2
Fore
SplineSet
80 669 m 1
 166 669 l 1
 166 0 l 1
 80 0 l 1
 80 669 l 1
240 302 m 1x40
 240 413 l 1
 351 413 l 1
 351 302 l 1
 240 302 l 1x40
EndSplineSet
EndChar

StartChar: napostrophe
Encoding: 329 329 368
Width: 591
GlyphClass: 1
Flags: MW
HStem: 0 21G<80 166 80 80 435 521 435 435> 393 67 393 80<285.5 353.5>
VStem: 80 86<0 239 410 460> 435 86<0 264 264 271 0 302>
LayerCount: 2
Fore
SplineSet
321 473 m 0xb8
 447 473 521 389 521 271 c 2
 521 0 l 1
 435 0 l 1
 435 264 l 2
 435 340 395 393 312 393 c 0
 237 393 166 336 166 239 c 2
 166 0 l 1
 80 0 l 1
 80 460 l 1
 166 460 l 1xd8
 166 410 l 1
 196 447 250 473 321 473 c 0xb8
EndSplineSet
EndChar

StartChar: uni040E
Encoding: 1038 1038 369
Width: 597
GlyphClass: 1
Flags: MW
HStem: 0 84<110 160 160 176 110 160> 644 20G<20 114 114 114 504 597 597 597>
LayerCount: 2
Fore
SplineSet
320 275 m 1
 504 664 l 1
 597 664 l 1
 353 154 l 2
 297 37 270 0 176 0 c 2
 110 0 l 1
 110 84 l 1
 160 84 l 2
 207 84 235 96 261 157 c 2
 272 185 l 1
 20 664 l 1
 114 664 l 1
 320 275 l 1
EndSplineSet
EndChar

StartChar: uni0458
Encoding: 1112 1112 370
Width: 268
GlyphClass: 1
Flags: MW
HStem: -204 76<-50 14 -50 14> 440 20G<100 186 186 186> 565 104<93 193 93 193>
VStem: 100 86<-25 460>
LayerCount: 2
Fore
SplineSet
100 460 m 1
 186 460 l 1
 186 -25 l 2
 186 -145 134 -204 14 -204 c 2
 -50 -204 l 1
 -50 -128 l 1
 14 -128 l 2
 79 -128 100 -90 100 -25 c 2
 100 460 l 1
93 565 m 1
 93 669 l 1
 193 669 l 1
 193 565 l 1
 93 565 l 1
EndSplineSet
EndChar

StartChar: uni045E
Encoding: 1118 1118 371
Width: 516
GlyphClass: 1
Flags: MW
HStem: -204 76<65 93 93 109 65 93> 440 20G<10 107 107 107 421 513 513 513>
LayerCount: 2
Fore
SplineSet
216 6 m 1
 10 460 l 1
 107 460 l 1
 264 112 l 1
 421 460 l 1
 513 460 l 1
 293 -25 l 2
 230 -163 218 -204 109 -204 c 2
 65 -204 l 1
 65 -128 l 1
 93 -128 l 2
 146 -128 166 -109 197 -38 c 2
 216 6 l 1
EndSplineSet
EndChar

StartChar: uni018F
Encoding: 399 399 372
Width: 752
GlyphClass: 1
Flags: MW
HStem: -13 84<309 432.5 309 467.5> 286 84<138 614 138 138> 593 84<322.5 430.5>
LayerCount: 2
Fore
SplineSet
169 499 m 1
 70 499 l 1
 118 608 230 677 365 677 c 0
 567 677 707 525 707 332 c 0
 707 138 564 -13 371 -13 c 0
 176 -13 45 139 45 331 c 0
 45 341 45 354 46 370 c 1
 615 370 l 1
 600 499 496 593 365 593 c 0
 280 593 209 559 169 499 c 1
371 71 m 0
 494 71 596 161 614 286 c 1
 138 286 l 1
 155 160 247 71 371 71 c 0
EndSplineSet
EndChar

StartChar: uni0259
Encoding: 601 601 373
Width: 562
GlyphClass: 1
Flags: MW
HStem: -13 80<238.5 315.5 238.5 345.5> 187 75<140 422 140 140> 393 80<248 314.5>
LayerCount: 2
Fore
SplineSet
276 393 m 0
 220 393 174 372 150 331 c 1
 57 331 l 1
 89 420 173 473 276 473 c 0
 413 473 512 371 512 229 c 0
 512 91 415 -13 276 -13 c 0
 144 -13 50 92 50 224 c 0
 50 235 50 249 52 262 c 1
 423 262 l 1
 413 337 353 393 276 393 c 0
276 67 m 0
 355 67 412 116 422 187 c 1
 140 187 l 1
 151 116 201 67 276 67 c 0
EndSplineSet
EndChar

StartChar: AEacute
Encoding: 508 508 374
Width: 997
GlyphClass: 1
Flags: MW
HStem: 0 84<572 932 572 932> 154 83<263 482 263 482 205 482> 290 84<572 925 572 925> 580 84<572 932 572 572> 725 21G 871 20G
VStem: 482 90<84 154 154 154 237 290 374 546 546 546>
LayerCount: 2
Fore
SplineSet
932 580 m 1
 572 580 l 1
 572 374 l 1
 925 374 l 1
 925 290 l 1
 572 290 l 1
 572 84 l 1
 932 84 l 1
 932 0 l 1
 482 0 l 1
 482 154 l 1
 205 154 l 1
 96 0 l 1
 -10 0 l 1
 463 664 l 1
 932 664 l 1
 932 580 l 1
263 237 m 1
 482 237 l 1
 482 546 l 1
 263 237 l 1
EndSplineSet
EndChar

StartChar: aeacute
Encoding: 509 509 375
Width: 907
GlyphClass: 1
Flags: MW
HStem: -13 80<214 286 596.5 663> 198 75<485 767 485 855 484 767> 214 75<216.5 399 253 399 253 399> 393 80<236.5 302 594 668.5> 533 21G 699 20G
VStem: 51 86<115 165 115 195.5>
LayerCount: 2
Fore
SplineSet
857 236 m 0xb2
 857 225 857 211 855 198 c 1
 484 198 l 1xd2
 494 123 557 67 636 67 c 0
 690 67 734 88 758 129 c 1
 851 129 l 1
 819 40 737 -13 636 -13 c 0
 553 -13 485 22 442 81 c 1
 407 31 334 -13 238 -13 c 0
 130 -13 51 37 51 140 c 0
 51 251 147 289 253 289 c 2
 399 289 l 1
 399 365 340 393 264 393 c 0
 209 393 154 370 136 326 c 1
 40 326 l 1
 67 421 158 473 264 473 c 0
 349 473 416 445 453 395 c 1
 495 443 557 473 631 473 c 0
 763 473 857 368 857 236 c 0xb2
399 184 m 2
 399 214 l 1
 252 214 l 2xb2
 181 214 137 190 137 140 c 0
 137 90 181 67 247 67 c 0
 340 67 399 115 399 184 c 2
485 273 m 1xd2
 767 273 l 1
 756 344 706 393 631 393 c 0
 552 393 495 344 485 273 c 1xd2
EndSplineSet
EndChar

StartChar: Oslashacute
Encoding: 510 510 376
Width: 794
GlyphClass: 1
Flags: MW
HStem: -13 84<370.5 468.5 370.5 493.5> 593 84<325.5 423.5> 725 21G 871 20G
VStem: 56 90<300 407 300 430> 648 90<257 363.5>
LayerCount: 2
Fore
SplineSet
397 677 m 0
 472 677 539 654 595 615 c 1
 649 677 l 1
 754 677 l 1
 653 563 l 1
 706 502 738 422 738 332 c 0
 738 136 590 -13 397 -13 c 0
 322 -13 254 9 199 48 c 1
 145 -13 l 1
 40 -13 l 1
 140 100 l 1
 87 161 56 241 56 332 c 0
 56 528 204 677 397 677 c 0
397 593 m 0
 254 593 146 482 146 332 c 0
 146 268 166 211 199 167 c 1
 538 551 l 1
 498 578 450 593 397 593 c 0
648 332 m 0
 648 395 628 452 595 496 c 1
 256 113 l 1
 295 86 344 71 397 71 c 0
 540 71 648 182 648 332 c 0
EndSplineSet
EndChar

StartChar: oslashacute
Encoding: 511 511 377
Width: 582
GlyphClass: 1
Flags: MW
HStem: -13 80<278 336.5 278 360> 393 80<245.5 303.5> 533 21G 699 20G
VStem: 50 86<212.5 275.5 212.5 299.5> 446 86<185 247.5>
LayerCount: 2
Fore
SplineSet
541 473 m 1
 474 391 l 1
 510 349 532 293 532 230 c 0
 532 92 429 -13 291 -13 c 0
 245 -13 204 -1 168 19 c 1
 142 -13 l 1
 40 -13 l 1
 107 69 l 1
 71 112 50 167 50 230 c 0
 50 369 153 473 291 473 c 0
 336 473 378 461 413 441 c 1
 439 473 l 1
 541 473 l 1
291 67 m 0
 382 67 446 140 446 230 c 0
 446 265 436 298 419 324 c 1
 221 83 l 1
 242 73 265 67 291 67 c 0
136 230 m 0
 136 195 145 163 162 136 c 1
 360 377 l 1
 340 387 316 393 291 393 c 0
 200 393 136 321 136 230 c 0
EndSplineSet
EndChar

StartChar: uni021A
Encoding: 538 538 378
Width: 600
GlyphClass: 1
Flags: MW
HStem: -232 21G -56 20G 0 21G<255 345 255 255> 580 84<25 255 25 575 345 575 345 345>
VStem: 255 90<0 580 0 580>
LayerCount: 2
Fore
SplineSet
25 664 m 1
 575 664 l 1
 575 580 l 1
 345 580 l 1
 345 0 l 1
 255 0 l 1
 255 580 l 1
 25 580 l 1
 25 664 l 1
EndSplineSet
EndChar

StartChar: uni021B
Encoding: 539 539 379
Width: 393
GlyphClass: 1
Flags: MW
HStem: -232 21G -56 20G 0 76<228.5 348 287 348 287 348> 384 76<30 115 30 115 201 348> 566 20G<115 201 201 201>
VStem: 115 86<142 158 158 384 460 586>
LayerCount: 2
Fore
SplineSet
115 586 m 1
 201 586 l 1
 201 460 l 1
 348 460 l 1
 348 384 l 1
 201 384 l 1
 201 158 l 2
 201 103 230 76 287 76 c 2
 348 76 l 1
 348 0 l 1
 286 0 l 2
 171 0 115 53 115 142 c 2
 115 384 l 1
 30 384 l 1
 30 460 l 1
 115 460 l 1
 115 586 l 1
EndSplineSet
EndChar

StartChar: s
Encoding: 115 115 380
Width: 520
GlyphClass: 1
Flags: MW
HStem: -13 80<246.5 317 246.5 340> 393 79<219 286.5>
VStem: 55 86<310.5 349.5 310.5 367.5> 394 86<110 148>
LayerCount: 2
Fore
SplineSet
485 330 m 1
 390 330 l 1
 369 374 321 393 252 393 c 0
 186 393 141 369 141 330 c 0
 141 291 175 277 236 272 c 2
 329 265 l 2
 425 257 480 214 480 131 c 0
 480 52 404 -13 276 -13 c 0
 141 -13 60 54 40 134 c 1
 135 134 l 1
 153 90 206 67 287 67 c 0
 347 67 394 91 394 129 c 0
 394 167 360 183 298 188 c 2
 202 196 l 2
 104 205 55 248 55 327 c 0
 55 408 131 472 253 472 c 0
 390 472 464 405 485 330 c 1
EndSplineSet
EndChar

StartChar: a
Encoding: 97 97 381
Width: 554
GlyphClass: 1
Flags: MW
HStem: -13 80<214 273.5> 0 67 214 75<216.5 398 253 398 253 398> 393 80<236.5 302>
VStem: 51 86<115 165 115 195.5> 398 86<0 50 50 50 184 214 214 214 289 293 0 327>
LayerCount: 2
Fore
SplineSet
264 473 m 0xbc
 394 473 484 408 484 293 c 2
 484 0 l 1
 398 0 l 1x7c
 398 50 l 1
 362 11 309 -13 238 -13 c 0
 130 -13 51 37 51 140 c 0
 51 251 147 289 253 289 c 2
 398 289 l 1
 398 365 340 393 264 393 c 0
 209 393 154 370 136 326 c 1
 40 326 l 1
 67 421 158 473 264 473 c 0xbc
398 184 m 2
 398 214 l 1
 252 214 l 2
 181 214 137 190 137 140 c 0
 137 90 181 67 247 67 c 0
 340 67 398 115 398 184 c 2
EndSplineSet
EndChar

StartChar: S
Encoding: 83 83 382
Width: 614
GlyphClass: 1
Flags: MW
HStem: -13 84<269 363.5 269 400> 593 84<244 339>
VStem: 43 90<451.5 512 451.5 536.5> 486 90<150 213.5>
LayerCount: 2
Fore
SplineSet
25 165 m 1
 123 165 l 1
 153 108 225 71 313 71 c 0
 414 71 486 118 486 182 c 0
 486 245 440 277 345 287 c 2
 229 299 l 2
 98 313 43 384 43 478 c 0
 43 595 141 677 299 677 c 0
 462 677 551 580 579 499 c 1
 481 499 l 1
 455 554 382 593 296 593 c 0
 192 593 133 542 133 482 c 0
 133 421 178 389 256 381 c 2
 381 368 l 2
 503 355 576 285 576 187 c 0
 576 88 487 -13 313 -13 c 0
 138 -13 55 79 25 165 c 1
EndSplineSet
EndChar

StartChar: cyrbreve.cap
Encoding: 65537 -1 383
Width: 498
GlyphClass: 1
Flags: MW
HStem: 707 76<219 279 219 301> 862 20G<56 132 132 132 366 442 442 442>
LayerCount: 2
Fore
SplineSet
56 882 m 1
 132 882 l 1
 139 827 189 783 249 783 c 0
 309 783 359 827 366 882 c 1
 442 882 l 1
 435 783 353 707 249 707 c 0
 145 707 63 783 56 882 c 1
EndSplineSet
EndChar

StartChar: cyrbreve
Encoding: 63188 63188 384
Width: 480
GlyphClass: 1
Flags: MW
HStem: 528 75<211 268.5 211 288.5> 674 20G<58 133 133 133 346 422 422 422>
LayerCount: 2
Fore
SplineSet
240 603 m 0
 297 603 338 642 346 694 c 1
 422 694 l 1
 414 601 337 528 240 528 c 0
 142 528 66 601 58 694 c 1
 133 694 l 1
 141 642 182 603 240 603 c 0
EndSplineSet
EndChar

StartChar: uni20B4
Encoding: 8372 8372 385
Width: 653
GlyphClass: 1
Flags: MW
HStem: -13 84<282 366 282 405.5> 223 76<25 95 25 613 188 613 188 188> 368 76<25 460 557 613 25 460> 593 84<302 384.5>
VStem: 90 90<146.5 188.5 146.5 190.5> 478 90<485.5 522>
LayerCount: 2
Fore
SplineSet
557 444 m 1
 613 444 l 1
 613 368 l 1
 25 368 l 1
 25 444 l 1
 460 444 l 1
 473 458 478 476 478 495 c 0
 478 549 428 593 341 593 c 0
 263 593 205 554 181 499 c 1
 87 499 l 1
 112 580 191 677 339 677 c 0
 476 677 568 601 568 495 c 0
 568 475 563 455 557 444 c 1
613 223 m 1
 188 223 l 1
 183 212 180 198 180 179 c 0
 180 114 238 71 326 71 c 0
 406 71 465 108 493 165 c 1
 585 165 l 1
 558 79 485 -13 326 -13 c 0
 169 -13 90 85 90 184 c 0
 90 197 91 212 95 223 c 1
 25 223 l 1
 25 299 l 1
 613 299 l 1
 613 223 l 1
EndSplineSet
EndChar

StartChar: Tcommaaccent
Encoding: 65538 -1 386
Width: 600
GlyphClass: 1
Flags: MW
HStem: -232 21G -56 20G 0 21G<255 345 255 255> 580 84<25 255 25 575 345 575 345 345>
VStem: 255 90<0 580 0 580>
LayerCount: 2
Fore
SplineSet
25 664 m 1
 575 664 l 1
 575 580 l 1
 345 580 l 1
 345 0 l 1
 255 0 l 1
 255 580 l 1
 25 580 l 1
 25 664 l 1
EndSplineSet
EndChar

StartChar: tcommaaccent
Encoding: 65539 -1 387
Width: 393
GlyphClass: 1
Flags: MW
HStem: -232 21G -56 20G 0 76<228.5 348 287 348 287 348> 384 76<30 115 30 115 201 348> 566 20G<115 201 201 201>
VStem: 115 86<142 158 158 384 460 586>
LayerCount: 2
Fore
SplineSet
115 586 m 1
 201 586 l 1
 201 460 l 1
 348 460 l 1
 348 384 l 1
 201 384 l 1
 201 158 l 2
 201 103 230 76 287 76 c 2
 348 76 l 1
 348 0 l 1
 286 0 l 2
 171 0 115 53 115 142 c 2
 115 384 l 1
 30 384 l 1
 30 460 l 1
 115 460 l 1
 115 586 l 1
EndSplineSet
EndChar

StartChar: zero
Encoding: 48 48 389
Width: 1229
VWidth: 2048
Flags: HW
LayerCount: 2
Fore
SplineSet
612 1438 m 0
 761.333333333 1438 876.166666667 1373.83333333 956.5 1245.5 c 128
 1036.83333333 1117.16666667 1077 937 1077 705 c 0
 1077 480.333333333 1038 302.166666667 960 170.5 c 128
 882 38.8333333333 766 -27 612 -27 c 0
 463.333333333 -27 348.666666667 37 268 165 c 128
 187.333333333 293 147 473 147 705 c 0
 147 930.333333333 186.166666667 1108.83333333 264.5 1240.5 c 128
 342.833333333 1372.16666667 458.666666667 1438 612 1438 c 0
612 117 m 0
 710.666666667 117 783.833333333 163.833333333 831.5 257.5 c 128
 879.166666667 351.166666667 903 500.333333333 903 705 c 0
 903 910.333333333 879.166666667 1059.5 831.5 1152.5 c 128
 783.833333333 1245.5 710.666666667 1292 612 1292 c 0
 514.666666667 1292 442 1244.33333333 394 1149 c 128
 346 1053.66666667 322 905.666666667 322 705 c 0
 322 501.666666667 345.833333333 352.833333333 393.5 258.5 c 128
 441.166666667 164.166666667 514 117 612 117 c 0
608 855 m 256
 650 855 685.5 840.5 714.5 811.5 c 128
 743.5 782.5 758 747 758 705 c 0
 758 661.666666667 743.333333333 624.5 714 593.5 c 128
 684.666666667 562.5 649.333333333 547 608 547 c 0
 567.333333333 547 532.5 562.5 503.5 593.5 c 128
 474.5 624.5 460 661.666666667 460 705 c 0
 460 747.666666667 474.166666667 783.333333333 502.5 812 c 128
 530.833333333 840.666666667 566 855 608 855 c 256
EndSplineSet
EndChar

StartChar: exclam
Encoding: 33 33 390
Width: 1229
VWidth: 2048
Flags: HW
LayerCount: 2
Fore
SplineSet
688 952 m 1
 641 424 l 1
 555 424 l 1
 508 952 l 1
 508 1411 l 1
 688 1411 l 1
 688 952 l 1
602 229 m 0
 637.333333333 229 667 217 691 193 c 128
 715 169 727 139.333333333 727 104 c 256
 727 68.6666666667 714.833333333 38 690.5 12 c 128
 666.166666667 -14 636.666666667 -27 602 -27 c 0
 568 -27 539 -14.1666666667 515 11.5 c 128
 491 37.1666666667 479 68 479 104 c 256
 479 140 490.833333333 169.833333333 514.5 193.5 c 128
 538.166666667 217.166666667 567.333333333 229 602 229 c 0
EndSplineSet
EndChar

StartChar: quotedbl
Encoding: 34 34 391
Width: 1229
VWidth: 2048
Flags: HW
LayerCount: 2
Fore
SplineSet
872 1171 m 1
 836 891 l 1
 756 891 l 1
 719 1171 l 1
 719 1411 l 1
 872 1411 l 1
 872 1171 l 1
510 1171 m 1
 473 891 l 1
 393 891 l 1
 356 1171 l 1
 356 1411 l 1
 510 1411 l 1
 510 1171 l 1
EndSplineSet
EndChar

StartChar: numbersign
Encoding: 35 35 392
Width: 1229
VWidth: 2048
Flags: HW
LayerCount: 2
Fore
SplineSet
1147 397 m 1
 829 397 l 1
 745 0 l 1
 604 0 l 1
 688 397 l 1
 420 397 l 1
 336 0 l 1
 195 0 l 1
 279 397 l 1
 88 397 l 1
 88 528 l 1
 307 528 l 1
 383 887 l 1
 88 887 l 1
 88 1018 l 1
 410 1018 l 1
 494 1411 l 1
 635 1411 l 1
 551 1018 l 1
 819 1018 l 1
 903 1411 l 1
 1044 1411 l 1
 961 1018 l 1
 1147 1018 l 1
 1147 887 l 1
 934 887 l 1
 858 528 l 1
 1147 528 l 1
 1147 397 l 1
793 887 m 1
 524 887 l 1
 449 528 l 1
 717 528 l 1
 793 887 l 1
EndSplineSet
EndChar

StartChar: dollar
Encoding: 36 36 393
Width: 1229
VWidth: 2048
Flags: HW
LayerCount: 2
Fore
SplineSet
682 809 m 1
 808 755 896.166666667 695.166666667 946.5 629.5 c 128
 996.833333333 563.833333333 1022 489.333333333 1022 406 c 0
 1022 300.666666667 991.833333333 211.166666667 931.5 137.5 c 128
 871.166666667 63.8333333333 788 14 682 -12 c 1
 682 -141 l 1
 565 -141 l 1
 565 -27 l 1
 557 -27 l 2
 435.666666667 -27 329.333333333 -3 238 45 c 1
 272 186 l 1
 379.333333333 137.333333333 473 113 553 113 c 2
 565 113 l 1
 565 696 l 1
 421.666666667 757.333333333 329.5 817.833333333 288.5 877.5 c 128
 247.5 937.166666667 227 1000.33333333 227 1067 c 0
 227 1161.66666667 256.666666667 1241 316 1305 c 128
 375.333333333 1369 458.333333333 1410.66666667 565 1430 c 1
 565 1536 l 1
 682 1536 l 1
 682 1438 l 1
 773.333333333 1438 863.333333333 1423.66666667 952 1395 c 1
 915 1255 l 1
 833.666666667 1283.66666667 756 1298 682 1298 c 1
 682 809 l 1
565 864 m 1
 565 1284 l 1
 446.333333333 1252.66666667 387 1182.33333333 387 1073 c 0
 387 992.333333333 446.333333333 922.666666667 565 864 c 1
682 131 m 1
 802 174.333333333 862 259 862 385 c 0
 862 441 847.833333333 488.666666667 819.5 528 c 128
 791.166666667 567.333333333 745.333333333 604.333333333 682 639 c 1
 682 131 l 1
EndSplineSet
EndChar

StartChar: percent
Encoding: 37 37 394
Width: 1229
VWidth: 2048
Flags: HW
LayerCount: 2
Fore
SplineSet
330 1438 m 0
 418.666666667 1438 487.833333333 1407 537.5 1345 c 128
 587.166666667 1283 612 1202.66666667 612 1104 c 256
 612 1005.33333333 587 925 537 863 c 128
 487 801 418 770 330 770 c 0
 242.666666667 770 173.666666667 801.166666667 123 863.5 c 128
 72.3333333333 925.833333333 47 1006 47 1104 c 0
 47 1200 72.5 1279.66666667 123.5 1343 c 128
 174.5 1406.33333333 243.333333333 1438 330 1438 c 0
330 891 m 0
 422.666666667 891 469 962 469 1104 c 256
 469 1246 422.666666667 1317 330 1317 c 0
 236.666666667 1317 190 1246 190 1104 c 256
 190 962 236.666666667 891 330 891 c 0
1053 1411 m 1
 307 0 l 1
 168 0 l 1
 913 1411 l 1
 1053 1411 l 1
897 641 m 0
 985.666666667 641 1055 610.166666667 1105 548.5 c 128
 1155 486.833333333 1180 406.333333333 1180 307 c 0
 1180 209 1154.83333333 128.833333333 1104.5 66.5 c 128
 1054.16666667 4.16666666667 985 -27 897 -27 c 0
 809.666666667 -27 740.666666667 4.33333333333 690 67 c 128
 639.333333333 129.666666667 614 209.666666667 614 307 c 0
 614 403.666666667 639.5 483.5 690.5 546.5 c 128
 741.5 609.5 810.333333333 641 897 641 c 0
897 94 m 256
 989.666666667 94 1036 165 1036 307 c 256
 1036 449 989.666666667 520 897 520 c 256
 804.333333333 520 758 449 758 307 c 256
 758 165 804.333333333 94 897 94 c 256
EndSplineSet
EndChar

StartChar: ampersand
Encoding: 38 38 395
Width: 1229
VWidth: 2048
Flags: HW
LayerCount: 2
Fore
SplineSet
1227 8 m 1
 1197.66666667 -4 1161.33333333 -10 1118 -10 c 0
 1082.66666667 -10 1047.66666667 2.5 1013 27.5 c 128
 978.333333333 52.5 933.666666667 101.333333333 879 174 c 1
 775 40 649.333333333 -27 502 -27 c 0
 384 -27 284.166666667 10.5 202.5 85.5 c 128
 120.833333333 160.5 80 253.666666667 80 365 c 0
 80 436.333333333 101.333333333 503.833333333 144 567.5 c 128
 186.666666667 631.166666667 266.333333333 703.333333333 383 784 c 1
 272.333333333 914 217 1027.33333333 217 1124 c 0
 217 1217.33333333 247.833333333 1293 309.5 1351 c 128
 371.166666667 1409 449 1438 543 1438 c 0
 630.333333333 1438 702.333333333 1413.16666667 759 1363.5 c 128
 815.666666667 1313.83333333 844 1245 844 1157 c 0
 844 1093.66666667 824.666666667 1033 786 975 c 128
 747.333333333 917 675 849.333333333 569 772 c 1
 864 408 l 1
 909.333333333 524 943.166666667 604.666666667 965.5 650 c 128
 987.833333333 695.333333333 1019.33333333 734.5 1060 767.5 c 128
 1100.66666667 800.5 1153 817 1217 817 c 2
 1225 817 l 1
 1225 680 l 1
 1217 680 l 2
 1176.33333333 680 1137.33333333 658.333333333 1100 615 c 128
 1062.66666667 571.666666667 1013.33333333 465.666666667 952 297 c 1
 1002 237 1041 194 1069 168 c 128
 1097 142 1128.33333333 129 1163 129 c 0
 1179 129 1200.33333333 131 1227 135 c 1
 1227 8 l 1
496 866 m 1
 574.666666667 920.666666667 629.5 969 660.5 1011 c 128
 691.5 1053 707 1097.66666667 707 1145 c 0
 707 1197 691.166666667 1236.33333333 659.5 1263 c 128
 627.833333333 1289.66666667 589.666666667 1303 545 1303 c 0
 493 1303 449.5 1287.16666667 414.5 1255.5 c 128
 379.5 1223.83333333 362 1180 362 1124 c 0
 362 1052 406.666666667 966 496 866 c 1
795 276 m 1
 459 690 l 1
 380.333333333 632.666666667 324.833333333 579.833333333 292.5 531.5 c 128
 260.166666667 483.166666667 244 429.666666667 244 371 c 0
 244 297.666666667 269.833333333 236 321.5 186 c 128
 373.166666667 136 434.666666667 111 506 111 c 0
 617.333333333 111 713.666666667 166 795 276 c 1
EndSplineSet
EndChar

